<svg xmlns:rdf="http://www.w3.org/1999/02/22-rdf-syntax-ns#" xmlns="http://www.w3.org/2000/svg" version="1.0" xmlns:cc="http://creativecommons.org/ns#" xmlns:dc="http://purl.org/dc/elements/1.1/" viewBox="0 0 120 42">
	<g transform="matrix(.9938 0 0 .9937 -177.7 6.251e-7)">
		<path style="fill:#aab2ab" nodetypes="ccccccc" d="m182 .5107l114 .2027c1.6 0 3-.2364 3 3.181l-.1 37.57h-119.8v-37.71c0-1.681.2-3.239 2.9-3.239z"/>
		<path d="m297.3 0h-116.2c-1.3 0-2.3 1.014-2.3 2.261v39.5c0 .28.2.51.5.51h119.7c.3 0 .6-.23.6-.51v-39.5c0-1.246-1.1-2.26-2.3-2.26zm-116.2 1.021h116.2c.7 0 1.2.556 1.2 1.24v27.45h-83.3c-3.1 5.51-8.9 9.24-15.7 9.24-6.7 0-12.6-3.73-15.6-9.24h-4.1v-27.45c0-.683.6-1.239 1.3-1.239z"/>
		<g enable-background="new    ">
			<path style="fill:#fff" d="m253.1 32.96c.3 0 .6.02.8.08.3.06.5.15.7.28.2.12.4.29.5.50.1.22.1.48.1.79 0 .33-.1.61-.2.84-.2.22-.4.40-.7.55.4.12.7.32.9.62.2.29.3.65.3 1.07 0 .33 0 .62-.2.87-.1.25-.3.45-.5.60-.2.16-.5.27-.8.35-.2.07-.5.11-.8.11h-3.3v-6.66h3.2zm-.2 2.69c.3 0 .5-.06.6-.19.2-.12.3-.32.3-.60 0-.15 0-.28-.1-.38s-.1-.18-.2-.23c-.1-.06-.2-.10-.3-.12-.2-.02-.3-.03-.4-.03h-1.4v1.55h1.5zm.1 2.83c.1 0 .3-.01.4-.04s.2-.08.3-.14c.1-.07.2-.16.3-.27 0-.11.1-.25.1-.43 0-.34-.1-.58-.3-.73s-.5-.22-.8-.22h-1.6v1.83h1.6z"/>
			<path style="fill:#fff" d="m255.8 32.96h1.6l1.6 2.63 1.5-2.63h1.7l-2.5 4.1v2.56h-1.5v-2.59l-2.4-4.07z"/>
		</g>
		<g transform="matrix(.8729 0 0 .8729 50.13 143.2)">
			<path style="fill:#fff" d="m186.9-141.5c0 8.7-7 15.8-15.7 15.8s-15.7-7.1-15.7-15.7v-.1c0-8.6 7-15.7 15.7-15.7s15.7 7 15.7 15.7z" rx="22.939548" ry="22.939548" cy="264.3577" cx="296.35416" type="arc"/>
			<g transform="translate(-289.6 99.07)">
				<path d="m473.6-253.3c3.5 3.5 5.2 7.7 5.2 12.8 0 5-1.7 9.2-5.1 12.6-3.7 3.6-8 5.4-12.9 5.4s-9.1-1.8-12.7-5.3c-3.5-3.6-5.3-7.8-5.3-12.7 0-5 1.8-9.2 5.3-12.8 3.5-3.5 7.7-5.3 12.7-5.3s9.3 1.8 12.8 5.3zm-23.1 2.3c-3 3-4.5 6.5-4.5 10.5s1.5 7.4 4.4 10.4c2.9 2.9 6.4 4.3 10.4 4.3 4.1 0 7.6-1.4 10.5-4.4 2.9-2.7 4.3-6.2 4.3-10.3s-1.5-7.6-4.3-10.5c-2.9-2.9-6.4-4.3-10.5-4.3s-7.5 1.4-10.3 4.3zm7.7 8.7c-.4-1-1.1-1.5-2-1.5-1.6 0-2.4 1.1-2.4 3.3 0 2.1.8 3.2 2.4 3.2 1 0 1.8-.6 2.2-1.6l2.2 1.2c-1 1.8-2.6 2.8-4.7 2.8-1.6 0-2.9-.5-3.9-1.5s-1.4-2.4-1.4-4.1.5-3.1 1.5-4.1 2.2-1.5 3.7-1.5c2.2 0 3.8.9 4.8 2.6l-2.4 1.2zm10.4 0c-.5-1-1.1-1.5-2-1.5-1.6 0-2.4 1.1-2.4 3.3 0 2.1.8 3.2 2.4 3.2 1 0 1.8-.6 2.2-1.6l2.3 1.2c-1.1 1.8-2.7 2.8-4.8 2.8-1.6 0-2.9-.5-3.9-1.5-.9-1-1.4-2.4-1.4-4.1s.5-3.1 1.5-4.1 2.2-1.5 3.7-1.5c2.3 0 3.8.9 4.8 2.6l-2.4 1.2z"/>
			</g>
		</g>
		<circle style="fill:#fff" cy="15.31" cx="255.6" r="10.81"/>
		<path d="m258.7 12.19c0-.42-.4-.76-.8-.76h-4.7c-.5 0-.8.34-.8.76v4.77h1.3v5.65h3.6v-5.65h1.4v-4.77z"/>
		<circle cy="9.172" cx="255.5" r="1.633"/>
		<path style="fill-rule:evenodd" clip-rule="evenodd" d="m255.5 3.407c-3.2 0-5.9 1.128-8.2 3.384-2.3 2.334-3.4 5.099-3.4 8.289 0 3.18 1.1 5.93 3.4 8.22 2.3 2.3 5.1 3.44 8.2 3.44 3.2 0 6-1.15 8.4-3.47 2.2-2.19 3.3-4.93 3.3-8.19 0-3.27-1.1-6.033-3.4-8.289-2.2-2.256-5-3.384-8.3-3.384zm.1 2.1c2.6 0 4.9.934 6.7 2.801 1.9 1.852 2.8 4.102 2.8 6.772 0 2.68-.9 4.91-2.7 6.68-2 1.9-4.2 2.85-6.8 2.85-2.7 0-4.9-.94-6.8-2.82-1.9-1.89-2.8-4.13-2.8-6.71 0-2.59.9-4.85 2.8-6.772 1.9-1.867 4.1-2.801 6.8-2.801z"/>
	</g>
</svg>
