<svg id="svg-cabecera" xmlns="http://www.w3.org/2000/svg" xmlns:cc="http://creativecommons.org/ns#" viewBox="0 0 1009.3559 216.254" height="216" width="1.01e3" style="stroke-linejoin:bevel;stroke:#000;stroke-linecap:round;stroke-width:2;fill:#000;">
	<g id="cabecera">
		<path  style="fill:none" d="m864 172c4.54-1.01 13.5 1.52 3.89 1.72-6.29.644-12.5-.942-18.5-2.41m40.8 18.3c-3.5-3.4-8.66-5.14-10.8-9.84m-3.05 1.97c5.09.742 10 2.42 14.9 4.13m-91 4.23c23.7-2.32 47.5-1.65 71.2.347 1.5-4.09-1.39-6.63 6.55-3.89m94-101c.680 1.85 2.59 4.73 4.13 5.11m-4.43-3.25c-3.95-1.79 1.92 4.95 2.26 5.61m-3.84-2.95c-5.42-4.36-2.6 2.46-1.48 4.82m32.2 65.6c1.72 2.76 2.85 5.91 3.64 9.05m-5.31-7.97c.974 1.11 1.18 2.63 1.28 4.03m-3.74-3.25c-1.94-4.73-1.45 1.96-.885 2.95m-93.9 40.4c5.82-4.49 10.3-7.27 18.1-4.58 6.61.0571 5.67-10.7 7.47-15.1m-24.3 14.4c-1.01 1.86-2.45 4.29-4.73 4.59m2.64-5.01c-1.67 1.6-4.08 2.23-5.84 3.76m13.8 7.79c-12.5-5 4.81-2.19 9.39-.835-1.61-1.92-12-5.93-2.17-3.28 4.47 1.94 16.7 4.23 5.74-.130-6.25-2-6.51-3.91-.143-1.33 4.89 2.83 13.9 4.28 4.88-1.6-9.29-7.66 15.7 7.66 12.6 5.58 3.39-.828-10.9-10.5-10.6-10.2-4.54-1.18 13.7 9.36 14.9 8.42-4.81-2.34-11.7-9.44-2.38-4.19 3.45 2.28 18.2 9.98 7.1 2.98-3.8-2.43-20.7-12-8.14-6.29 7.44 2.9 19.3 9.31 24 9.61-5.88-3.42-16.5-8.03-20.2-9.85 3.54 1.88 21.5 8.63 10 2.12-4.16-2.14-20-10.2-7.75-4.73 9.79 4.07 19.2 9.4 29.4 12.2-6.91-6.16-15.2-11.1-23.5-15.1 5.64 4.27 14.7 9.73 20.7 9.44-3.5-4.57-13.9-11.4-13.9-13.5 9.6 5.19 20.4 9.27 28.3 16.8-8.78.387-17.4-5.48-25.9-8.11-5.25-3.4-11.8-2.71-5.66 3.73-.053 1.29 8.31 8.98 4.74 7.71m.033-114c3.53 5.75 7.15 13.8-1.08 16.4.764 14.2 9.98 26.7 19.7 36.4 3.44 3 7.32 5.79 11.8 6.83m2.07 8.16c4.8 10.7 19.7 3.85 13.1-6.36.423-7.75-14.3-23.3-19.1-10.9-4.74 3.13-10.5 1.36-13.7-2.98m-40.9 10.6c8.99.0106 6.22 16.1 15.1 19.1 7.69 2.33 22.3 3.23 29.7-3.05 2.6-5.18 9.92-13.5 14.4-4.95m-78.1-39.6c-14.6-7.26-8.51 13-1.64 18 3.92 5.68-11.2-.231-9.67 9.57m.984-57.2c14 7.71-1.77 17.5-7.21 24.4-3.81 10.8 3.64 22.6-3.03 33-4.3 10.3.03 22.2 8.57 28.9 10.9 10.4-20.3 16-3.65 24.3 9.83 5.57 16.8-7.75 25.9-9.73 8.31-2.25-3.15-10.8 6.76-11.6 10.9-8.57-11-19.2-7.37-30.2 10.8-4.24 17.8 9.7 25.9 14.8-2.01-1.98-1.17-8.38 5.21-5.04 10.6 5.78 10.9-5.46 5.6-11.5-1.48-2.17-7.06-13.7-9.6-7.08m-5.21-59.9c-6.62 1.85-13.1-.450-18.2-4.03-1.81 6.85 15.9 12.1 4.77 4.51-2.78-3.81 9.75 4.66 13 1.87 16.1-4.34-8.92 3.04-11.5 2.37m-37.5-38.7c3.32-10.4 18.6-1.14 23.8 3.95 5.4 8.3 9.36 20 4.56 29.4-9 4.37-18.2 10.8-20.6 21.5-4.05 8.73-4.15 18.3-3.66 27.7m37.8-75c8.11-.503 12.4 16.5 1.52 9.67-4.21-2.45-7.92-5.65-11.5-8.98m-2.85-11c5.71 2.43 12.5 12.2 2.36 4.64-6-5.33-8.67-1.42-3.27 3.84 8.76 7.85-7.08 13.7-5.37 18.2 9.45-1.09 7.88-16.5 1.66-16.4m-51-56.8c-16.4 7.82-28.6 21.8-43.4 32.2-5.54 8.41-12.7 15.5-19.9 22.6-3.17 7.23-8.36 2.48-12.5 3.49-1.77 1.52-1.24 4.48.787 5.61m51-34.2c2.57-1.83 3.49-5.03 6.98-5.8m-20.1 9.54c-2.37-1.07-7.06-1.14-8.26 1.67m105-5.78c-9.02-6.63-13.1-7.68-16.7 1.57-10.7 4.11-15.5-10.6-25.5-9.5-9.65 3.99-19.9 2.96-30.1 2.4-7.76 6.55-16.3-10-21.3-1 7.01 9.74-19.5 2.19-12.1 15 6.05 5.69 19 .528 20.7 2.99-1.38 4.07 14 2.11 16.6-2.68 9.78.306 21.5 12.6 29.3 2.22 5.44 3.22 21 7.93 19.9-1.97-3.39-1.25-7.11-1.42-10.7-1.6m65.6 31.9c4.26-7.78 19.9-5.14 19.1-17.6-3.78-13-23.2-.740-17.3 10 11.1 5.03 27.8-16.3 10.8-18.1-9.62 1.12-20.7 11.9-10.2 20.3m32.6-29.4c5.76 4.46 9.02 13.1 3.13 16.2 8.8 8.74-6.27 8.72-11.2 11.2-1.57 6.1 1.85 18.6-9.68 15.1-2.71-0.5-8.13-4.02-9.06.681m-40-45.4c4.65 3 8.52-3.07 3.84.209 5.57 9.43 14.1-6.95 22.3-2.59 7.82 7.51 16.2-2.67 23.9-5.69 12.9.394 25.8 12.8 21.9 26.3-5.97 11.7-20.6 14.7-28.6 24.6 2.16 6.95 18.2 3.35 8.94 12.1-7.26 10.3-20.8.743-22-9.1-.01-.897-.867-2.22.042-2.96m-15-55.4c-5.01 5.09-2.04 8.73 3.2 5.43 1.21 1.15.172 2.89-.348 4.03m1.04-15.3c9.25-10.3-12.5-23.5-11.4-7.57l-.455.958m1.39 8.14c-12 5.4-5.56-25.2 5.26-14.7 8.42 3.01 11 11 2.95 16.7"/>
		<path  d="m239 17.9c-13.2.207-27.1 3.88-35.1 14.2-5.02 12.8-6.92 29.9-.633 41.9l-.0273.0478c2.28 1.29 5.42.488 6.86-1.55 9.13-10.3-5.6-30.8 11.5-33.4 8.1-4.61 37.1-8.65 26.4-20.9-2.91-.282-5.93-.419-8.98-.371zm-4.93 6.58c4.63.162-6.48 6.15-11.5 7.89l.01.009-2.14.949-2.22.940c-17.5 8.83.790-10.5 9.88-8.85 3.01-.707 4.92-.979 5.99-.942zm-64.1 0.7c-1.44.0197-3.07.431-4.85 1.38-11.4 6.49-26.3 10.1-34.4 20.3 1.1 14.1 24 9.65 32 17.9-11 7.52-25.8 8.35-36.6 15.8l-.0996.103c4.9 2.4 11.3-.374 16.4-1.23 10-4.23 31.3-3.95 30.4-17.2-9.2-7.62-22.5-7.99-33-13.5 0.7-6.51 19.7-10.6 28.1-12.3 11.8.0793 9.81-11.3 2.05-11.2zm-57 3.05c-8.2.282-31.5-.565-28.4 10.9 8.2.282 24.7-3.67 28.4-10.9zm-105 .2c-17.9 3.29 4.23 17.7 6.38 25.8 10.3 8.93-6.71 23.1 4.09 29.2 14.7-4.98 7.32-24.3 2.09-34-10.4-15 12.9-5.97 19.2-1.55 15.5 5.26 21.3 23.9 7.47 34.4-8.58 11.5-25.9 13-36 20.5 14.6 2.03 28.8-6.52 39.1-15.4 11.9-9 17.1-26.8 3.6-36.8-13-10.6-29.1-18.6-46-22.1zm3.18 74.3c-.0215-.003-.0430-.004-.0644-.007l.0098.0459c.0178-.0132.0368-.0254.0547-.0386zm420-71.7c-20.1.107-40.2 1.29-60 4.57-17.7 4.24 2.7 15.2 11.7 10.9-1.99-4.4-2.58-5.96 4.83-5.91 7.68 9.31-.960 25.9 7.03 36.2l-.0801.0459c6.42 5.79 4.15-6.24 4.32-8.69 1.79-10.3-5.8-30.5 10.3-31.4 8.7-2.34 30-.763 30.5-5.7-2.86-.0259-5.73-.0318-8.59-.0165zm-137 1.13c-18.9-.0733-35.9 10.8-50.6 21.1-19.5 9.96-1.2 26.9 14.8 24.1l-.0606-.0184c4.52.0658 9.47-.0382 13.6-1.95-6.3-6.18-31.5.470-31.5-12.8 11.5-13.1 29-20.2 45.9-24.9 13.6-5.08 9.81 6.84 1.36 11-10.2 12.5-26.7 2.82-36.2 13.8-1.3 14.7 19.3 2.75 26.3-.760 9.8-5.08 31.9-18.6 20.2-29.4-1.27-.106-2.54-.159-3.8-.163zm202 .0477c-.433.00036-.875.0182-1.33.0514-15.1-.47-22.9 19.6-32.9 21.1-14-2.73-20.6 22.1-18 32.8.956 1.16 2.56 1.91 4.13 1.63 9.7-9.4 19.2-19.6 35.3-18.9 18.2-3.18-2.68-5.56-9.91-6.04-8.4-8.65 11.5-24.7 22.1-25.7 15.9 4.32 8.21 24.5 10.8 36.2 5.66 15.6 5.58-9.44 5.18-15.4 1.65-10.4-1.96-25.8-15.4-25.8zm-419 6.9c-3.41.159-7.92 5.09-6.43 10.8-2.57 11.6-9.4 29.5 5.3 36.1l-.0508.0753c13.2 1.5 28.9-1.96 39.1-9.78-10-2.91-23.8 5.63-35.7 3.62-12.1-5.83.059-15.3 9.18-15.3 5.1-2.44 26-8.02 19.1-12.2-9.3.0282-34.3 13-27.3-5.59.963-5.64-.860-7.77-3.2-7.66zm486 .145c-6.24-.0422-12.5 1.31-17.7 4.06-11.8 8.74-22.4 23.4-20.1 38.2 4.51 13.3 14.3-2.45 12.1-9.97 4.84-8.74 5.26-19.5 13.6-24.6 11.5-7.9 45.5 2.26 23.9 15-19.2 8.55-7.82 27.9 8.18 31.6l-.01-.0477c19 5.92-2-7.31-7.17-11.4-16.8-12.9 21.4-18.6 11.8-33.7-6.29-5.99-15.4-9.02-24.6-9.09zm-212 .415c-5.68.0435-13.6 2.79-17.3 5.83 4.02-5.95-4.75-7.64-7.68-2.74-6.25 11.5-17.7 25.5-12.6 38.6l.0508-.0184c8.44 5.26 11.5-9.31 14.6-14.2 0.8-5.26 14.2-21.5 14.5-15.3-9.6 13.1 8.6 24.1 19.7 27.7-4.52-10.1-23-19.3-7.37-29.5 5.25-7.78 1.81-10.4-3.87-10.4zm-164 66.2c-.838.0179-1.89.281-3.2.843-19.1 19.6-29.7 45.1-36.8 70.6-14.1 10.2-30.5 19.5-48 24.3-16.7 1.13 5.19-15.3 9.75-20.2 6.01-7.24 26-20.4 14.7-28.8-12.6 2.16-20.8 13.3-30.1 20.9-7.06 7.8-28.3 25.5-11.1 33l.0781.0753c4.11 2.02 8.86 1.37 13.3 1.05 18.7-3.67 35.4-14.3 49.6-26.1 2.49 3.2-2.88 17.7 3.5 19.2 0.5-23 7.6-45.7 20.1-65.4 2.4-4.23 19.9-30.3 14.4-14.1-6.52 18.5 13.7-15.4 3.77-15.2zm139 20.2c-11.5-.068-23.1 5.93-34.5 7.91-19.9 4.14-38.7 11.3-58.3 16.5-15.3 6.05 3.68 13.2 11.9 10.5-4-5.89 1.5-7.98 8.2-10.2 14.4-9.21 14.5 5.48 7.99 13.9-1.73 6.11-13.3 27.6-3.2 25.8 5-14.9 11.3-29.8 20-43.2 6.1-11.8 24.1-10.5 35.9-15 5.5 1.5-9.46 16.2-10.4 23.8-3.14 12.5-17.1 25.9-12.8 38 10.3-1.14 10.8-16.6 16.7-23.3 8.9-17.5 28.6-32.3 49.9-29.1 3.3 10.2-14.1 20.6-20.7 29.5-14.5 7.12 3.78 24.7 9.74 15.4-12.7-2.63-8.68-12.4-.404-17.9 6.41-8.55 24.8-19.3 16-30.4-18.1-4.79-36.6 4.42-49.8 15.7 1.6-11 13.4-18 18.7-27.4-1.62-.287-3.26-.420-4.89-.430zm-35 68c-.003.0003-.005.002-.008.002l.0254.0551c-.007-.0189-.0109-.038-.0176-.057zm163-63c-14.4-.101-23.6 13.4-34.3 21-2-6.72-12.2-9.54-14.1 6.44-5.03 9.68-20.2 24.6-11.1 33.9 10.7-8.73 21.4-18.8 37.2-16.6 14.6-8.32-5.82-5.26-11.5-9.03-1.2-11.3 14.2-21 23-28.4 15.2-10.1 10.1 11 6.49 18.3-2.95 12.3-13 26.4-5.88 38.4l.0391.057c4.87-5.64 1.83-18.9 7.1-26.6 2.56-11.7 15.1-27.4 4.45-37.5-.475-.0323-.944-.05-1.41-.0532zm84.8 13.8c-17.7.181-35.2 6.73-51.6 12.5-15.3 3.54-5 19 5.9 9.01 12.8-10.1 29-16.1 45.7-16.9 13.8-4.14 32.3 10.3 15.9 20.6-4.4 4.97-11.3 2.67-17.2 3.08-6.2.404-31.5-2.9-23.3 7.73 7.7 1.06 16.6-.593 24.7-.797 7.2.376-13.1 11.2-16.7 14.2-17.4 5.83-8.82 21.4 6.68 20.7l-.0606.011c3.81.689 7.73.946 11.6.674 6.2-6.1-21.4-5.09-22.4-12.2 8.5-8.37 19.9-13.5 29.8-20.3 7.4-6.34 18-4.77 27.2-6.36 18.7-1.93-5.49-3.26-11.9-3.75 1.07-5.83 8.98-22.9-6.62-25.8-5.87-1.62-11.8-2.27-17.7-2.21zm-423 17.8c3.9 1.69-12.8 15.9-19.3 20.1l-.0195.0367c-2.91 1.74-5.85 4.72-9.08 5.32 6.8-10.6 17.7-18.5 28.4-25.5zm481 .518c-13 9.95 12.6 8.58 18.8 11.2 14.7 0 23.7 17.9 5.47 21.6-10.6 2.26-36.1 3.76-32.2-11.5 7.39-5.1 11.4-18.6-1.09-9.07-14.7 8.55-6.36 28.1 9.74 27.8l.549.0882c4.63.645 9.36.333 14-.0184 13.2.094 34.6-11.6 24-25.8-9.77-7.28 4.48-3.59 9.63-3.87 50 6.39 100 25.2 152 16.3 2.9-3.23-14.5-.216-19.2-.859-42.2 1.88-82.5-10.3-123-18.2-19.4-3.06-39-7.62-58.7-7.6z"/>
	</g>
</svg>
