<svg xmlns:rdf="http://www.w3.org/1999/02/22-rdf-syntax-ns#" xmlns="http://www.w3.org/2000/svg" viewBox="0 0 800 375" version="1.1" xmlns:cc="http://creativecommons.org/ns#" xmlns:dc="http://purl.org/dc/elements/1.1/">
	<path d="m165.6 286.9c-16.93-5.363-21.14-20.2-37.64-25.72-7.466-8.695-7.496-20.82-17.35-27.94 6.817-15.14-10.72-26.4-5.611-43.09 1.785-17.42 2.102-36.57 15.13-49.94.7311-20.42 17.72-32 35.49-36.7 3.752-8.611 11.78 11.14 17.21-.2561 23.22-2.775 40.58 14.47 48.9 33.56 5.146 12.63 13.01 35.67-8.03 37.43-17.96 9.414-27.39-9.694-24.39-25.13-.5117-12.74-15.41-8.906-21.01-16.95-9.37 3.692-17.01 8.247-24.02 14.33-.1020 15.54-16.8 25.41-10.27 42.04-1.288 11.52 14.19 22.23.3666 28.9 5.691 11.41 14.53 29.6 30.68 23.04 12.19 10.73 34.12 2.914 34.06-14.73 6.489-11.88 30.65-24.22 32.98-3.378-1.089 16.23-13.87 29.77-19.39 44.17-13.5 1.882-19.21 13.55-29.75 18.67-9.303-4.323-8.603 10.62-17.36 1.692zm164.6-2.919c-5.096-13.16-15.2-24.06-20.74-35.8-1.11-15.69 12.45-28.3 20.76-35.66 16.89-14.85 45.54-7.462 51.24 14.64 7.254 10.94-6.593 19.31 2.632 29.02-16.73 5.461-8.465 31.09-28.81 29.73-8.244 3.051-17.53 2.972-25.07-1.927zm191.8.4603c-10.55-13.86-8.529-32.37-17.69-46.95-2.307-14.14-12.13-23.7-13.79-37.92-1.775-17.52-9.553-33.74-12.65-50.92-5.549-16.99-37.28.1434-29.4-24.42-1.405-12.43.3327-21.68 14.2-24.48 5.983-5.858 17.67 26.3 23.79 6.469 10.62-9.34 27.09-.8984 40.05-1.167 12.38 6.786 25.11 19.47 34.62.9965 9.716-10.37 14.77 20.38 21.5 3.683-3.098-15.19 10.52 4.066 15.39-4.457 2.658 11.91 8.338 34.89-10.26 31.62-16.35 4.36-17.31 23.71-21.36 37.24-3.849 16.53-7.558 33.13-11.89 49.49-5.719 13.91-6.751 29.06-11.48 43.16-3.406 5.414-14.17 25.98-21.04 17.67zm2.567-69.39c17.66-.024 9.884-32.09 14.77-45.52 12.62-10.89.7280-27.62-11.48-33.3-11.15-5.271-19.6 7.119-25.58 12.84 3.46 15.34 7.491 30.94 14.02 45.35 5.092 4.992 13.95 15.6 2.77 15.38-1.941 4.097 1.608 11.51 5.5 5.249zm4.818-85.15c8.559-12.94-17.05-17.53-9.643-1.764 1.834 3.104 6.911 4.678 9.643 1.764zm-57.06-7.882c1.025-18.45-18.34 6.854 0 0zm44.74-.3157c1.314-16.85-19.97-1.048-4.937 2.165l2.86-.6678 2.077-1.497zm171.3 163.8c-8.848-9.381-11.29-23.33-21.78-31.99-6.614-18.09 8.832-28.33 16.72-41.82 14.11-3.741 27.22-12.59 41.2-2.336 10.29 6.746 19.95 26.79 10.74 37.34 14.49 11.33-13.42 15.65-9.037 30.59-5.384 10.9-26.13 12.31-37.84 8.211z"/>
</svg>
