<svg xmlns:rdf="http://www.w3.org/1999/02/22-rdf-syntax-ns#" xmlns="http://www.w3.org/2000/svg" height="216.8" viewBox="0 0 686.17053 216.75897" width="686.2" version="1.1" xmlns:cc="http://creativecommons.org/ns#" xmlns:dc="http://purl.org/dc/elements/1.1/">
	<path d="m644.5 214.8c-17.91-5.736-31.13-56.24-14.73-56.24 4.68 0 6.203 1.953 9.504 12.19 7.175 22.25 10.04 25.05 23.59 23.07 12.41-1.814 17.94-.9137 21.4 3.486 9.443 12.01-18.51 24.3-39.77 17.49zm-180.1-4.361c-10.76-6.969-13.84-19.91-16.34-68.67-.8891-17.3-1.399-20.69-3.518-23.38-2.138-2.718-2.331-4.06-1.405-9.77.5903-3.641 1.576-11.01 2.191-16.38 1.59-13.88 7.602-18.98 16.31-13.84 5.49 3.243 5.439 2.85 5.734 44.22.3101 43.53 2.368 63.65 7.126 69.65 3.228 4.071 18.75-8.714 54.09-44.54 55.69-56.47 77.25-73.54 83.75-66.35 3.463 3.826 1.571 6.378-22.94 30.93-12.86 12.89-30.39 31.03-38.94 40.31-54.98 59.66-68.84 68.97-86.06 57.81zm-429.5-8.5c-53.43-11.9-44.84-59.8 21.29-118.8 88.22-78.58 208.3-110.7 207.3-55.42-.3692 21.18-17.5 29.29-27.42 12.98-6.257-10.29-6.245-10.24-3.226-14.32 3.776-5.107 2.249-5.593-17.34-5.514-64.97.2607-188.9 87.95-200.1 141.5-4.242 20.41 25.81 30 71.17 22.71 29.45-4.733 37.85-3.413 34.47 5.413-3.121 8.134-64.49 16.28-86.19 11.45zm242.5-12.5c-21.22-3.293-26.72-7.009-20.94-14.14 2.647-3.267 9.195-4.879 21.12-5.197 7.523-.2007 9.773-.8023 14.25-3.809 12.62-8.474 20.77-2.297 16.02 12.14-4.401 13.37-7.651 14.55-30.45 11.01z"/>
</svg>
