<svg xmlns:rdf="http://www.w3.org/1999/02/22-rdf-syntax-ns#" xmlns="http://www.w3.org/2000/svg" viewBox="0 0 732.5 170" version="1.1" xmlns:cc="http://creativecommons.org/ns#" xmlns:dc="http://purl.org/dc/elements/1.1/">
	<path style="fill:#da6775" d="m217.9 126.3c-12.8-10.2-28.5-43.47-23-54.67 7.3-11.6 23.9-5.41 23.9 8.91 2.521 23.07 3.918 24.78 19.09 2.894 20.81-24.66 28.28-30.01 35.39-25.35 12.18 21-47.07 74.82-55.36 68.22zm57.03-8.704c-17.7-30.11 34.46-29.69 24.3-5.535-4.271 9.001-17.76 12.07-24.3 5.535zm-174.9.9752c-20.02-3.3-28.37-16-20.78-31.53 15.03-30.71 58.08-44.12 62.48-19.46-.8212 15.52-31.26-1.877-39.22 24.95-3.124 10.53 37.68.09767 40.63 12.32 2.472 11.26-18.17 17.81-43.08 13.69zm67.62-5.316c-22.53-25.48 29.51-28.91 19.76-5.396-2.859 6.275-13.12 9.076-19.76 5.396z"/>
</svg>
