<svg xmlns:rdf="http://www.w3.org/1999/02/22-rdf-syntax-ns#" xmlns="http://www.w3.org/2000/svg" height="114.7" width="421.6" version="1.1" xmlns:cc="http://creativecommons.org/ns#" xmlns:dc="http://purl.org/dc/elements/1.1/" viewBox="0 0 421.61176 114.71899">
	<g transform="translate(-155.5 -27.75)">
		<path d="m542.1 87.43c-5.108 2.22-10.38 4.618-14.75 5.428-2.097 7.458-13 7.61-9.952 17.84-.6308 6.812 11.77 9.173 11.8 17.87 8.802 2.653 23.87 2.617 28.33-3.221-.2746-7.595 16.59-11.12 5.974-16.61 8.074-3.458-2.101-16.94-7.792-17.89-4.571.09585-8.092-5.707-12.36-2.09l-1.247-1.33zm-140.4-16.92c4.978 11.89 7.806 23.75 14.24 34.89 7.198 6.665 5.733 30.17 19.91 22.76 9.369-4.611 8.922-15.68 12.72-23.91 5.748-13.54 8.11-28.4 14.46-41.69 5.525-10.32 20.69.8864 16.47-10.57 1.472-6.342-.063-14.45-8.285-11.07-6.822-7.294-3.676 3.624-7.569 4.748-1.951-7.429-11.28-7.558-14.66-1.338-6.374 6.406-15.33-9.095-23.23-4.323-9.272-1.261-17.24-4.431-23.73 4.549-4.534-5.392-10.88-9.72-16.8-4.352-7.834-.3437-4.181 14.41-3.086 19.15 9.764-.2624 19.18-2.388 19.57 11.15zm18.72-24.12c9.513.4280-.4623 7.363 0 0zm-27 2.52c3.083-5.964 4.593 3.993 0 0zm35.64-1.8c7.801-.09967 1.814 10.64-.7444 3.239l.4090-1.577.3354-1.662zm-5.04 9.36c7.481-2.426 23.55 6.502 15.78 13.46-4.124 1.114.2581 9.778-3.547 13.52 2.133 5.194-4.489 15.16-4.286 4.649-7.911-2.596-9.552-11.86-12.14-19.03-1.947-5.044-4.409-9.2 3.444-8.366 1.115-1.092.9188-2.861.7485-4.238zm3.24 35.64c5.818-.2733-.7367 6.11 0 0zm-108-4.68c-5.108 2.22-10.38 4.618-14.75 5.428-2.097 7.458-13 7.61-9.952 17.84-.6308 6.812 11.77 9.173 11.8 17.87 8.802 2.653 23.87 2.617 28.33-3.221-.2746-7.595 16.59-11.12 5.974-16.61 8.074-3.458-2.101-16.94-7.792-17.89-4.571.09585-8.092-5.707-12.36-2.09l-1.247-1.33zm-103.9-30.42c3.546-1.166.0868 2.132 0 0zm-16.2-17.64c-4.979 5.474-13.22 1.385-16.88 8.612-7.066 2.649-7.367 13.64-13.39 18.68-1.271 10.42-7.668 22.89 1.087 32.28-.5801 2.985-1.408 9.957 5.393 11.03 1.758 5.016 3.828 9.963 9.639 11.31 8.387.1347 9.377 9.814 18.19 9.467 6.26 4.363 10.39-.9345 16.84-.9696 5.433-8.745 19.93-4.115 21.29-16.84 9.758-5.401 10.33-24.75-4.6-20.88-5.617 4.393-12.92 6.756-14.07 14.69-9.319 5.121-16.97-1.801-25.76.3645-4.273-4.709-16.03-10.08-4.954-13.63-4.426-5.612-10.23-17.74-1.714-22.56 2.743-5.023 2.277-11.44 10.92-10.23.3762-6.527 8.844-4.913 9.71-.4412 8.131-3.375 9.495 2.389 8.468 8.741.5918 10.83 9.438 9.144 17.13 7.758 12.42.6726 10.2-11.79 6.288-19.35-5.338-2.584-6.046-9.592-11.18-12.99-9.367-.4193-15.37-6.85-24.17-3.254-2.793 2.261-4.339-3.644-8.234-1.786z"/>
	</g>
</svg>
