<svg xmlns:rdf="http://www.w3.org/1999/02/22-rdf-syntax-ns#" xmlns="http://www.w3.org/2000/svg" height="186.5" width="784.4" version="1.1" xmlns:cc="http://creativecommons.org/ns#" xmlns:dc="http://purl.org/dc/elements/1.1/" viewBox="0 0 784.43188 186.5">
	<g>
		<path d="m732 106.3c7.533.1747 3.903-8.559 0 0zm16.2 5.76c.3374 2.248 2.846-1.413 0 0zm-26.64-46.62c16.18-2.897 33.44 9.888 32.77 22.81-6.169-8.047-35.89 2.608-39.3-17.25 1.792-2.418 5.86-2.167 6.528-5.562zm-11.88 27.18 1.736 1.736-1.736-1.736zm0 3.42c15.43 6.335 34.94 2.993 46.74 11.73-5.235 19.06-35.96 14.57-44-.7338-5.199.2295-1.746-7.796-2.742-10.99zm6.84-49.32c-17.13 5.628-31.18 35.63-11.8 43.96 1.645 8.436-19.66 1.717-13.85 17.82.7418 10.78-1.423 41.42 16.43 26.98 12.83-1.065 40.19 9.861 52.97-2.391 16.65-9.849 17.79-30.43 3.829-43.66-11.87-.1947 12.93-4.405 3.882-14.55 8.175-10.96 2.533-33.45-14.31-22.3-13.34 4.225-12.03-8.746-24.99-4.016-3.334-3.374-7.759 3.679-12.16-1.848zm-86.61 35.64c3.802 8.352 9.235-1.528 0 0zm-7.56 9.18c-.1546 2.097 2.59-1.209 0 0zm7.56 6.12c-2.28 11.87 10.95-2.099.3459 0h-.3459zm-25.56 10.26 1.361 1.701-1.361-1.701zm8.28-45.9c8.181.9396 13.23 7.979 20.13 6.257 14.25 4.207 6.021 26.79 6.499 24.1 10.03 14.9-14.23 9.278-12.31 21.81-22.71 7.763-37.42-18.21-27.38-36.74 4.276-6.066 3.334-13.52 13.07-15.43zm10.44-18.72c-19.05 3.226-39.69 8.982-43.57 31.12-3.337 16.54-3.529 34.66 8.199 47.63 13.51 9.553 32.83 22.85 48.54 11.35 18.44-2.261 22.2-23.54 28.78-38.39-1.071-16.7-8.702-34.06-21.49-45.28-6.577-5.396-14.25-.5368-20.47-6.433zm-98.85-21.6c-8.42 3.335-19.39 15.15-6.895 23.97 20.36 7.72 29.82-17.98 6.895-23.97zm-21.96 28.8c-23.09-1.291-15.16 33.3 5.173 19.31 23.98-5.032 10.71 25.25 14.66 40.07-.9676 11.27.0594 34.79-3.819 32.67 9.432 22.42-40.13 2.651-11.28 2.331 2.844-12.28-5.592-29.13-22.07-20.43-15.93 16.43-10.45 47.06 13.9 51.55 16.68-1.387 36.85-5.589 41.47-22.41 6.781-13.5 1.388-31.28.2049-44.82-5.786-16.85 4.096-43.3-10.27-55.66-10.44 4.822-17.45-1.951-27.97-2.613zm-94.5 75.12c-5.788 5.182 10 6.671 0 0zm-25.56-13.68c11.29-2.277 3.242 5.564 0 0zm-33.66-66.6c-9.115 18.02 17.22 22.24 6.741 40.96 2.795 15.72-5.681 40.84 14.73 47.11 11.12 11.61 31.86-1.532 41.7-10.64-.7556 13.43 22.44 16.47 33.12 8.233 12.49-20.59-25.9-12.09-13.17-32.08-4.993-17.77 4.629-37.44-4.404-53.96-11.15 1.09-40.93-4.195-31.39 15.8 27.68-3.606 15.8 29.74 8.56 40.49-.1791 9.197-16.81 2.445-21.38 8.765-10.83-9.171-8.469-33.37-3.664-44.64 11.09 1.303-6.331-8.019-3.718-15.21-7.686-5.796-18.25-2.372-27.14-4.835zm-51.4 70.1l1.736 1.736-1.736-1.736zm6.84-35.64c-.8303-5.892-10.88 2.524 0 0zm-16.92 5.04c-5.788 5.182 10 6.671 0 0zm10.08 0c-2.926 5.85 6.899 6.078 0 0zm37.44 17.1c-1.481 11.47 4.542 5.039 0 0zm.72 11.34c-.4595 2.815 1.893-.4970 0 0zm-43.2-48.96c18.94-2.755 18.3 22.32 14.69 29.69-1.178 5.33-.4895 24.37-9.983 17.38 7.808-19.32-14.92 15.22-15.26-7.255-3.757-9.007-1.995-10.54-1.292-20.57-8.133-2.227 7.594-17.72 11.85-19.25zm-40.68-50.94c-5.91 3.355-20.82 9.467-11.12 18.45 27.38-1.759 16.26 32.93 14.22 50.55-1.72 15.53 1.139 33.17 1.091 48.75 16.65 2.771 31.35 7.417 47.45 7.408 14.78-3.07 21.07-19.8 28.45-30.17-2.047-14.68 3.987-28.21-6.473-42.19-4.871-21.14-30.85-25.67-48.06-17.16-.5587-19.23-.9762-36.03-25.56-35.64zm-80.85-3.42c-10.68 7.092-18.92 24.91-1.693 31.22 16.88 8.55 29.97-9.15 19.21-23.18-2.112-7.032-11.13-8.103-17.51-8.039zm-34.2 34.02c-18.97 14.11 6.876 29.51 20.83 17.74 20.07 7.071.8039 35.75 7.721 51.69-13.32 6.397-35.4-6.492-35.29 15.73 15.88 15.09 38.19 1.673 56.12 8.333 13.5-1.757 48.51 5.376 34.13-18.43-8.546-10.39-26.52 2.428-36.37-7.555 2.166-18.81 3.867-38.34 1.771-56.53-5.959-19.86-30.98-5.625-45.48-10.07-1.146-.3015-2.292-.6030-3.437-.9045zm-66.8-31.48c-18.79 5.677-44.33-3.642-59.23 9.49.1106 9.985 26.9 1.628 23.66 20.34-2.327 18.96 9.605 27.47-.2524 42.17 4.141 11.3 3.949 50.66-13.95 33.5-14.63 2.208-5.299 27.49 9.824 19.27 19.58-.8493 38.17 1.607 56.9-2.452 22.55-7.8 32.15-33.3 30.15-55.53 2.7-23.21-3.5-53.95-28.49-62.47-5.96-2.31-12.26-3.64-18.61-4.28zm-13.32 19.8c20.51-10.7 36.27 13.62 40.09 28.91-9.08 9.03 11.03 31.19-6.25 32.77 11.99 5.386-6.517 22.65-13.61 14.23 6.519 12.28-.5424 9.726-8.755 6.879-.21 16-22.85-1.8-9.68-5-10.27-11.54 1-29.02-2.77-40.48 1.67-11.83-1.51-20.01.48-34.25.16-1.01.33-2.03.49-3.05zm14.4 79.18c.4380 7.216 7.738-.8681 0 0zm-13.32 2.52c-1.036 8.229 7.578.7727 0 0z"/>
	</g>
</svg>
