<svg xmlns:rdf="http://www.w3.org/1999/02/22-rdf-syntax-ns#" xmlns="http://www.w3.org/2000/svg" height="324.9" viewBox="0 0 887.80273 324.90375" width="887.8" version="1.1" xmlns:cc="http://creativecommons.org/ns#" xmlns:dc="http://purl.org/dc/elements/1.1/">
	<path d="m489.3 321.3c-18.04-4.89-32.75-16.25-32.75-25.29 0-7.281 5.016-7.729 13.27-1.186 12.6 9.98 26.12 13.7 44.23 12.17 51.54-4.347 63.09-35.55 57.43-155.1-1.463-30.93-3.099-40.82-8.798-53.19-4.269-9.263-4.187-11.2.6119-14.34 8.344-5.467 19.79 7.496 24.16 27.37 4.302 19.55 2.672 126.8-2.295 151-9.965 48.52-47.75 71.6-95.86 58.55zm271.9-83.1c-6.963-6.963-1.45-10.39 25.38-15.76 12.26-2.456 24.99-7.647 24.99-10.19 0-4.39-8.012-15.44-27.91-38.5-34.07-39.48-33.96-61.08.4444-83.35 5.06-3.276 7.467-5.706 7.926-7.998.8169-4.085 2.106-4.585 28.29-10.97 11.34-2.768 25.97-6.503 32.5-8.3 24.73-6.803 35-5.336 35 4.998 0 3.153-3.654 9.375-5.506 9.375-21.92 0-82.57 21.53-96.05 34.1-15.1 14.08-13.47 21.2 11.54 50.28 38.31 44.54 42.37 57.77 21.52 70.19-11.19 6.668-53.17 11.1-58.13 6.139zm-727.4-12.6c-2.02-4.4-.13-7.4 12.48-19.6 81-78.3 84.7-111.8 17.13-154.4-19.72-12.5-18.2-15.57-17.81 35.98.3209 42.5.08214 43.67-8.875 43.67-8.236 0-10.19-3.44-10.19-17.94 0-36.37-10.22-80.93-22.23-96.93-12.35-16.46 3.653-22.46 23.65-8.881 7.086 4.813 13.53 8.75 14.33 8.75.7928 0 2.157.8617 3.031 1.915.8741 1.053 11.21 8.269 22.97 16.04 81.29 53.72 79.79 102.6-5.43 178.9-19.02 17-25.69 19.9-29.06 12.5zm373.2-25.6c-11.9-4.805-11.7-19.13.8948-63.87 12.73-45.23 13.04-43.61-6.675-34.46-19.22 8.915-25.56 8.676-22.9-.8627 2.096-7.521 31.47-24.44 43.29-24.93 16.85-.6994 18.56 13.4 6.557 54.11-11.21 38.03-13.93 51.25-10.54 51.25 3.985 0 35.13-23.68 55.16-41.94 25.08-22.86 34.12-28.12 37.49-21.82 2.058 3.845-.8429 8.142-16.54 24.5-43.49 45.31-71.63 64.13-86.73 58.03zm-116.4-15.7c-4.712-3.3-2.527-10.6 3.947-13.2 6.529-2.614 36.76-24.62 45.06-32.79 22.21-21.89 21.53-40.03-1.83-48.96-18.31-6.996-18.6-17.39-.8762-30.96 9.373-7.179 22.93-20.56 21.88-21.6-2.017-2.017-22.73 8.462-35.38 17.9-32.08 23.93-44.56 43.49-56.86 89.06-6.436 23.84-12.16 29.24-21.31 20.1-4.465-4.465-4.51-6.734-.3796-19.47 3.994-12.32 3.564-31.96-1.226-56.07-2.945-14.82-2.945-14.82-.1267-18.1 6.631-7.709 12.25.05084 16.03 22.12 1.224 7.154 1.863 8.849 2.545 6.755 15.71-48.27 117.1-104.1 117-64.45-.0295 8.465-21.28 36.62-27.63 36.62-2.604 0-.7046 2.053 3.975 4.295 20.81 9.971 25.86 39.43 10.68 62.3-15.97 24.07-64.66 54.04-75.48 46.46zm375.3-5.486c-10.67-4.366-10.99-15.46-1.164-39.81 7.425-18.4 7.438-18.34-6.098-25.26-22.13-11.31-24.14-24.16-3.166-20.26 32.2 5.988 40.74 22.02 27.67 51.89-5.617 12.83-5.303 13.12 7.266 6.709 27.61-14.09 61.71-49.64 48.55-50.61-5.936-.4396-22.48 2.87-27.68 5.537-11.72 6.012-22.68-2.95-14.1-11.53 14.9-14.9 56.74-18.93 64.5-6.215 14.94 24.51-67.14 101.3-95.77 89.54zm-485.4-2.718c-4.909-1.816-5.924-6.276-3.61-15.86 4.077-16.89 5.256-44.78 2.613-61.8-.9081-5.847-8.695-6.262-31.76-1.69-15.55 3.082-18.27 2.993-19.42-.6326-4.643-14.63 49.55-26.73 63.2-14.11 3.153 2.916 3.153 2.916 5.99-10.14 7.904-36.37 21.31-70.62 27.65-70.62 11.12 0 14.1 19.21 4.359 28.14-3.774 3.457-5.373 7.337-14.32 34.74-9.705 29.73-11.74 33.98-15.64 32.56-.8870-.3224-1.14 5.738-.7868 18.87 1.1 40.93-6.171 65.02-18.28 60.54zm335.2-83.01c-1.977-7.876 18.37-27 48.63-45.71 14.53-8.982 17.31-9.852 21.7-6.778 6.947 4.866 4.255 12.46-6.097 17.21-9.717 4.452-24.67 14-41.32 26.38-16.04 11.93-21.61 14.09-22.91 8.902z"/>
</svg>
