<svg id="dibujos" xmlns="http://www.w3.org/2000/svg" viewBox="0 0 732.5 170" height="170" width="732" fill="#002475" >
	<path  d="m311.3 136.2c-9.715.7232-20.47-3.963-23.31-13.98-8.651-17.58-1.534-75.31 15.49-61.66 10.98 10.45-.1782 38.48 2.686 53.97 18.59 1.143 32.43-31.09 39.83-42.18 9.06-8.378 18.34 5.119 12.75 13.73-5.584 17.28-18.19 31.02-30.87 43.52 6.881 9.22 47.55 8.023 55.29 4.609 18.14-16.38-.3320-46.08 7.177-64 36.09-22.21 27.1 56.61 12.43 80.67-43.05 23.19-86.95-2.585-91.48-14.68zm-249 19.9c.78-21.1 26.67-33.5 47.19-63.19 8.5-10.56 6.9-28.06-5.3-35.13-35.17-17.02-20.3 16.99-23.84 41.68-2.09 26.74-25.39 40.24-23.31 9.24 5.28-49.61-9.58-57.22 3.12-71.34 52.33-14.62 95.53 22.29 61.03 73.94-11.2 12.4-43.9 48.8-58.89 44.8zm143.4-35.8c-2.513-27.9 22.73-78 50.78-68.44 10.8 4.611 11.34 19.17 5.995 28.15-7.517 11.22 13.02 6.931 14.52 17.02 3.919 55.59-68.11 55.62-71.29 23.27zm45.97-11.93c-5.996-3.031-21.83-1.359-19.14 10.2 6.189 14.64 25.63-2.982 19.14-10.2zm-81.8-32.75c12.82-4.972 23.23 12.94 13.48 22.14-4.495 6.549-16.63 20.45-1.63 21.38 11.2 6.71 1.73 21.92-8.979 22.28-34.1-4.534-21.03-57.29-2.867-65.8zm352.2 51.86c-12.72-20.18 44.84-11.18 36.63-26.62-16.01-8.264-44.1-18.9-34.34-42.53 13.99-33.84 76.36-25.34 49.54 1.535-7.869 5.341-20.64.2154-26.45 8.799 12.88 12.24 42.09 18.07 45.37 34.01-2.926 25.05-56.65 33.85-70.75 24.8zm-68.2-87.1c69.4-21.08 56.04 66.01-1.532 75.5-41.23-4.38-28.67-69.11 1.532-75.5zm10.26 18.8c-24.26-1.37-19.69 35.5-8.201 33.93 22.09-8.809 43.41-34.06 8.201-33.93zm-279.7-24.2c11.69-1.314 19.16 15.96 8.08 22.15-18.3 9.46-24.5-22.62-8.1-22.15zm202.3 13.18c-8.066-7.144 1.511-21.34 11.17-16 8.021 9.156-.6224 26.41-11.17 16z"/>
</svg>
