<svg xmlns:rdf="http://www.w3.org/1999/02/22-rdf-syntax-ns#" xmlns="http://www.w3.org/2000/svg" viewBox="0 0 800 375" version="1.1" xmlns:cc="http://creativecommons.org/ns#" xmlns:dc="http://purl.org/dc/elements/1.1/">
	<path d="m478.9 336.2c-14.35-13.6-14.38-35.53-16.08-54.02 5.184-14.55 2.284-37.34 17.6-44.72 22.44-3.168 6.567 30.71 15.95 32.47 11.33-12.1 3.585-34.53 6.155-51.05-1.075-24.47 3.886-49.6-4.939-73.16-5.79 6.558-14.83 15.71-21.85 2.566-3.774-14.1-5.198-38.24 12.87-42.49 8.28-.5771 19.65 19.29 12.64 1.12-6.767-13.85-12.78-33.83-.8219-46.31 8.216-15.11 25.01 9.959 19.44 22.98 1.261 14.05-15.02 23.77-3.431 31.25 1.926 24.76 6.63 49.34 4.08 74.29-.4160 21.48 4.499 42.7 3.428 64.34 3.754 20.35-2.83 40.23-5.171 60.18-8.334 14.12-15.17 21-27.74 27.96-4.17-9.617-11.52 5.766-12.13-5.425zm19.74-46.67c5.68-18.17-11.99-.8851-1.151 1.981l1.151-1.981zm-328-15.12c-21.69-5.104-17.93-30.89-11.3-46.28 3.356-14.24 30.83 9.664 23.96-13.55-3.568-24.82 7.187-50.1-.3222-74.63-6.984-7.491-18.14 13.91-25.12-2.746-7.05-11.98-4.677-36.15 7.007-41.59 2.899 3.939 11.07-4.001 11.29 5.176 15.77-16.21-12.16-38.81 8.434-52.24.1166-14.72 14.26-21.57 20.92-5.423 5.778 17.05 7.704 38.16-.3995 54.7-5.902 17.17 4.587 34.38.3629 51.83-3.148 19.85 3.497 39.7-.9074 59.52-4.229 11.24 3.469 22.57 13.19 14.08 19.04-2.412 28.15 41.4 8.858 51.39-12.3-2.255-24.33 1.479-32.29-4.278-11.59 13.95-11.83-13.81-20.31 3.958l-1.653.7857-1.708-.6949zm123.2-1.3c-9.878-10.6-30.92-1.986-29-24.64 1.375-18.46 4.376-37.71-1.183-55.76 5.551-19.62 2.54-40 3.941-60.15.1228-15.57 1.796-31.43.0256-46.84-12.15 4.078-20.64-20.11-13.93-33.84-1.533-5.929 14.98-17.47 11.18-12.77 27.63.2741 20.3 35.55 22.89 55.74 2.644 14.43 16.13-11.33 20.69 4.767 14.77 3.518 18.95 28.82 21.94 44.05.8202 20.43 6.154 40.44 6.101 61.03-.5765 10.32 5.065 34.08-4.69 25.37-9.404 17.28-9.468 51.69-36.54 45.34l-.9964-.961-.4-1.3zm5.679-62.5c16.35-7.078 3.318-41.84-7.887-19.59-1.869 4.842-.6564 39.01 7.887 19.59zm11-32.19c-.2833-18.87-10.43-4.33-3.011 5.88 3.095 5.909 3.351-3.82 3.011-5.88zm-9.858-7.5c-1.56-13.6 16.14-26.97-3.698-32.96-1.049 11.68-14.32 26.13-.0216 31.23-.7155 2.023 2.963 4.414 3.719 1.732zm291.9 101.7c.4165-7.934-12.82-.4342-9.686-9.39-11 4.605-13.23-18.69-20.51-26.23-3.137-15.17-9.401-30.41-6.252-46.39 5.34-11.61-4.957-24.38 2.378-36.48 1.696-17.15 3.756-37.24 18.11-48.39 5.247-5.11 14.89-8.675 20.45-12.78 5.182 11.33 24.22 10.22 23.16 27.17 10.31 21.28 8.865 45.34 13.48 67.79-3.596 15.45-4.949 31.07-7.971 46.62-3.136 18.37-15.63 35.8-31.36 41.83l-1.414-1.501-.3823-2.244zm1.3-47.6c10.01-12.76 6.657-31.07 10.89-45.42-10.78-5.717-2.142-25.06.7898-6.834 7.936 15.43 5.903-27.9-7.383-26.01-4.402 2.535-9.317-18.31-15.54-3.805-4.865 17.7-7.026 36.01-4.447 54.24-3.733 14.75 9.378 23.27 15.69 27.83zm-.7625-36.78c-.3856-13.92 11.57 4.809.0010.002l-.0010-.002zm102.6 86c-11.3-1.317-19.52-7.125-27.97.006-16.42-8.983-6.094-33.8-9.497-50.04-4.985-22.12 10.82-42.87 4.15-64.88-.1209-18.17 1.358-38.42 12.16-53.79 6.22 2.739 7.569-14.8 10.18-3.258 4.148-6.887 12.47 2.219 17.53-.9627-.045 22.69 20.69-11.24 24.8 10.7 7.097 15.17-1.441 31.65.083 47.5-3.294 15.19-1.896 29.01 2.873 43.59 3.088 15.54-.3763 31.14-2.138 46.69-7.272 12.7-16.62 29.39-32.16 24.45zm-5.016-42.55c12.52-1.048 13.81-.9772 17.73-15.12 8.945-12.29-21.65 6.875-14.27-10.94-1.02-9.168-25.08 6.131-16.39-3.223 2.233 10.67 8.04 21.37 10.89 30.83l2.037-1.54zm15.12-71.28c.2872-12.63-11.62-17.95-18.54-17.55-11.7 14.91 5.138 22.17 16.83 24.3 2.762 8.358 1.893-5.622 1.717-6.759zm-630.1 109.2c-13.39-11.9-18.34-29.4-18.77-46.8-.46-20.6-2.57-41.2-3.04-61.7 3.117-15.08 7.094-30.13 12.27-44.62 7.649-11.34 17.23-14.09 28.83-20.39 3.363 5.452 6.696 16.18 6.99 1.744-.0329-9.361.1673-17.75-8.614-14.89-6.06-10.37-19.02-14.03-13.92-29.65 10.42-22.59 42.23-10.15 41.03 12.97-.2737 15.94-3.568 30.98-1.364 47.33-3.56 22.8 3.996 44.93 2.762 67.89-1.049 16.74-7.712 43.22 12.5 47.85.9120 15.04 6.769 37.87-10.27 44.61-14.16-1.217-24.56-9.382-37.92.3768-4.39-1.2-7.55-.2-10.49-4.7zm15.77-45.7c11.72-9.364 8.869-30.6 6.833-42.42-10.82-1.266 9.742-47.77-11.1-29.59-10.46-19.17-9.973 13.45-9.903 20.3-3.157 13.41.9895 29.42 1.781 44.33 1.927 6.453 4.553 20.24 12.39 7.379zm281.1 46.2c-3.616-7.825-14.3-8.621-11.92-21.32-8.566-20.99 1.642-41.67-3.297-62.1-4.265-15.8 5.834-34.54-3.416-48.59-5.74-10.99-7.251-36.58 2.456-42.31 24.97-3.741 22.24 25.41 28.8 41.74-9.33 14.65-6.758 32.52-6.272 49.14 1.089 10.65-1.775 32.82 10.69 18.96 14.75 11.91 8.689-22.55 12.44-32.67 3.58-13.62 9.4-35.95-9.004-40.94-12.78-11.31-3.009-37.39 13.94-37.72 22.62-7.38 13.02 28.57 16.45 41.83-.0010 26.53.8645 53.17-1.55 79.57 4.371 9.305 19.12 13.54 14.97 28.34 4.971 18.96-10.4 30.26-25.53 24.05-12.7-21.8-24.4 17.9-38.8 2z"/>
</svg>
