<svg xmlns:rdf="http://www.w3.org/1999/02/22-rdf-syntax-ns#" xmlns="http://www.w3.org/2000/svg" viewBox="0 0 732.5 170" version="1.1" xmlns:cc="http://creativecommons.org/ns#" xmlns:dc="http://purl.org/dc/elements/1.1/">
	<g>
		<path d="m592.7 100.1c7.533.1747 3.903-8.559 0 0zm16.2 5.76c.3374 2.248 2.846-1.413 0 0zm-26.64-46.62c10.77 2.652 27.4-1.37 28.19 14.43 10.34.8044 4.726 16.86 1.118 3.181-6.711 7.766-16.18-4.072-24.75-.5949-10.7-2.032-14.98-11.08-4.559-17.01zm-11.88 27.18 1.58 1.58-1.58-1.58zm0 3.42c11.53 5.245 25.79 2.956 34.87 7.627 18.46-4.916 11.81 18.41-2.807 15.85-14.57 3.388-31.17-6.156-32.06-20.48v-2.996zm6.84-49.32c-12.12 4.826-17.07 15.54-21.96 25.8 2.525 8.244 1.412 18.66 11.12 19.62-4.157 7.121-16.11-.3768-14.8 12.7 3.926 10.03-4.83 29.58 7.025 33.86 9.936 4.752 9.447-12.18 17.17-2.25 14.55 3.334 29.28 2.092 44.1.4502 1.631-9.665 14.78-8.357 13.42-19.99 3.476-6.028-3.51-7.681 1.469-14.3-4.535-4.846-8.412-13.49-14.44-14.46 15.03-.8375 4.591-19.02 13.17-26.89.4454-11.82-13.56-13.74-19.41-8.865-7.959 1.188-13.1 2.196-15.04-5.571-6.651 3.618-10.68-.1409-18.53 1.832-.467-1.751-2.059-1.536-3.306-1.925zm-86.61 35.64c4.175 8.472 9.014-1.67 0 0zm-7.56 9.18c-.1546 2.097 2.59-1.209 0 0zm7.56 6.12c-.8283 12.38 11.95-2.141 0 0zm-25.56 10.26 1.333 1.667-1.333-1.667zm8.28-45.9c8.568-2.538 9.566 10.63 16.65 3.705 5.038 4.813 14.49 9.466 12.35 17.8-.8871 7.11-5.842 8.235.0814 11.81.5406 9.656-7.296 11.03-13.85 12.62 1.855 12.76-22.35 5.49-26.34.812-5.282-13.3-7.351-26.45 1.112-38.02-1.184-4.069 7.166-7.109 9.988-8.719zm10.44-18.72c-10.73 6.643-29.66.1490-34.14 15.57-9.125 5.759-13.1 21.35-10.14 30.26.0536 8.745-4.873 17.85 4.659 24.51 2.667 10.13 13.69 13.51 20.81 20.34 10.91-.3575 22.35 10.37 31.61-1.1 13.07 1.492 17.76-14.11 23.95-20.97 1.32-11.08 8.527-20.05 3.423-29.81-4.423-9.006-5.839-21.39-16.29-27.52-2.569-11.33-17.73-4.797-23.9-11.29zm-122.2 34.92 1.58 1.58-1.58-1.58zm0 8.64c-1.457 6.424 7.212 1.004 0 0zm8.46 16.92c4.443 8.49 9.19-1.746 0 0zm3.42-39.06c6.893-10.22 26.31 4.48 20.52 16.92 5.349 10.88-6.934 20.07-7.869 30.64-7.027 1.375-11.51 11.14-13.55-.6418-14.07-2.191-12.3-17.42-16.02-28.19 3.185-10.41 1.397-22.96 16.92-18.72zm6.84-23.94c-3.752 8.089-10.75-.4694-17.84 4.966-5.609 10.6-11.54-4.246-20.85 1.423-10.93-5.828-25.51 6.494-11.83 14.25 14.21-3.592 11.76 13.57 9.091 20.82 5.562 5.666-5.829 16.72 2.194 23.2-3.238 14.22 7.929 32.09-6.191 42.44-14.63-5.62-10.63 27.43 4.35 17.6 12.31-.1784 29.17 2.981 40.11-3.122.9615-6.739-2.021-9.842-.2629-14.26-5.839-6.462-19.53 3.034-17.11-8.449-9.379.0785-4.466-20.01 5.387-9.048 6.753 6.291 13.52 10.02 19.54 2.572 11.01-4.166 20.26-11.32 25.27-19.84 1.609-12.92 5-25.5 2.278-38.2-1.8-11.54-11.7-19.83-19.9-28.12-6.8-1.29-9.1-.81-14.1-6.27zm-129 85.24c2.246-.2904-.9288 2.658 0 0zm9.72-16.56c-9.858 8.189 7.624 9.938 0 0zm-32.4 5.22c-.5249-5.702-11.19 1.31 0 0zm27.36-12.06c10.65 5.103 19.38 24.45 2.26 27.21-8.629 1.261.3570-18.67-7.66-6.694-7.695-6.8 2.903-14.2 5.4-20.52zm-11.52-7.38c-.9255 3.32 2.332-.04954 0 0zm60.84-33.48 1.333 1.667-1.333-1.667zm-56.16 3.42c15.33-10.51 18.54 12.87 6.84 15.98 3.176-7.977-7.879-5.661-4.607-13.85-1.935.4786-1.757-1.155-2.233-2.135zm5.04-10.08c6.942.01419 3.716-7.931 0 0zm-22.32-3.42 1.62 1.458-1.62-1.458zm57.96-3.42c-9.744 5.402-26-1.415-31.77 10.29-7.408 2.707-5.289-16.77-11.72-5.05-5.08 4.283-6.052-6.906-12.15-1.451-3.603-4.367-11.65 3.033-14.76-1.147-3.679 3.656-21.56 14.7-7.439 15.05 9.095 1.375 20.6-1.081 24.27 8.803 5.338 2.736-4.812 5.364 4.701 4.769 3.167 4.242 12.21 5.178 3.46 8.021 9.537 2.598 3.408 15.41-5.399 14.26 1.568 7.762-9.075 9.379-10.33 17.47-7.378 5.952-22.51-4.537-18.24 6.33-7.404 6.628-4.422 5.358-.0466 6.509 6.62 13.37 25.21-.4659 36.91 5.765 11.19-7.385 25.04 2.527 37.69-.098 5.823-2.238 28.78 2.539 23.81-5.498-6.232-7.443 11.12-6.729-1.328-12.55-7.198-7.321-23 5.152-25.43-10.85-7.709-6.278-23.31-24.36-4.931-27.24 8.564.6010 5.612-3.746 4.899-6.994 6.254-12.38 30.23.5959 26.87-19.26 3.339-9.543-12.88-6.629-19.07-7.129zm-139.3 71.22l1.506 1.506-1.506-1.506zm-10.26-5.04 1.442 1.623-1.442-1.623zm51.12-3.42 1.442 1.623-1.442-1.623zm-12.24-23.94 1.58 1.58-1.58-1.58zm-35.64 1.8 1.62 1.458-1.62-1.458zm7.02 6.66c2.826 7.398 8.223 3.909 0 0zm-8.8 13.58 1.5 1.6-1.5-1.6zm6.84-34.02 1.735 1.419-1.735-1.419zm29.16-59.58c-6.341 7.704-14.54 7.025-20.48 4.587-5.412 6.084-8.55-9.268-9.536 3.426-4.165 5.922-1.358-12.24-9.533-5.584-.3887 7.942-9.328-2.905-10.29 4.843-5.38-11.5-8.254 7.892-13.88-3.217-4.122 11.38-8.086-10.03-11.7 1.666-9.355 17.03 18.39 7.986 19.75 16.1-2.54 9.373 2.158 15.89-2.296 25.88.2157 12.37 3.718 26.66-1.637 35.46 4.098 6.974-.8206 15.91-5.233 20.22-6.298-5.665-18.72 2.424-12.45 8.389-2.307 21.06 25.54 4.801 37.31 10.2 12.3-.9471 24.66-.3444 35.61-.8552 6.508 8.176 29.58-8.973 19.33-20.16-.0797-10.45 8.321-26.97-6.099-31.05-1.551 8.673-12.68 9.332-7.923 19.65-1.086 8.48-3.448 12.44-12.13 10.1 1.361 11.8-5.639-5.782-12.36 3.211-1.111-8.225-7.184 6.775-15.02 1.332-2.89-3.105-8.53-18.17.2578-21.14-4.537-4.623-10.8-5.812-1.292-10.32-8.137-3.252 3.973-15.23 7.035-7.992 16-5.729 4.411 27.08 20.73 19.99 1.364-6.68 12.49 4.286 5.705-4.424-15.75 3.346 11.29-6.969-2.898-9.961-5.239-10.89 6.325-21.76.2054-30.99 2.151-9.582-5.717-11.87-9.04-4.541-9.985.8428-4.968 7.384-7.995 13.31-2.128 5.857-19.13 6.984-11.82-2.944-7.201-3.545-3.179-14.25-6.442-21.39 1.198-10.08 13.33-5.245 21.21-6.881h17.87c-6.028 8.374 11.95 5.834 3.648 14.11 6.54 5.302 1.799 16.2 13.79 15.98 2.296 9.115 3.418-5.045 7.057-5.148-.9818-11.23-5.103-20.87-3.835-31.77-5.755-5.071-12.67-2.155-15.62-10.1zm-20.52 20.34 1.58 1.58-1.58-1.58zm8.64 0 1.333 1.667-1.333-1.667zm-17.28 1.8 1.735 1.419-1.735-1.419zm7.56 7.92c-1.481 2.976 1.938-.02066 0 0zm2.88-1.08 1.442 1.623-1.442-1.623zm-11.88 6.84c-2.575 9.569 8.376 1.162 0 0zm26.28 11.16c-1.501 1.057 1.702 1.97 0 0z"/>
	</g>
</svg>
