<svg xmlns:rdf="http://www.w3.org/1999/02/22-rdf-syntax-ns#" xmlns="http://www.w3.org/2000/svg" viewBox="0 0 800 375" version="1.1" xmlns:cc="http://creativecommons.org/ns#" xmlns:dc="http://purl.org/dc/elements/1.1/">
	<path d="m366 314.1c-20.94 4.296-22.11-21.09-18.45-35.27 3.711-12.82 21.71-10.03 16.53-29.33 6.222-14.38-4.749-29.43-.5130-45.36-4.249-15.04.7478-30.07-1.3-45.12-2.051-14.84 8.389-35.39-13.77-39.66-7.142-14.81-5.891-38.09 16.19-33.94 5.463 2.069 14.91-4.203 19.17 5.464 7.77-7.173 19.89-15.13 28.56-9.339 0.86-14.85 10.97 7.806 19.54 5.663 10.17 11.59 11.36 30.94 22.53 42.66-.1311 17.67 6.199 31.22 3.874 49.72-4.987 16.53-1.555 34.78-9.732 50.27-9.276 10.31-20.86 21.5-31.07 26.05-9.395 20.01-26.64-25.49-28.39.1467 4.208 14.84 33.36 8.025 22.25 27.66 10.1 13.03 2.854 34.33-16.55 30.06-10.03.0688-20.52-.3277-28.88.3377zm50.54-106c4.098-14.31 9.245-28.64 11.84-43.05-3.427-13.07 1.921-31.94-11.15-39.98-10.51-3.863-13.47 4.517-21.69 1.118-6.203 15.79-7.345 34.77-.6771 50.6-3.821 4.957-2.475 29.76 2.969 22.04-1.056-17.77 14.6.1168 10.25 9.986.3032 8.756 6.151 3.388 8.457-.7169zm-307 58.1c-12.66-12.7-30.45-18.5-34.96-38.5-7.9-12.7-11.24-28.3-13.23-43.7-3.704-16.67 7.756-31.7 4.47-47.13 5.477-17.84 9.098-38.06 28.05-45.67 8.652-17.11 34.31-14.95 44.4-.2593 15.65 9.925 20.12 29.13 28.03 44.91 8.232 15.1 4.161 32.43-.3628 47.9 3.381 17.16 8.529 37.7-9.317 48.25-1.347 15.02-13.58 26.39-24.91 23.63-5.045 8.843-15.11 6.344-20.57 15.11l-.9858-1.279-.5978-3.284zm11.54-58.73c9.29-4.059 13.01-23.1-.6096-13.9-5.439 1.363-4.402 24.79.6096 13.9zm-13.23-4.498c8.439-18.94-23.36-12.58-9.956-.1294 5.4.6233 8.893 12.35 9.956.1294zm13.77-65.99c-3.512-80.19-65.74 58.15 0 0zm89.1 123.6c-1.694-6.715-11.82 2.017-9.575-8.118-20.68 2.367 9.911-24.52-2.675-33.44 11.64 4.213 18.79.9731 17.47-12.21 21.21-3.847 27.18-25.15 23.84-43.83-1.406-8.572-12.25-8.553-9.225-17.69-1.398-25.61-42.89-1.329-34.46-30.1 5.649-11.94 23.86-33.71 34.18-18.58 10.86-10.03 25.06-4.034 30.38 3.268 10.81-15.74 30.85.0034 43.57-13.1 21.31-2.16 20.22 23.14 17.21 37.43-5.828 13.56-24.16 7.331-30.56 17.32-3.693 1.296 9.413 21.41-7.941 17.64-19.87 10.88 6.793 27.33 7.027 43.66 3.973 20.75 30.08 1.104 35.23 23.19 4.076 10.65-3.16 17.83-.4008 28.23-12.83 9.401-31.01 5.253-46.1 9.036-.8204-10.51-18.69-3.033-22.91-8.437-10.88 14.45-23.65-2.039-35.9 9.309-3.372 1.387-7.591-.2388-9.151-3.579zm54.1-23.4c10.19-10.58-9.018-31.49-7.515-9.572-1.004 4.607.3814 15.21 7.515 9.572zm-3.751-99.13c5.808-13.04-10.84-12.77-6.311.072 1.466 2.073 4.821 1.814 6.311-.072zm279 121.9c-.6666-8.705-15.31 1.519-12.97-9.449-12.18 5.709-12.74-12.59-23.65-17.07-13.22-20.14-17.65-45.66-11.74-68.08-7.262-12.13 2.484-26.83 2.647-40.04 6.31-14.05 10.88-30.02 26.85-35.31 6.97-.7410 23.36-12.96 26.14-11.25 6.884 12.13 28.27 8.367 31.28 26.3 8.32 13.06 12.94 28.2 15.87 43.31.0826 15.48 7.58 29.31-.8426 44.91-1.545 19.56-7.498 37.85-19.5 53.07-8.917 8.17-19.21 13.4-30.08 18.13l-2.3-1.4-1.7-3.1zm5.3-48.8c5.679-13.6 9.522-30.61 12.03-43-8.126-4.115-9.163-25.25.1997-12.92 4.446 19.9 11.58 1.499 5.326-8.327-3.383-17.35-21.98-8.847-28.47-24.16-10.29 5.522-13.19 23.96-17.03 35.62 2.212 15.63-1.125 34.67 9.769 47.29 9.66-.6963 12.75 10.82 18.16 5.495zm-3.935-35.47c-.3514-15.86 18.72 5.585 0 0zm143.6 85.9c-14.21 1.152-25.52-9.577-35.76 1.232-20.56.3104-14.09-25.84-15.02-39.56 1.399-14.57-3.932-29.8 2.826-44.14 12.7-18.64-7.893-44.8 7.174-63.47-3.181-16.83 17.06-22.35 22.17-31.65 4.986 7.062 11.65-2.27 19.7 4.714 12.43-10.33 10.53 19.03 24.71 5.246 16.9-13.88 30.08 17.2 21.84 31.56-4.698 15.25-.9083 30.63-5.851 45.88 13.79 15.76 9.904 37.47 7.429 56.47.1968 14.12-14.46 17.41-18.08 30.37-11.22-4.643-19.8 12.55-31.13 3.354zm-6.149-42.38c14.46-.7487 21.61-.0862 25.96-15.95 10.98-11.91-30.72 7.171-19.35-8.468-6.53-9.711-16.52-1.223-23.16-7.194-6.23 12.74 14.49 16.79 11.52 31.54.9869 1.743 3.81 1.482 5.028.0665zm21.84-71.92c1.324-16.77-16.42-13.91-24.81-19.05-19.36 10.35 3.442 29.6 18.13 23.36 7.602 7.141 7.27 4.75 6.682-4.306z"/>
</svg>
