<svg xmlns:rdf="http://www.w3.org/1999/02/22-rdf-syntax-ns#" xmlns="http://www.w3.org/2000/svg" viewBox="0 0 732.5 170" version="1.1" xmlns:cc="http://creativecommons.org/ns#" xmlns:dc="http://purl.org/dc/elements/1.1/">
	<path style="fill:#008f17" d="m149.4 127.2c-10.03-4.191-4.231-16.64 1.947-21.62 30.18-14.74-17.01-27.38 2.383-40.46 8.75-4.726 21.99 10.3 29.35 14.2 26.11-4.818 32.44-37.73 44.48-20.02 5.569 5.846-2.423 17.93 2.601 20.7 9.588-16.14 71.11-57.81 78.47-23.01-5.904 18.1-34.31 36.46-50.39 33.08-26.91-2.375-10.3 53.36-38 30.73-.2222-7.977-20.92-18.1-36.89-14.57-8.803 4.59-25.2 26.47-33.95 20.98zm72.97-31.63c-4.213-31.96-35.97 1.903 0 0zm-156.9 3.19c3.673-26.92 39.14-55.86 61.83-56.78 35.13 12.02-12.08 50.39-23.32 60.38 5.459 6.255 22.89 2.113 20.8 15.38-15.61 24.36-57.57 2.505-59.3-18.99zm328.6 26.14c-26.1-17.33 47.19-26.3 20.25-31.02-10.23.09432-21.52-4.812-25.09-15.12-1.638-21.91 30.03-48.02 45.52-44.91 37.07 7.451-25.57 33.13-13.11 37 55.61 20.68 13.26 59.2-27.56 54.05zm-88.84-11.1c-26.82-33.46 48.82-90.38 73.54-60.18 26.52 32.38-61.53 75.16-73.54 60.18zm53.27-42.17c-9.038-9.557-45.56 21.14-32.47 22.43 12.32 1.206 38.65-15.89 32.47-22.43z"/>
</svg>
