<svg xmlns:rdf="http://www.w3.org/1999/02/22-rdf-syntax-ns#" xmlns="http://www.w3.org/2000/svg" height="207.5" viewBox="0 0 728.59363 207.48964" width="728.6" version="1.1" xmlns:cc="http://creativecommons.org/ns#" xmlns:dc="http://purl.org/dc/elements/1.1/">
	<path d="m324.3 205.6c-8.656-6.063-1.256-71.82 11.95-106.2 2.108-5.486 2.201-6.67.7062-8.922-3.285-4.947 2.408-12.88 9.244-12.88.6034 0 4.737-3.706 9.186-8.236 33.8-34.41 98.96-47.46 83.01-16.62-1.961 3.792-1.949 3.923.2624 2.96 30.1-13.1 59.9 2.19 46.78 24.01-6.895 11.46-2.968 10.86 35.48-5.451 20.66-8.767 56.87-28.4 55.29-29.98-.4686-.4686-38.17 8.908-48.98 12.18-28.13 8.52-33.01-3.749-6.191-15.56 48.07-21.18 91.82-24.81 91.82-7.627 0 3.34 0 3.34 10.94 2.496 6.016-.4642 22.47-1.638 36.56-2.609s30.41-2.644 36.25-3.718c17.63-3.24 24.11-1.589 25.74 6.56 1.399 6.996-3.988 10.91-17.67 12.84-24.57 3.469-65.29 14.77-66.52 18.46-.6504 1.951 8.78 7.758 32.82 20.21 56.37 29.2 70.68 49.45 46.01 65.11-18.63 11.82-93.07 16.43-95.82 5.932-1.724-6.593 1.019-7.961 19.5-9.723 7.735-.7374 19.69-1.892 26.56-2.566 51.71-5.068 50-14.05-8.222-43.06-24.48-12.2-35.32-19.12-39.18-25.01-5.881-8.975-4.867-18.03 2.719-24.28 9.103-7.504-20.4-5.662-30.83 1.925-32.43 23.6-108.5 59.26-126.3 59.26-16.82 0-19.07-11.11-6.341-31.27 8.904-14.1 10.26-12.52-11.4-13.32-9.861-.3658-18.77-1.104-19.8-1.641-1.285-.6691-6.4 2.026-16.26 8.569-7.913 5.25-21.23 13.2-29.59 17.67-15.2 8.125-15.2 8.125-16.07 14.38-2.163 15.6-25.96 92.86-29.55 95.94-3.183 2.729-8.331 2.809-12.07.1864zm62.3-135.4c17.27-11.67 17.98-12.21 14.51-10.96-5.42 1.957-22.32 12.84-27.89 17.96-7.461 6.862-6.038 6.117 13.38-7.006zm-375 85.95c-13.39-5.3-15.15-17.8-5.427-38.5 3.192-6.778 4.418-11.02 4.273-14.8-.2544-6.598 1.206-9.389 6.688-12.78 3.144-1.943 6.416-6.457 12.09-16.67 4.277-7.705 9.656-16.97 11.95-20.6 2.299-3.623 4.179-6.804 4.179-7.07 0-.2659-3.535-.3956-7.855-.2882-28.63.73-13.64-23.42 25.88-41.68 18.58-8.582 28.49-1.45 13.23 9.515-6.964 5.003-8.004 7.315-2.812 6.248 55.92-11.48 103.9-12.85 105.1-2.98.5918 5.08-3.476 6.857-17.89 7.816-44.07 2.932-83.33 12.06-90.36 21-6.209 7.902-21.48 30.12-21.02 30.58.3423.3465 44.13-19.35 51.94-23.36 14.7-7.555 21.63-8.265 23.67-2.429 2.711 7.778-1.987 11.16-51.18 36.81-16.8 8.764-32.74 17.4-35.41 19.19-2.674 1.789-6.094 3.94-7.599 4.781-2.449 1.368-10.38 16.43-12.51 23.78-.6747 2.32-.3104 2.841 2.079 2.974 6.588.3668 16.05-.3961 26.6-2.146 14.94-2.476 20.26.9829 17.64 11.45-1.848 7.364-40.83 14.06-53.21 9.133zm186.5-4.5c-6.482-2.593-3.2-12.11 7.893-22.9 22.89-22.25 22.98-22.55 9.561-31.63-28.65-19.38-39.12-45.43-28.06-69.83 8.874-19.58 18.54-11.91 18.07 14.34-.4035 22.57.9360 24.73 26.24 42.16 10.86 7.484 8.095 9.204 29.07-18.07 22.55-29.32 26.87-32.38 35.5-25.11 7.927 6.67.9748 31.41-8.535 30.37-2.809-.3067-4.801 1.416-13.31 11.51-5.505 6.531-10.94 12.65-12.08 13.59-3.775 3.12-2.223 4.602 14.49 13.83 19.87 10.98 22.19 12.89 22.19 18.35 0 10.31-6.104 9.701-33.35-3.344-20.66-9.892-20.66-9.892-38.13 6.629-21.98 20.79-24.13 22.25-29.54 20.09z"/>
</svg>
