<svg xmlns:rdf="http://www.w3.org/1999/02/22-rdf-syntax-ns#" xmlns="http://www.w3.org/2000/svg" height="94.11" viewBox="0 0 261.60845 94.113978" width="261.6" version="1.1" xmlns:cc="http://creativecommons.org/ns#" xmlns:dc="http://purl.org/dc/elements/1.1/">
	<path d="m10.57 64.91c7.249-22.4 26.46-39.56 44.34-53.24 4.3-3.252 11.55-1.714 8.26 4.3-3.63 2.312-7.85 4.34-10.98 7.67-9.7 9.4-19.52 18.89-27.17 30.09-4.536 7.637-9.049 26.21 1.742 23.25 8.925-2.072 16.93-7.22 23.72-13.25 3.447-2.016 6.464-8.144.3531-7.149-4.524-4.844 1.704-10.19 6.782-10.16 8.836-2.207 18.41-2.401 27.1.5024 6.808 3.225 9.623 11.85 8.324 18.88-1.498 4.579-.4353 13.07-6.72 13.82-5.769-2.129-1.029-9.94-1.415-14.43.5332-4.76-.1202-13.47-6.916-11.78-22.24 9.94-33.41 32.22-57.44 30.62-8.813-1.58-12.03-12.48-9.968-19.12zm137.2-5.35c12.68-15.03 20.27-36.1 40.55-39.8 14.9-.0609 3.059 25.4 19.48 9.636 5.496-3.339 12.25-6.271 18.7-4.039 9.268 7.157 3.267 29.02-.6019 35.63-4.609 3.873-10.5-1.952-7.583-6.817 3.49-7.71 9.464-20.69-.284-20.69-10.82.9651-21.76 22.84-30.93 22.42-7.296-3.284 5.985-17.09 1.74-25.41-7.932-6.967-28.17 24.64-30.32 34.7-1.488 4.962-6.758 3.862-10.05 4.003-7.842.2577-6.324-9.296-.6971-9.629zm-28.58 4.216c-3.463-5.709 6.715-6.308 10.25-4.793 4.092 5.394-6.813 6.341-10.25 4.793zm121.6-.1034c-3.031-4.923 3.922-11.85 8.68-8.095 6.509 8.435-3.235 11.56-8.68 8.095z"/>
</svg>
