<svg xmlns="http://www.w3.org/2000/svg" height="8.919mm" width="12.23mm" viewBox="0 0 43.327088 31.603028">
  <path style="color-rendering:auto;text-decoration-color:#000000;color:#000000;isolation:auto;mix-blend-mode:normal;shape-rendering:auto;solid-color:#000000;block-progression:tb;text-decoration-line:none;image-rendering:auto;white-space:normal;text-indent:0;text-transform:none;text-decoration-style:solid" transform="translate(18.09 .825) scale(.025 .03)" d="m907 5.98c-4 .126-7.99.454-11.9.98l-18 5.94c-151 85.4-272 212-375 345-9.57 11.9-18.8 24-28.1 36.1 20.6-49.7 40.3-100 57.3-152l-.197.592c3.61-10.6 23.9-54 32.7-95.5 4.39-20.7 11.8-44.5-8.35-75.6-10.1-15.6-30.7-27.7-48.4-30-17.7-2.24-32.2 1.3-46.7 6.42l-21 15.6c-106 130-202 268-287 414l-1.35 2.46c-38 73-86.2 145-126 226a50 50 0 0 0 -19 22c-5.04 11.4-8.16 22.1-10.2 32-1.99 9.84-3.9 16-1.91 31.2.496 3.8.87 8.36 4.9 16.8 4.03 8.42 17.5 26.7 41.3 28.9 23.8 2.15 36.4-10.2 41.8-16 5.45-5.78 7.31-9.5 9.01-12.7 5.79-10.9 7.75-18.8 10.2-29.4 37-83 92-162 138-251 57-98 119-193 186-283-56 159-140 314-200 483l84.3 50.3c103-115 182-245 272-358l.574-.73c93.4-121 200-232 325-308-2.34 18.3-13.6 48.9-20.3 59l-5.11 10.1c-99 268-250 512-361 776a50.01 50.01 0 1 0 92.1 39c107-253 257-497 360-775 19-30 37-68 37-112 0-22.7-10-50.2-27-73.5-19-20.4-48-29.4-76-28.5zm-1020-32.7c-2.34.113-4.67.375-6.98.771-18.5 3.17-37.2 14.1-57.4 32.2-67.1 60-203 162-297 288l.23-.305c-74.1 97.8-157 194-219 330l1.43-2.9c-21 39.5-32.9 90.4-31.6 143 1.37 52.8 22.8 112 63.5 132 87.7 46.8 173-20.8 236-84l2.29-2.52c24.9-30 59-59 87.2-106 18.8 31.5 30 74 24.2 116l-.422 3.75c-2.82 32.4-10.2 65.1-20.1 97.1a33.2 50.4 0 1 0 60.1 42.8c11.7-37.8 21.5-79.5 25.7-125 12.1-91.6-14.9-175-56.8-228 1.74-28.7-3.45-57.2-13.6-78.3-16-33.1-42.6-53.7-71.8-49.3-39.8-4.77-79.9 1.82-118 20.5l-9.57 88.5c26.5 29.8 55.3 37.5 78.8 43.3 16.8 4.16 31.2 7.71 43.1 13.6-18.9 26-43.2 50.2-68.2 80.1-57.3 57.5-122 102-177 72l-1.08-.556c-14.8-7.16-16.9-16.4-17.5-40.3-.622-23.9 7.05-57.5 16.9-76l1.43-2.9c54.5-119 132-211 208-311l.228-.305c82.6-111 214-212 286-277l.0359-.0327c12.4-11.1 22-16.1 28.1-18-1.15 4.41-2.94 9.93-5.72 16.1a33.2 50.4 0 1 0 54.8 56.7c12.9-24 19.8-48.7 21-75.3 1.3-26.6-4.7-57.1-19.4-76.6-12.9-17.2-29.6-23.6-46.4-22.8zm-201 690-.679 1.56c.0677-.149.121-.306.188-.455.16-.377.332-.723.491-1.1z"/>
</svg>
