<svg xmlns="http://www.w3.org/2000/svg" height="75.3px" width="146px" viewBox="0 0 516.26727 266.68917" style="stroke-linejoin:bevel;stroke:#000;stroke-linecap:round;stroke-width:25;fill:none" >
  <path class="gm" d="m458 249c4.93.701 9.89-.201 14.7-1.23m-167-42c-2.9 6.37-2.05 13.3.472 2.91 8.64-19.2 21.1-36.4 30.9-55 18.3-30.4 38.9-59.4 61.7-86.6 17.4-6 4.12 20.3 1.45 27.9-12.7 37.7-32.6 72.8-46.4 110 21.6-23.4 38.7-50.9 59-75.5 22-27.7 47.5-53.5 78.8-70.6 18.5-2.41 11.7 21.2 5.69 30.1-22 58-55 110-79 165m-179-53.9c5.35-.298 10.6 1.24 15.9 1.23m-31-168c11.7-16 .928-28.9-23.8-15.3-24.8 13.6-72.6 35.9-104 61.8-26.8 21.7-55.5 42.3-76.3 70.2-11 12.7-14 37 5.85 42.9 25.5 8.49 52.4-3.82 73.9-17.1 12.3-9.09 27-16.5 35.8-29.4 8.43-11.4-3.43-24.2-15.9-22.4-13.1-1.11-26.3.170-38.8 3.91 13.8 9.5 31.9 5.93 46.7 13.4 19.3 6.62 35.7 26.3 30.9 47.6-1.22 8.59-4.32 16.8-8.2 24.5"/>
</svg>
