<?xml version="1.0" encoding="UTF-8" standalone="no"?>
<svg
   xmlns:dc="http://purl.org/dc/elements/1.1/"
   xmlns:cc="http://creativecommons.org/ns#"
   xmlns:rdf="http://www.w3.org/1999/02/22-rdf-syntax-ns#"
   xmlns:svg="http://www.w3.org/2000/svg"
   xmlns="http://www.w3.org/2000/svg"
   xmlns:sodipodi="http://sodipodi.sourceforge.net/DTD/sodipodi-0.dtd"
   xmlns:inkscape="http://www.inkscape.org/namespaces/inkscape"
   viewBox="0 0 177.16535 216.1163"
   height="6.0992823cm"
   width="5cm"
   xml:space="preserve"
   version="1.1"
   id="svg4136"
   inkscape:version="0.91 r13725"
   sodipodi:docname="gm-logo2.svg"><sodipodi:namedview
     pagecolor="#ffffff"
     bordercolor="#666666"
     borderopacity="1"
     objecttolerance="10"
     gridtolerance="10"
     guidetolerance="10"
     inkscape:pageopacity="0"
     inkscape:pageshadow="2"
     inkscape:window-width="640"
     inkscape:window-height="480"
     id="namedview4234"
     showgrid="false"
     inkscape:zoom="2.1978907"
     inkscape:cx="88.582677"
     inkscape:cy="108.05815"
     inkscape:current-layer="svg4136" /><metadata
     id="metadata4142"><rdf:RDF><cc:Work
         rdf:about=""><dc:format>image/svg+xml</dc:format><dc:type
           rdf:resource="http://purl.org/dc/dcmitype/StillImage" /><dc:title></dc:title><cc:license
           rdf:resource="http://creativecommons.org/licenses/by/3.0/" /></cc:Work><cc:License
         rdf:about="http://creativecommons.org/licenses/by/3.0/"><cc:permits
           rdf:resource="http://creativecommons.org/ns#Reproduction" /><cc:permits
           rdf:resource="http://creativecommons.org/ns#Distribution" /><cc:requires
           rdf:resource="http://creativecommons.org/ns#Notice" /><cc:requires
           rdf:resource="http://creativecommons.org/ns#Attribution" /><cc:permits
           rdf:resource="http://creativecommons.org/ns#DerivativeWorks" /></cc:License></rdf:RDF></metadata><defs
     id="defs4140" /><rect
     y="132.90181"
     x="-7.6293945e-06"
     height="83.2145"
     width="177.16536"
     id="rect4439"
     style="opacity:1;fill:#000000;fill-opacity:1;fill-rule:nonzero;stroke:none;stroke-width:1;stroke-linecap:square;stroke-linejoin:miter;stroke-miterlimit:4;stroke-dasharray:none;stroke-opacity:1" /><g
     id="text6828"
     style="font-style:normal;font-variant:normal;font-weight:normal;font-stretch:normal;font-size:45px;line-height:125%;font-family:'Special Elite';-inkscape-font-specification:'Special Elite, Normal';text-align:start;letter-spacing:0px;word-spacing:0px;writing-mode:lr-tb;text-anchor:start;fill:#ff7f2a;fill-opacity:1;stroke:#ff7f2a;stroke-width:1;stroke-linecap:butt;stroke-linejoin:miter;stroke-opacity:1;stroke-miterlimit:4;stroke-dasharray:none"
     transform="scale(0.71970991,1.3894487)"><path
       id="path4153"
       style="font-style:normal;font-variant:normal;font-weight:normal;font-stretch:normal;font-size:45px;line-height:125%;font-family:'Special Elite';-inkscape-font-specification:'Special Elite, Normal';text-align:start;writing-mode:lr-tb;text-anchor:start;fill:#ff7f2a;fill-opacity:1;stroke:#ff7f2a;stroke-opacity:1;stroke-width:1;stroke-miterlimit:4;stroke-dasharray:none"
       d="m 233.88918,151.29463 c -3.29059,4.48424 -13.40409,1.74184 -7.20354,-3.81273 -0.0102,-6.98742 -14.80611,-1.23232 -7.66613,3.43077 1.83234,3.39495 -10.30138,3.28569 -9.19916,0.0808 6.1413,-3.02094 5.35373,-11.45037 6.26669,-17.34431 1.85818,-4.07545 0.58942,-13.74905 7.14538,-12.09175 3.95254,4.84362 2.76873,11.93981 4.76577,17.67985 1.42946,4.83726 -0.62947,10.85866 5.89099,12.05738 z m -9.20654,-11.84326 c -0.612,-2.79167 -2.60363,-12.73938 -5.00233,-5.50991 -1.30451,3.52133 0.44324,10.62307 5.00233,5.50991 z m -17.40235,3.5376 c 0.37343,5.69494 -1.39424,11.96941 -8.52295,9.77583 -4.73232,-1.06661 -14.76173,2.49841 -13.87697,-5.39416 1.20359,-3.93659 5.14393,-5.78125 6.28655,-9.63224 1.74104,-4.15066 9.04542,-9.42805 5.35579,-13.47629 -4.33872,-0.24005 -10.80951,0.68338 -8.76257,6.50759 -3.04124,2.64832 -5.05504,-10.86546 1.5286,-9.12439 5.11505,1.13288 10.78437,-2.58052 15.5305,0.62348 1.682,5.67072 -5.0504,9.04041 -6.9454,13.66628 -1.59749,3.59963 -8.05636,8.44981 -5.93775,11.6171 5.68952,1.5523 13.13932,0.34564 11.3854,-7.23081 0.3147,-3.55265 4.8428,1.06885 3.9588,2.66761 z m -25.35644,6.39404 c -0.92023,7.10911 -11.152,2.74623 -9.35185,-3.19961 1.79736,-5.56942 -4.07129,-10.69545 -9.0092,-6.84231 -3.443,4.15783 0.35134,9.92139 3.20406,11.59899 -2.1375,3.48448 -10.82719,2.7913 -11.65341,0.54834 8.50505,-2.70952 2.88938,-12.10131 5.0084,-18.57743 0.92079,-4.30044 -1.34342,-7.07801 -3.38651,-9.84077 3.89503,-2.90561 11.11688,-1.49954 16.22156,-1.35226 5.09753,1.82399 7.58919,9.83435 3.36359,13.72486 -3.24578,3.65703 -0.42343,9.65694 1.65332,13.09316 1.58277,-1.92329 3.81274,-2.96717 3.95004,0.84703 z m -6.56983,-20.21484 c 0.31748,-6.33064 -11.26896,-6.44074 -12.56252,-1.10685 0.10615,8.04227 7.47895,11.41004 12.56252,1.10685 z m -23.81836,1.75781 c -1.8353,4.8599 -4.68091,-1.92065 -3.23329,-4.41021 -3.27635,-3.08332 -10.31842,-0.35935 -14.43919,-0.30511 -2.52612,4.23538 0.0302,13.07029 5.77312,8.25577 1.26449,-1.50945 -0.22785,-6.79588 2.84494,-3.31508 -0.67574,3.11905 1.91891,12.22838 -1.41686,11.94018 -1.91396,-7.52482 -10.72497,-2.45786 -7.56176,3.74222 1.35731,5.43413 9.33952,2.60025 13.2548,1.77534 2.83864,-1.56987 -1.30612,-9.29583 4.04101,-6.59024 2.38075,4.27853 -0.39452,11.67544 -6.22821,10.88969 -5.04332,-1.52539 -14.02113,3.02378 -16.48684,-1.38538 4.7314,-4.5331 1.69466,-10.38946 2.88565,-15.98321 1.03942,-4.46577 -0.9752,-9.96778 -3.50845,-11.85772 5.1292,-3.28202 11.93725,-0.8208 17.72321,-1.96004 5.78213,0.0935 5.92142,4.81079 6.35187,9.20379 z m -26.87255,-7.77832 c -7.30297,2.09698 -4.63806,8.85121 -4.73275,14.44942 0.35011,5.19276 0.0955,12.75285 -5.67725,14.83268 -4.86217,1.75433 -11.61629,-0.38285 -11.69463,-6.3674 -1.24688,-6.16886 0.37399,-12.48457 -0.52726,-18.7181 0.87027,-2.89597 -7.119463,-5.2705 -0.80111,-5.95028 3.40039,-1.07701 11.16822,0.97591 5.19918,4.61995 -2.98568,4.96953 -0.87519,11.22617 -1.04109,16.70888 -0.20467,4.41275 2.7099,8.84337 8.03522,7.97799 1.17702,-1.58379 3.39823,-4.18354 3.57469,-8.00144 -1.00912,-5.39141 1.09387,-11.13285 -0.93271,-16.29904 -4.39995,-0.79969 -4.55128,-6.85478 0.70282,-5.18039 2.66069,-0.005 5.90119,-0.18044 7.89489,1.92773 z M 95.856954,137.9792 c -5.913541,2.93317 0.62286,14.28755 -5.95401,14.01783 -2.713344,-1.7623 -8.253272,2.89615 -12.133486,-0.52575 -5.187511,-3.2561 -5.964055,-10.26473 -6.065697,-15.8658 0.08165,-5.5836 1.707774,-12.34292 7.717502,-14.25446 3.832141,-0.99826 9.256469,1.07976 12.098571,1.36765 0.649979,2.74473 2.763851,12.32283 -1.570829,9.83963 -0.416108,-5.01478 -7.924837,-11.38251 -11.560311,-6.0708 -4.255453,3.78425 -2.357431,10.51721 -2.72425,15.51063 -0.0089,5.33223 6.561942,10.4543 10.900251,5.94186 2.974864,-3.10783 3.788588,-7.12665 -0.13699,-9.81556 1.043196,-2.85564 8.07325,-3.39219 9.429249,-0.14523 z M 69.02834,123.14766 c -7.302988,2.09699 -4.638034,8.85121 -4.732708,14.44942 0.350095,5.19275 0.09553,12.75286 -5.677225,14.83268 -4.86217,1.75433 -11.616289,-0.38285 -11.694633,-6.3674 -1.025915,-5.2742 -0.05135,-10.66356 -0.322715,-16.01354 3.428573,-4.20976 -7.841048,-7.51363 -1.005649,-8.65484 3.400387,-1.07701 11.168225,0.97592 5.199166,4.61995 -2.985704,4.96952 -0.875299,11.22617 -1.041245,16.70889 -0.204641,4.41272 3.563406,8.54864 7.324015,8.12533 1.888208,-0.92063 5.674108,-4.25721 4.28584,-8.14879 -1.009116,-5.39141 1.093863,-11.13284 -0.932678,-16.29904 -4.40004,-0.79966 -5.262416,-6.19168 0.702904,-5.18039 2.66072,-0.005 5.901144,-0.18038 7.894928,1.92773 z m -35.223373,25.22178 c -0.568707,-4.84905 0.865835,-12.56193 -1.733051,-15.80979 -3.149973,4.46918 -2.217809,9.65485 -3.347508,15.55114 -1.129699,5.89629 -5.651841,2.26358 -6.173686,-1.95659 -0.521845,-4.22017 -0.09231,-12.38024 -3.876579,-12.61033 1.326344,5.40345 -2.748307,12.54222 2.110661,16.74324 0.04812,5.67625 -13.2083931,2.58683 -6.261326,-1.78452 2.578551,-4.03101 -0.270392,-10.08682 1.160672,-15.06831 0.603269,-3.63718 -0.704699,-8.36164 -2.738597,-9.99427 4.459655,-5.03043 10.013541,0.76676 9.430398,6.0761 1.467656,4.73896 0.348469,10.34148 3.312542,14.5104 3.351006,-3.17936 1.586299,-9.74463 3.026088,-14.26303 -2.273845,-6.27411 8.744476,-11.02585 9.862952,-4.78816 -5.3624,1.76642 -1.625579,8.4182 -2.2561,13.01421 0.02094,4.58875 -1.791782,8.87453 3.317606,12.8053 -0.997401,4.59491 -10.340939,2.61078 -5.834072,-2.42539 z" /></g><rect
     style="opacity:1;fill:#ff7f2a;fill-opacity:1;fill-rule:nonzero;stroke:none;stroke-width:1;stroke-linecap:square;stroke-linejoin:miter;stroke-miterlimit:4;stroke-dasharray:none;stroke-opacity:1"
     id="rect6832"
     width="177.16536"
     height="159.44882"
     x="-7.6293945e-06"
     y="0" /><path
     id="path6834"
     d="m 103.84296,149.24702 c -1.43702,-2.19468 -1.37818,-14.08659 0.0858,-17.34146 0.5913,-1.31464 1.27014,-5.99088 2.71453,-18.69984 3.0451,-26.793143 5.51606,-42.629505 9.15858,-58.697638 6.3401,-27.968028 12.84102,-31.679197 12.03485,-6.870318 -0.3228,9.93362 -3.36919,48.704172 -4.74313,60.364256 -0.54368,4.61406 1.37928,0.4893 3.33184,-7.14683 9.61634,-37.60772 16.76389,-57.838468 22.62671,-64.043619 6.96357,-7.370208 8.12369,-0.214941 6.49298,40.046549 -0.54868,13.545893 -0.76991,24.916 -0.7682,39.47819 0.003,14.96129 -0.10425,20.23027 -0.39485,19.62392 -0.66486,-1.38737 -0.48772,-39.507968 0.29706,-63.924478 1.08591,-33.786003 0.30351,-39.150028 -5.03141,-34.494319 -7.69625,6.716425 -22.35111,54.191978 -26.46688,85.741587 -0.9356,7.17192 -1.73928,9.67471 -3.1067,9.67471 -1.21329,0 -1.23243,-4.25334 -0.0473,-10.51714 3.05491,-16.14622 7.46555,-76.014474 6.2835,-85.289885 -1.57546,-12.362404 -8.32783,6.101734 -13.26167,36.263578 -4.07901,24.935981 -5.13327,38.081627 -5.84142,72.837737 -0.0589,2.89415 -2.18888,4.79025 -3.36434,2.995 z m -39.32755,-2.14417 c 0,-0.87084 0.421909,-5.16811 0.937572,-9.54944 2.508499,-21.3138 -0.876326,-30.59168 -11.975353,-32.82453 -2.252211,-0.45308 -2.252211,-0.45308 -5.199626,5.52763 C 33.703752,139.82948 10.053007,154.5002 5.6977051,136.66933 -0.3779729,111.79514 44.165057,4.1870651 58.252278,9.7068581 c 4.893065,1.9172589 4.351365,13.1955389 -0.739831,15.4030769 -5.261528,2.28139 -6.136011,-2.161478 -0.975779,-4.95743 1.485681,-0.804978 0.356358,-2.722724 -1.354162,-2.299596 -17.687131,4.375224 -55.61506839,97.688961 -48.3581609,118.975031 5.5960359,16.41435 29.7932009,-2.98426 43.8488349,-35.1532 2.106107,-4.820219 4.803055,-5.192888 9.727937,-1.34443 8.794643,6.87247 11.070179,23.77573 6.030825,44.79824 -0.884753,3.69084 -1.916532,4.75372 -1.916532,1.9743 z m 100.5859,-11.8658 c -3.57373,-1.87974 -4.12385,-2.33379 -4.12385,-3.40399 0,-5.36995 10.74239,-4.22163 11.04428,1.18057 0.20996,3.75709 -2.40655,4.59774 -6.92043,2.22342 z m -83.211802,-7.51549 c -5.358612,-1.64371 -4.248318,-7.14426 1.432861,-7.09849 3.244878,0.0263 5.398199,1.81732 5.398199,4.49025 0,2.98021 -2.502994,3.93585 -6.83106,2.60824 z"
     style="fill:#000000;stroke:#000000;stroke-width:1.99999976;stroke-miterlimit:4;stroke-dasharray:none;stroke-opacity:1;fill-opacity:1" /></svg>