<svg xmlns="http://www.w3.org/2000/svg" height="216.12" viewBox="0 0 177.16535 216.1163" width="177.17"><path d="m0 132.9h177.17v83.21h-177.17z"/><path d="m233.89 151.29c-3.291 4.484-13.404 1.742-7.204-3.813-.01-6.987-14.806-1.232-7.666 3.431 1.832 3.395-10.301 3.286-9.199.081 6.141-3.02 5.354-11.45 6.267-17.344 1.858-4.075.589-13.749 7.145-12.09 3.953 4.844 2.769 11.94 4.766 17.68 1.429 4.837-.629 10.859 5.891 12.06m-9.207-11.843c-.612-2.792-2.604-12.739-5-5.51-1.305 3.521.443 10.623 5 5.51m-17.402 3.538c.373 5.695-1.394 11.969-8.523 9.776-4.732-1.067-14.762 2.498-13.877-5.394 1.204-3.937 5.144-5.781 6.287-9.632 1.741-4.151 9.05-9.428 5.356-13.476-4.339-.24-10.81.683-8.763 6.508-3.041 2.648-5.055-10.865 1.529-9.124 5.115 1.133 10.784-2.581 15.53.623 1.682 5.671-5.05 9.04-6.945 13.666-1.597 3.6-8.06 8.45-5.938 11.617 5.69 1.552 13.14.346 11.385-7.231.315-3.553 4.843 1.069 3.959 2.668m-25.356 6.394c-.92 7.109-11.152 2.746-9.352-3.2 1.797-5.569-4.071-10.695-9.01-6.842-3.443 4.158.351 9.921 3.204 11.599-2.137 3.484-10.827 2.791-11.653.548 8.505-2.71 2.889-12.1 5.01-18.577.921-4.3-1.343-7.078-3.387-9.841 3.895-2.906 11.12-1.5 16.222-1.352 5.098 1.824 7.589 9.834 3.364 13.725-3.246 3.657-.423 9.657 1.653 13.09 1.583-1.923 3.813-2.967 3.95.847m-6.57-20.21c.317-6.331-11.269-6.441-12.563-1.107.106 8.04 7.479 11.41 12.563 1.107m-23.818 1.758c-1.835 4.86-4.681-1.921-3.233-4.41-3.276-3.083-10.318-.359-14.439-.305-2.526 4.235.03 13.07 5.773 8.256 1.264-1.509-.228-6.796 2.845-3.315-.676 3.119 1.919 12.228-1.417 11.94-1.914-7.525-10.725-2.458-7.562 3.742 1.357 5.434 9.34 2.6 13.255 1.775 2.839-1.57-1.306-9.296 4.04-6.59 2.381 4.279-.395 11.675-6.228 10.89-5.04-1.525-14.02 3.02-16.487-1.385 4.731-4.533 1.695-10.389 2.886-15.983 1.039-4.466-.975-9.968-3.508-11.858 5.129-3.282 11.937-.821 17.723-1.96 5.782.094 5.921 4.811 6.352 9.204m-26.873-7.778c-7.303 2.097-4.638 8.851-4.733 14.449.35 5.193.096 12.753-5.677 14.833-4.862 1.754-11.616-.383-11.695-6.367-1.247-6.169.374-12.485-.527-18.718.87-2.896-7.119-5.27-.801-5.95 3.4-1.077 11.168.976 5.199 4.62-2.986 4.97-.875 11.226-1.041 16.709-.205 4.413 2.71 8.843 8.04 7.978 1.177-1.584 3.398-4.184 3.575-8-1.01-5.391 1.094-11.133-.933-16.299-4.4-.8-4.551-6.855.703-5.18 2.661-.005 5.901-.18 7.895 1.928m-28.806 14.832c-5.914 2.933.623 14.288-5.954 14.02-2.713-1.762-8.253 2.896-12.133-.526-5.188-3.256-5.964-10.265-6.07-15.866.082-5.584 1.708-12.343 7.718-14.254 3.832-.998 9.256 1.08 12.1 1.368.65 2.745 2.764 12.323-1.571 9.84-.416-5.01-7.925-11.383-11.56-6.071-4.255 3.784-2.357 10.517-2.724 15.511-.009 5.332 6.562 10.454 10.9 5.942 2.975-3.108 3.789-7.127-.137-9.816 1.043-2.856 8.07-3.392 9.429-.145m-26.829-14.832c-7.303 2.097-4.638 8.851-4.733 14.449.35 5.193.096 12.753-5.677 14.833-4.862 1.754-11.616-.383-11.695-6.367-1.026-5.274-.051-10.664-.323-16.01 3.429-4.21-7.841-7.514-1.01-8.655 3.4-1.077 11.168.976 5.199 4.62-2.986 4.97-.875 11.226-1.041 16.709-.205 4.413 3.563 8.549 7.324 8.125 1.888-.921 5.674-4.257 4.286-8.149-1.01-5.391 1.094-11.133-.933-16.299-4.4-.8-5.262-6.192.703-5.18 2.661-.005 5.901-.18 7.895 1.928m-35.22 25.22c-.569-4.849.866-12.562-1.733-15.81-3.15 4.469-2.218 9.655-3.348 15.551-1.13 5.896-5.652 2.264-6.174-1.957-.522-4.22-.092-12.38-3.877-12.61 1.326 5.403-2.748 12.542 2.111 16.743.048 5.676-13.208 2.587-6.261-1.785 2.579-4.03-.27-10.09 1.161-15.07.603-3.637-.705-8.362-2.739-9.994 4.46-5.03 10.01.767 9.43 6.076 1.468 4.739.348 10.341 3.313 14.51 3.351-3.179 1.586-9.745 3.03-14.263-2.274-6.274 8.744-11.03 9.863-4.788-5.362 1.766-1.626 8.418-2.256 13.01.021 4.589-1.792 8.875 3.318 12.805-.997 4.595-10.341 2.611-5.834-2.425" transform="scale(.71971 1.38945)"/><path fill="#ff7f2a" d="M 0,0 H177.17 V159.45 H0 z"/><path d="m103.84 149.25c-1.437-2.195-1.378-14.09.086-17.341.591-1.315 1.27-5.991 2.715-18.7 3.045-26.793 5.516-42.63 9.159-58.698 6.34-27.968 12.841-31.679 12.03-6.87-.323 9.934-3.369 48.704-4.743 60.36-.544 4.614 1.379.489 3.332-7.147 9.616-37.608 16.764-57.838 22.627-64.04 6.964-7.37 8.124-.215 6.493 40.05-.549 13.546-.77 24.916-.768 39.478.003 14.961-.104 20.23-.395 19.624-.665-1.387-.488-39.508.297-63.924 1.086-33.786.304-39.15-5.03-34.494-7.696 6.716-22.351 54.19-26.467 85.74-.936 7.172-1.739 9.675-3.107 9.675-1.213 0-1.232-4.253-.047-10.517 3.055-16.15 7.466-76.01 6.284-85.29-1.575-12.362-8.328 6.102-13.262 36.26-4.079 24.936-5.133 38.08-5.841 72.838-.059 2.894-2.189 4.79-3.364 2.995zm-39.33-2.144c0-.871.422-5.168.938-9.549 2.508-21.314-.876-30.592-11.975-32.825-2.252-.453-2.252-.453-5.2 5.528-14.574 29.573-38.22 44.24-42.58 26.413-6.076-24.874 38.467-132.48 52.55-126.96 4.893 1.917 4.351 13.196-.74 15.403-5.262 2.281-6.136-2.161-.976-4.957 1.486-.805.356-2.723-1.354-2.3-17.687 4.375-55.615 97.69-48.36 118.98 5.596 16.414 29.793-2.984 43.849-35.15 2.106-4.82 4.803-5.193 9.728-1.344 8.795 6.872 11.07 23.776 6.03 44.798-.885 3.691-1.917 4.754-1.917 1.974zm100.59-11.866c-3.574-1.88-4.124-2.334-4.124-3.404 0-5.37 10.742-4.222 11.04 1.181.21 3.757-2.407 4.598-6.92 2.223zm-83.21-7.515c-5.359-1.644-4.248-7.144 1.433-7.098 3.245.026 5.398 1.817 5.398 4.49 0 2.98-2.503 3.936-6.831 2.608z" stroke-width="2" stroke="#000"/></svg>