<svg xmlns="http://www.w3.org/2000/svg" viewBox="0 0 177.16535 216.1163" height="230.524" width="5cm">
	<path d="M0 132.902h177.165v83.215H0z"/>
	<g style=fill="#ff7f2a" stroke-width="6.727">
		<path d="M28.426 210.186q-.094.64-.332 1.038-.22.366-.522.58-.3.213-.648.305-.332.06-.632.06-.46 0-.902-.092-.443-.122-.885-.274-.238-.06-.6-.092-.35-.03-.697-.153-.348-.123-.6-.428-.238-.336-.238-1.007 0-.764.158-1.1.158-.366.395-.488.237-.153.522-.183.285-.03.522-.183.237-.183.395-.55.158-.396.158-1.25 0-.55-.063-1.1-.047-.55-.11-1.068-.064-.55-.127-1.07-.048-.548-.048-1.098 0-.366.11-.763.128-.427.128-.946 0-.946-.08-1.77-.078-.825-.252-1.71-.11-.58-.11-1.068 0-.458.094-.886.11-.427.11-.916 0-.64-.11-1.22-.11-.612-.11-1.253 0-.854.094-1.678.095-.824.095-1.68 0-.58-.062-1.28-.064-.703-.174-1.406-.095-.732-.206-1.404-.11-.702-.206-1.252-.316.275-.52.733-.19.427-.318.977-.11.55-.19 1.16-.063.61-.11 1.19-.11 1.19-.348 2.32-.22 1.13-.316 2.32-.127 1.467-.158 2.902-.016 1.435-.08 2.87-.047 1.404-.173 2.808-.128 1.405-.46 2.81-.127.518-.158.976-.032.458-.032.946 0 .428.016.855.016.428.016.886 0 .946-.11 1.434-.096.458-.222.764l-.253.61q-.127.276-.19.856-.048.49-.27.763-.205.244-.49.427-.284.152-.568.275-.286.09-.476.274-.174-.702-.427-1.312-.237-.61-.443-1.283-.22-.7-.284-1.495-.048-.793-.19-1.587-.063-.367-.158-.64l-.158-.55-.127-.61q-.047-.307-.047-.734 0-.336.016-.61.015-.306.015-.642 0-.733-.125-1.557-.253-1.557-.443-3.053t-.27-3.145q-.078-1.495-.125-3.022-.048-1.526-.332-2.96-.143-.704-.333-1.345-.19-.64-.316-1.343-.03-.153-.063-.488-.016-.337-.063-.704-.032-.366-.095-.64-.048-.306-.11-.337-.08.122-.112.366-.11.55-.174.763-.064.213-.127.365-.047.122-.127.275-.08.153-.22.55-.127.335-.127.732 0 .703.157 1.374.158.64.158 1.344 0 .335-.063.702-.064.336-.064.67 0 .887.127 1.772.142.855.142 1.74 0 .702-.11 1.374-.11.64-.11 1.343 0 .734.078 1.467.095.702.095 1.435 0 .61-.064 1.19-.063.55-.142 1.13l-.126 1.16q-.064.58-.064 1.19 0 1.253.253 1.772.253.52.6.793.365.275.745.55.38.244.648.946-.142.458-.22 1.008-.065.52-.207.978-.127.397-.27.55-.125.152-.268.213-.126.032-.284.093-.158.03-.33.213-.175.183-.254.367-.064.152-.127.274-.064.153-.19.214-.11.093-.364.093-.27 0-.538-.122-.27-.122-.538-.122-.284 0-.553.153-.27.184-.554.184-.332 0-.664-.244-.333-.214-.602-.61-.253-.428-.427-.978-.157-.58-.157-1.282 0-1.038.22-1.587.223-.55.555-.855.348-.336.743-.55.396-.244.744-.61.08-.52.095-1.038.015-.55.015-1.1 0-.885-.047-1.77-.032-.885-.032-1.77 0-.58.063-1.13.062-.58.062-1.19 0-.306-.047-.58-.22-1.13-.285-2.17-.047-1.037-.047-2.258 0-.52.063-1.007l.158-.977q.095-.49.158-.977.08-.488.08-1.007 0-.946-.064-1.862-.063-.915-.063-1.862 0-.61.063-1.19.064-.58.064-1.19t-.127-1.16q-.126-.58-.126-1.192 0-.427.11-.763.126-.336.126-.763 0-.244-.127-.49-.127-.243-.127-.792 0-.458.016-.916.03-.458.03-.916 0-.916-.158-1.435-.158-.55-.395-.823-.222-.306-.49-.428-.27-.123-.507-.245-.22-.153-.38-.336-.157-.184-.157-.61 0-.398.22-.795.238-.428.586-.825.347-.396.758-.763.41-.397.76-.702.347-.305.584-.52.254-.213.285-.304.063.214.174.306.112.06.238.092h.27q.14 0 .236.06.158.092.238.245.08.153.142.305.08.153.205.305.126.153.38.275.6.306.9.886.317.55.317 1.83 0 .337-.032.673-.032.305-.032.64l.396 2.17q.046.335.094.7.063.337.095.673.172.274.267.824.095.55.127 1.19.047.61.063 1.222.016.61.048 1.038.047.702.158 1.374.126.64.126 1.343 0 .428-.08.856-.063.427-.063.885 0 .795.11 1.558t.254 1.527q.143.732.254 1.496.126.764.142 1.558 0 .366.032 1.13.047.763.11 1.71.08.915.174 1.922.11.977.253 1.802.158.824.348 1.343.206.52.443.52.285 0 .364-.306.08-.337.095-.765.015-.427.047-.854t.22-.61q.16-.183.27-.702.127-.55.206-1.19.08-.673.11-1.283.048-.64.064-.977.047-1.588.047-3.267 0-1.678.03-3.357.032-1.71.143-3.328.11-1.648.364-3.175.047-.244.126-.458l.16-.427q.078-.245.125-.458.063-.244.063-.52 0-.182-.046-.305-.048-.152-.11-.244l-.096-.183q-.047-.092-.047-.214 0-.15.048-.212l.095-.184q.222-.488.27-1.343.062-.884.078-1.86l.033-1.955q.03-.977.205-1.65.19.154.364.154.22 0 .427-.154.205-.183.394-.366.206-.183.412-.336.22-.183.458-.183.08 0 .174.03h.174q.316 0 .57-.273.252-.275.52-.275.112 0 .16.092.047.09.063.183l.063.183q.03.09.095.09.27 0 .537-.12.285-.123.554-.123.174 0 .285.092.11.06.22.365.126.366.348.49.22.09.443.212.222.092.38.306.174.183.174.702 0 1.068-.27 1.465-.268.397-.63.55l-.697.244q-.332.092-.475.58-.158.52-.19 1.13-.03.61-.157 1.19-.048.245-.08.458-.03.214-.03.458 0 .49.062.947.063.458.142.916.094.427.173.885.08.458.11.916.096 1.648.096 3.297 0 .978-.064 1.955-.048.977-.11 1.954l-.127 1.953q-.05.946-.05 1.893 0 .732-.236 1.19l-.016.702q0 .886.063 1.77.065.887.144 1.772.08.855.142 1.74.063.885.063 1.77 0 1.192-.175 2.352-.174 1.16-.174 2.35 0 .886.19 1.405.19.52.697.52.22 0 .443-.032.237-.06.458-.06.222 0 .46.09.236.092.41.428 0 .122.016.367.03.244.03.488.017.214 0 .366-.014.153-.078.06zm-14.612-30.103q0-.58-.095-1.16-.08-.61-.364-.916 0 .275-.016.58v.55q0 .488.063.977.08.458.396.488.014-.122.014-.244v-.275zm12.335 28.3q0-.182-.127-.304-.127-.123-.206-.123-.047 0-.142.03-.08.03-.174.092-.078.06-.14.152-.065.09-.065.213 0 .184.143.245.158.03.237.03.08 0 .27-.06.204-.062.204-.276zm-6.943-4.273h-.127q-.047-.03-.11-.03-.27 0-.475.213-.19.183-.19.794v.336q.064 0 .11.03h.128q.27 0 .474-.183.206-.213.206-.824l-.016-.336zM49.68 171.107q0 .367-.142.64-.142.246-.348.43-.19.182-.395.335-.206.152-.348.275-.127.122-.222.274l-.173.337q-.08.153-.19.275-.095.122-.253.214-.207.09-.365.09t-.3.062q-.143.03-.253.214-.11.183-.222.64-.095.398-.142.947-.032.518-.11 1.007-.08.488-.238.824-.142.337-.46.337 0 .336.112.702l.253.67q.142.337.253.703.11.336.11.672 0 .366-.078.702-.08.336-.08.702l-.015 1.86q-.016.612.11 1.223.143.58.143 1.22 0 .367-.08.734-.078.335-.078.732 0 1.28.126 2.564.143 1.25.143 2.595 0 .884-.08 1.922-.08 1.008-.38 1.71.016.427.095.733.08.274.158.61.08.305.142.702.08.367.08.977 0 .55-.064 1.466-.046.885-.19 1.74-.14.824-.394 1.465-.237.61-.617.61h-.064q-.016-.03-.047-.03l-.017.184v.09q0 .428.126.763.142.336.142.764 0 .213-.143.55-.127.335-.317.7-.19.368-.395.704-.19.336-.317.58-.14.275-.22.55-.063.244-.142.458-.064.183-.19.336-.11.122-.348.214-.41.152-.728.458-.316.305-.616.64-.3.306-.65.52-.347.244-.837.244-.27 0-.523-.122t-.506-.275q-.252-.183-.52-.305-.254-.122-.507-.122-.205 0-.41.06-.19.03-.396.03-.158 0-.253-.03-.08-.03-.19-.244-.08-.183-.253-.335-.157-.153-.347-.275-.19-.153-.38-.244-.19-.123-.316-.184-.284-.152-.553-.61-.253-.458-.475-1.038-.206-.61-.38-1.252-.158-.64-.253-1.16-.19-1.038-.27-2.107-.078-1.1-.125-2.167-.048-1.1-.11-2.168-.05-1.1-.19-2.168-.064-.427-.143-.854-.064-.458-.064-.916 0-.336.03-.64l.064-.673q.127-1.28.19-2.594.08-1.313.08-2.626 0-1.74-.096-3.45-.08-1.71-.08-3.45v-.64q0-.306.017-.642.033-.61.128-1.19.11-.58.11-1.19 0-.215-.03-.398-.033-.183-.065-.397-.19-.794-.22-1.435-.033-.67-.064-1.526-.064-1.313-.286-1.863-.205-.55-.538-.794-.316-.245-.71-.397-.38-.184-.808-.795-.126-.153-.22-.366-.08-.246-.08-.52 0-.49.27-.886.283-.397.663-.64.38-.245.76-.367.38-.153.585-.153.253 0 .474.122.237.122.49.122.506 0 .98-.213.475-.245.98-.245.206 0 .633.153.427.153.854.458.427.276.743.703.332.397.332.916 0 .67-.22 1.28-.206.58-.523 1.13-.317.55-.697 1.13-.363.58-.68 1.252-.316.672-.537 1.527-.206.823-.206 1.86 0 .612.016 1.253.032.61.032 1.22 0 1.222-.127 2.413-.11 1.19-.11 2.442 0 1.008.143 1.832.158.794.158 1.252 0 .488-.062.916-.048.397-.048.855v.396q.016.183.016.396 0 .49-.08.794-.062.305-.14.55-.08.244-.16.458-.08.213-.08.488.08-.122.16-.214.08-.09.173-.09.11 0 .173.152.064.152.095.366.048.183.064.427.015.214.015.367 0 .793.11 1.557.128.764.128 1.558 0 .702-.064 1.435-.062.702-.062 1.434 0 .703.048 1.313.063.58.426.947.064.06.143.366.08.305.158.672.095.336.19.702.095.336.19.488.19.336.41.55l.443.427q.238.184.443.428.22.213.395.61.142.336.363.61.222.245.427.55.222.275.38.61.158.337.158.825 0-.397.063-.64.016.09.016.274 0 .243-.063.365.046-.09.11-.305l.126-.427q.063-.214.126-.367.064-.152.143-.152.11 0 .205.152.095.153.095.397 0 .305-.063.58-.063.275-.08.58.16 0 .317-.122.173-.15.316-.365.142-.214.22-.49.096-.304.096-.64 0-.397-.127-.488-.11-.122-.284-.122-.126 0-.252.03-.11.03-.238.03h-.047q.08-.457.237-.762.158-.306.364-.49.205-.213.427-.335.222-.152.428-.305.332-.244.537-.64.206-.43.38-.887l.348-.915q.174-.488.427-.885.016-.214.016-.397v-.366q0-.64-.032-1.252-.016-.64-.016-1.282 0-.702.095-1.404.11-.703.11-1.405 0-.61-.078-1.16-.08-.58-.08-1.192 0-.55.08-1.068.08-.55.08-1.1 0-.885-.08-1.71-.08-.854-.08-1.71 0-1.16.096-2.258.11-1.1.11-2.228 0-1.466-.14-2.87-.128-1.405-.128-2.87v-.55q.016-.366.048-.702.047-.366.126-.61.08-.275.238-.275-.143-.03-.364-.367-.206-.366-.41-.793-.19-.458-.35-.886-.14-.457-.14-.7l-.16.06h-.142q-.22 0-.427-.153-.19-.152-.378-.305-.19-.183-.396-.336-.205-.152-.443-.152h-.08q-.062-.764-.204-1.466-.128-.702-.128-1.496 0-.61.158-.977.174-.366.427-.55.253-.213.538-.274.3-.06.538-.06.442 0 .87.09.426.093.87.093.33 0 .616-.275.284-.305.6-.305.174 0 .364.153.19.122.38.305l.41.367q.206.153.396.214.3.093.632.093.348 0 .68.06.332.062.633.245.3.152.553.58.127.214.222.488.11.275.11.61zM68.99 191.715q0 .183-.032.55-.032.335-.095.67-.064.337-.158.612-.095.244-.222.244-.063 0-.11-.03-.048-.03-.11-.03-.112 0-.207.214-.08.183-.19.458-.094.244-.237.458-.127.183-.333.183-.08 0-.237-.06.063.61.095 1.22.03.61.03 1.22 0 .978-.062 1.924-.063.916-.142 1.863-.078.946-.14 1.893-.065.946-.065 1.892 0 1.13.08 2.23.094 1.098.094 2.228 0 .488-.048 1.038-.048.52-.174.978-.11.458-.316.763-.206.306-.507.306-.442 0-.695-.52-.238-.548-.41-1.16-.16-.64-.302-1.16-.126-.548-.348-.548-.11 0-.285.244-.158.214-.363.52-.206.304-.46.58-.236.274-.49.365-.3.122-.41.336-.11.214-.222.427-.11.184-.332.336-.205.153-.727.153-.347 0-.695-.062-.332-.06-.68-.06-.253 0-.506.06-.238.06-.49.06-.397 0-.65-.12-.253-.154-.458-.368-.19-.213-.41-.427-.207-.244-.54-.427-.252-.153-.41-.245-.158-.12-.285-.243-.126-.153-.253-.336-.126-.212-.332-.548-.127-.183-.285-.367-.158-.183-.3-.366-.142-.215-.253-.46-.095-.243-.11-.61-.017-.274-.048-.396-.032-.123-.095-.184-.047-.06-.126-.09-.063-.062-.174-.184-.19-.55-.284-1.13-.095-.58-.19-1.13-.095-.58-.237-1.1-.144-.548-.428-1.006.047-.305.047-.672 0-.64-.127-1.22-.127-.612-.285-1.192-.142-.61-.27-1.22-.125-.642-.125-1.344 0-.428.03-.855.05-.427.05-.855 0-.58-.08-1.13-.064-.55-.143-1.068l-.158-1.1q-.063-.55-.063-1.13v-.365q.015-.215.03-.398.095-1.1.143-2.23.047-1.128.095-2.227.047-1.13.11-2.23.064-1.13.19-2.228.127-1.068.222-2.106.11-1.037.11-2.106.127-.336.332-.702.222-.366.427-.733.22-.397.38-.794.173-.428.22-.825.048-.396.253-.976.222-.58.49-1.16.285-.58.57-1.007.3-.428.506-.49.094-.03.205-.03.126 0 .22-.06.112-.06.19-.184.08-.122.08-.396 0-.214-.048-.458.854-.154 1.692-.52.838-.367 1.692-.367.19 0 .6.03.412.03.823.215.427.152.743.488.316.305.316.855v.154q.048-.03.095-.03h.11q.253 0 .49.182.237.183.49.183t.522-.03q.285-.062.554-.184.284-.153.506-.397.237-.246.395-.612.348 0 .57.672.22.64.347 1.526.127.886.174 1.802.064.885.064 1.373 0 .734-.064 1.467-.047.732-.19 1.435.032.397.127.702l.22.61q.128.275.223.61.095.306.095.703-.11.55-.143 1.588-.015 1.007-.095 2.045-.063 1.008-.268 1.77-.19.734-.65.734-.315 0-.536-.397-.22-.428-.33-.947l.03.03q.206 0 .206-.365 0-.092-.11-.245-.096-.152-.222-.305-.127-.183-.253-.336-.126-.184-.19-.337-.126-.305-.236-.793-.11-.49-.19-1.038-.08-.58-.127-1.13-.047-.58-.047-1.068v-.275q0-.123.016-.245l-.016.03q-.048-.03-.206-.397-.142-.366-.332-.794-.174-.458-.348-.854-.158-.428-.22-.58-.317-.61-.68-1.1-.365-.488-.68-1.1-.128.154-.27.276-.126.092-.27.092-.125 0-.204-.092l-.158-.244q-.08-.153-.174-.275-.095-.122-.253-.122-.348 0-.68.153-.317.152-.665.152-.363 0-.727-.274-.348-.275-.728-.275-.03 0-.094.03-.047.032-.078.062.015.275.08.52.062.244.062.518 0 .428-.19.825-.174.397-.427.763-.237.366-.49.733-.237.336-.364.642-.174.427-.284.916-.096.488-.19.977-.096.458-.254.885-.143.427-.41.702.125.64.125 1.22 0 .43-.03.826-.032.366-.032.793 0 .978.08 1.955.078.947.078 1.924 0 .792-.08 1.586-.062.764-.157 1.557-.096.764-.175 1.557-.063.764-.063 1.557 0 .703.08 1.344.093.642.204 1.252.11.61.19 1.16.095.55.095 1.04 0 .334-.03.67-.032.336-.032.672 0 1.313.3 2.23.3.884.68 1.678.395.793.76 1.618.363.794.49 1.923.237-.09.458-.09.285 0 .57.12.284.123.553.306.268.152.552.274.285.122.57.122.6 0 1.217-.458.632-.49 1.154-1.282.537-.794.933-1.832.395-1.038.537-2.168.127-1.1.364-2.076.095-.366.19-.458.095-.09.174-.122.08-.03.126-.06.048-.032.048-.215t-.11-.335q-.096-.153-.096-.397 0-.092.063-.214.064-.154.143-.337.095-.183.158-.427.063-.275.063-.58 0-.642-.19-1.038-.19-.397-.474-.672-.285-.305-.617-.52-.316-.243-.6-.58-.285-.335-.475-.823-.19-.52-.19-1.344 0-.672.175-1.1.19-.458.46-.733.283-.274.6-.396.316-.152.6-.244.19-.06.412-.213.22-.184.442-.336.22-.183.41-.306.206-.15.364-.15.222 0 .443.182.222.153.443.214.3.09.743.244.46.153.87.458.41.305.696.824.3.49.3 1.313zM89.72 171.107q0 .367-.14.64-.143.246-.35.43-.19.182-.394.335-.206.152-.348.275-.127.122-.222.274l-.174.337q-.08.153-.19.275-.094.122-.252.214-.206.09-.364.09t-.3.062q-.143.03-.254.214-.11.183-.22.64-.096.398-.143.947-.033.518-.112 1.007-.08.488-.237.824-.142.337-.458.337 0 .336.11.702l.254.67q.142.337.253.703.11.336.11.672 0 .366-.08.702-.078.336-.078.702l-.016 1.86q-.016.612.11 1.223.143.58.143 1.22 0 .367-.08.734-.08.335-.08.732 0 1.28.127 2.564.142 1.25.142 2.595 0 .884-.08 1.922-.08 1.008-.38 1.71.017.427.096.733.08.274.158.61.08.305.142.702.08.367.08.977 0 .55-.064 1.466-.047.885-.19 1.74-.142.824-.395 1.465-.237.61-.617.61h-.063q-.016-.03-.048-.03l-.016.184v.09q0 .428.126.763.142.336.142.764 0 .213-.142.55-.126.335-.316.7-.19.368-.396.704-.19.336-.316.58-.142.275-.22.55-.064.244-.144.458-.063.183-.19.336-.11.122-.347.214-.41.152-.727.458-.316.305-.616.64-.3.306-.65.52-.347.244-.837.244-.27 0-.522-.122-.253-.122-.506-.275-.253-.183-.522-.305-.253-.122-.506-.122-.205 0-.41.06-.19.03-.396.03-.158 0-.253-.03-.08-.03-.19-.244-.08-.183-.253-.335-.158-.153-.348-.275-.19-.153-.38-.244-.19-.123-.316-.184-.284-.152-.553-.61-.253-.458-.475-1.038-.205-.61-.38-1.252-.157-.64-.252-1.16-.19-1.038-.27-2.107-.078-1.1-.126-2.167-.047-1.1-.11-2.168-.048-1.1-.19-2.168-.063-.427-.142-.854-.064-.458-.064-.916 0-.336.032-.64l.063-.673q.128-1.28.19-2.594.08-1.313.08-2.626 0-1.74-.095-3.45-.08-1.71-.08-3.45v-.64q0-.306.017-.642.032-.61.126-1.19.11-.58.11-1.19 0-.215-.03-.398-.032-.183-.064-.397-.19-.794-.22-1.435-.033-.67-.064-1.526-.064-1.313-.285-1.863-.206-.55-.538-.794-.316-.245-.71-.397-.38-.184-.808-.795-.127-.153-.222-.366-.08-.246-.08-.52 0-.49.27-.886.284-.397.664-.64.38-.245.76-.367.378-.153.584-.153.253 0 .474.122.238.122.49.122.507 0 .98-.213.475-.245.98-.245.207 0 .634.153.427.153.854.458.427.276.743.703.333.397.333.916 0 .67-.22 1.28-.207.58-.523 1.13-.316.55-.696 1.13-.363.58-.68 1.252-.316.672-.537 1.527-.206.823-.206 1.86 0 .612.017 1.253.032.61.032 1.22 0 1.222-.128 2.413-.11 1.19-.11 2.442 0 1.008.142 1.832.158.794.158 1.252 0 .488-.063.916-.05.397-.05.855v.396q.017.183.017.396 0 .49-.08.794-.062.305-.14.55-.08.244-.16.458-.08.213-.08.488.08-.122.16-.214.08-.09.173-.09.11 0 .174.152.064.152.095.366.047.183.063.427.015.214.015.367 0 .793.11 1.557.128.764.128 1.558 0 .702-.064 1.435-.063.702-.063 1.434 0 .703.046 1.313.064.58.427.947.064.06.143.366.08.305.158.672.095.336.19.702.095.336.19.488.19.336.41.55l.443.427q.238.184.443.428.222.213.396.61.142.336.363.61.22.245.426.55.222.275.38.61.158.337.158.825 0-.397.063-.64.016.09.016.274 0 .243-.063.365.047-.09.11-.305l.127-.427q.063-.214.126-.367.064-.152.143-.152.11 0 .205.152.096.153.096.397 0 .305-.063.58-.063.275-.08.58.16 0 .317-.122.174-.15.316-.365.143-.214.222-.49.095-.304.095-.64 0-.397-.127-.488-.11-.122-.284-.122-.127 0-.253.03-.112.03-.24.03h-.046q.08-.457.237-.762.16-.306.365-.49.205-.213.427-.335.22-.152.427-.305.33-.244.536-.64.206-.43.38-.887l.348-.915q.174-.488.427-.885.017-.214.017-.397v-.366q0-.64-.032-1.252-.016-.64-.016-1.282 0-.702.094-1.404.11-.703.11-1.405 0-.61-.078-1.16-.08-.58-.08-1.192 0-.55.08-1.068.08-.55.08-1.1 0-.885-.08-1.71-.08-.854-.08-1.71 0-1.16.096-2.258.11-1.1.11-2.228 0-1.466-.142-2.87-.127-1.405-.127-2.87v-.55q.016-.366.048-.702.048-.366.127-.61.08-.275.238-.275-.143-.03-.364-.367-.205-.366-.41-.793-.19-.458-.348-.886-.142-.457-.142-.7l-.16.06h-.14q-.222 0-.428-.153l-.38-.305q-.19-.183-.395-.336-.205-.152-.443-.152h-.08q-.062-.764-.204-1.466-.127-.702-.127-1.496 0-.61.158-.977.175-.366.428-.55.253-.213.538-.274.3-.06.538-.06.442 0 .87.09.426.093.87.093.33 0 .616-.275.285-.305.6-.305.175 0 .365.153.19.122.38.305l.41.367q.206.153.396.214.3.093.633.093.348 0 .68.06.332.062.633.245.3.152.553.58.126.214.22.488.11.275.11.61zM109.062 181.915q0 .122-.08.488-.078.367-.19.794-.094.428-.205.794-.11.367-.174.49l.032.03q-.032 0-.063.03h-.08q-.063.03-.142.03h-.142l.063-.03q-.362-.03-.663-.244-.285-.244-.474-.885-.032-.12-.095-.426-.064-.336-.127-.703-.062-.365-.11-.67-.03-.336-.03-.49 0-.243.015-.518.03-.275.03-.52 0-.945-.094-1.86-.093-.917-.093-1.863 0-.612.08-1.192.078-.58.283-1.07h-.08q-.19 0-.3-.212-.11-.245-.363-.245-.6 0-1.17.276-.57.275-1.202.275h-.506q-.254-.03-.523-.03-.49 0-.965.214-.474.214-.917.214-.047 0-.047-.03 0-.062.11-.153.11-.123.11-.184 0-.12-.11-.12h-.126q-.127 0-.22.244-.08.244-.254.335-.238.12-.507.12h-.52q-.16 0-.46-.03-.3-.03-.6-.12-.3-.123-.553-.337-.238-.244-.27-.672-.173.093-.236.337-.047.214-.094.458-.032.244-.11.458-.08.183-.317.214-.444.06-.57.55-.127.488-.127 1.098 0 .336.016.672.015.336.015.672 0 1.22-.032 2.44-.016 1.192-.016 2.413v1.404q.016.855.063 1.71.064.824.174 1.496.11.64.317.733.127.06.27.09h.284q.554 0 1.075-.243.537-.244 1.09-.244.222 0 .412.12.205.123.41.123.3 0 .46-.55.174-.58.237-1.312.078-.763.094-1.526.015-.763.015-1.13 0-.763-.032-1.495-.016-.765-.016-1.528h.095q.395 0 .743.244.348.245.728.245.158 0 .237-.03 0 .61.11 1.22.11.612.11 1.253 0 .794-.442 1.007.127.428.206.855.078.428.078.886 0 .336-.03.672-.033.306-.033.64 0 .307.095.49.11.153.11.366 0 .367-.158.916-.142.55-.142 1.13 0 .67.063 1.404.063.733.143 1.527.08.793.142 1.618.063.793.063 1.618 0 .49-.03 1.008-.016.52-.11 1.008-.08.458-.238.855-.143.397-.38.672-.3-.06-.506-.336-.206-.305-.348-.702-.126-.427-.206-.916-.063-.52-.094-1.038-.064-.793-.064-1.465t-.158-1.13q-.142-.488-.57-.763-.41-.275-1.296-.275-.253 0-.727.092-.46.09-.917.335-.46.213-.807.64-.333.428-.333 1.07 0 .366.032.732.046.336.046.702 0 .305-.016.61t-.016.64q0 .825.048 1.65.047.793.047 1.618 0 .885-.127 1.74-.11.855-.11 1.74 0 .977.236 1.557.252.55.632.855.38.275.822.366.443.092.822.092.76 0 1.518-.183.76-.184 1.52-.184.473 0 .947.093.476.092.95.092.364 0 .807-.03.443-.062.838-.306.41-.246.696-.703.3-.49.38-1.374.016-.245.08-.336.078-.122.157-.183.095-.092.16-.183.062-.09.062-.305 0-.244-.096-.55-.095-.335-.127-.61-.063-.58-.08-1.16v-1.19q0-.917.144-1.588.16-.702.16-1.527 0-.244-.017-.458v-.458q0-.183.142-.366.143-.183.332-.305.19-.153.38-.245.19-.09.285-.09.395 0 .648.548.253.52.38 1.283.142.762.19 1.586.047.825.047 1.405 0 .947-.08 2.138-.078 1.19-.22 2.442-.127 1.252-.3 2.442-.175 1.16-.35 2.046-.094.427-.19.64-.078.215-.19.367-.093.123-.22.275-.11.122-.253.428-.127.274-.49.366-.348.092-.744.092-.3 0-.57-.03-.268-.032-.41-.032-.522 0-.854.245-.316.243-.6.243-.206 0-.27-.153-.063-.183-.19-.183-.11 0-.205.183-.094.183-.284.183h-.395q-.19-.03-.394-.03-1.186 0-2.357.122-1.17.153-2.357.214-.806.06-1.597.365-.79.305-1.597.305-.286 0-.65-.122-.363-.09-.696-.366-.316-.275-.537-.733-.222-.49-.222-1.19 0-.673.253-1.284.253-.61.6-1.13.365-.518.745-.946.38-.458.616-.855-.016-.244-.016-.458v-.427-.916q.015-.458.094-.916.032-.275.16-.64.14-.398.14-.673 0-.213-.047-.396-.03-.185-.062-.398-.174-.825-.253-1.466-.063-.64-.063-1.557v-.947l.03-.794q.033-.398.08-.795.064-.427.16-.946-.065-.215-.144-.642-.08-.428-.08-.672l.223-4.335q-.015-.09-.015-.305 0-.274.047-.55.048-.274.048-.58 0-.7-.127-1.373-.126-.702-.126-1.404 0-.245.063-.58.063-.336.126-.733.08-.397.143-.855.062-.488.062-1.038 0-.427-.11-.733-.096-.306-.096-.703 0-.366.095-.733.096-.366.096-.793 0-.61-.126-1.16-.11-.58-.237-1.1-.19-.762-.3-1.22-.096-.488-.238-.763-.142-.305-.396-.427-.238-.153-.696-.214-.222-.03-.427-.244-.19-.245-.348-.61-.144-.367-.238-.795-.095-.427-.095-.824 0-.55.253-.916.253-.397.648-.61.395-.245.886-.367.49-.153.95-.214.473-.09.852-.122.396-.03.6-.09.318-.093.618-.123t.617-.03q.618 0 1.234.092.633.06 1.25.06.664 0 1.296-.244.65-.244 1.313-.244.6 0 1.186.275.584.243 1.153.243.554 0 1.092-.244.537-.276 1.09-.276.238 0 .475.092.348.732.633 1.22.3.49.506 1.008.22.49.347 1.16.142.672.19 1.77.015.398.015.978 0 .55.016 1.1.016.518.08.946.078.427.236.52 0 .426-.22.426.015.428.094.886.08.427.158.885.08.427.142.885.064.428.064.825zm-13.695 7.51q-.095 0-.174.06-.08.062-.11.276.6.673.948 1.283.365.58.555.947.205.366.3.427.095.03.19-.397.126-.55-.048-1.038-.158-.488-.458-.824-.286-.336-.634-.52-.332-.213-.57-.213zM130.932 207.56q0 .275-.015.733-.016.458-.16.61-.157.153-.204.52-.032.366-.032.732t-.015.672q-.015.274-.126.274-.08 0-.128-.06-.047-.09-.126-.09-.08 0-.158.152-.08.152-.08.305t.048.244q.063.062.063.215 0 .122-.238.305-.237.153-.538.305-.3.184-.585.275-.285.122-.38.122-.57 0-1.14-.397-.568-.396-1.106-.732-.648-.428-.964-1.405-.3-.977-.443-2.198-.143-1.22-.222-2.503-.063-1.283-.253-2.29-.08-.458-.08-.763 0-.306.033-.49.047-.212.095-.335.063-.153.095-.245.047-.122.047-.244 0-.365-.11-.732-.11-.366-.11-.977v-.64q.015-.336.015-.67 0-1.13-.11-1.864-.096-.733-.286-1.343-.173-.61-.426-1.22-.237-.612-.537-1.467-.143.06-.3.06h-.3q-.318 0-.634-.06-.3-.06-.617-.06-.332 0-.68.12-.332.124-.68.124-.22 0-.442-.123-.222-.152-.443-.152-.268 0-.537.213-.27.184-.49.55-.22.336-.364.824-.127.458-.127 1.008v.977q0 2.656-.238 5.22-.03.397-.063.794-.03.367-.03.795 0 1.252.252 2.015.268.763.648 1.252.38.458.838.763.46.305.838.64.38.306.633.764.27.457.27 1.25 0 .306-.064.58-.047.245-.126.49-.206.64-.395.976-.174.306-.396.49-.206.182-.46.274-.252.09-.6.244-.27.122-.57.153-.284.06-.57.06-.442 0-.87-.213-.426-.183-.868-.183-.333 0-.68.123-.333.09-.665.214-.332.152-.664.244-.332.123-.664.123-.222 0-.49-.092-.254-.09-.476-.335-.22-.213-.38-.58-.142-.366-.142-.885 0-.427.11-.763.112-.336.286-.58.19-.244.395-.397.206-.153.396-.183.172-.03.283-.03.127 0 .206-.062.094-.06.188-.183.095-.122.222-.366.08-.153.142-.245.08-.09.19-.09.08 0 .158.03.08.03.158.03.127 0 .253-.152.333-.366.476-.946.142-.58.19-1.252.047-.702.047-1.435.016-.733.095-1.343.08-.672.08-1.252 0-1.068-.143-2.106-.127-1.038-.127-2.107 0-1.282.095-2.564.095-1.283.095-2.565 0-.336-.016-.64v-.642q0-2.198.142-4.335.143-2.137.143-4.335 0-.61-.016-1.19-.015-.58-.047-1.19-.03-.49-.063-1.192-.032-.732-.095-1.496-.063-.763-.174-1.526-.094-.762-.283-1.342-.174-.61-.443-.977-.253-.396-.617-.396-.08 0-.174.03-.08.03-.158.03-.174 0-.285-.182-.11-.214-.174-.49-.063-.304-.095-.64-.014-.336-.014-.58 0-1.038.268-1.527.285-.488.68-.67.412-.184.87-.154.475 0 .838-.06.412-.06.807-.275.41-.213.837-.213.617 0 1.218.305.6.305 1.217.305.506 0 .98-.153.475-.184.95-.49.237-.152.427-.152.615 0 1.216.306.6.305 1.202.366.41.06.854.305.443.214.822.64.396.398.68 1.04.285.64.364 1.495.048.52.222 1.008.174.458.363.855.206.366.348.702.16.305.16.52 0 .213-.11.335-.096.09-.096.336 0 .152.095.335.11.185.236.43.126.243.22.548.112.275.112.61 0 .46-.158.825-.143.336-.143.794l.032.092.22-.124.032.06q.063.49.048 1.04v.946q0 .58-.016 1.282-.016.702-.08 1.374-.063.672-.19 1.252-.126.58-.363.916-.14.213-.3.335-.142.093-.284.246-.142.122-.253.336-.11.213-.174.58-.08.52-.27.977-.19.457-.395.914-.19.428-.348.886-.142.458-.142 1.007 0 .886.205 1.65.222.762.396 1.556.173.824.253 1.68.078.823.11 1.678.047.856.063 1.71.03.856.094 1.71.032.367.143 1.222.126.824.3 1.68.174.854.396 1.495.22.64.458.64.206 0 .332-.426.127-.427.237-.976.127-.55.27-1.07.157-.518.41-.7.49.09.807.365.332.274.506.763.174.457.237 1.16.08.67.08 1.587zm-4.728-28.087q0-.428-.095-.977-.096-.58-.238-1.16t-.316-1.1q-.158-.52-.317-.854-.333 0-.443-.092-.11-.092-.143-.214-.03-.152-.08-.336-.03-.183-.22-.366-.554-.52-.996-.794-.443-.274-1.06-.274-.174 0-.348.183-.158.182-.285.182-.363 0-.71-.153-.35-.184-.713-.184-.522 0-1.075.244-.364.183-.728.336-.364.153-.65.458-.284.305-.473.824-.174.52-.174 1.435 0 .947.095 1.863.11.916.11 1.862 0 .458-.08.885-.062.428-.14.855-.08.397-.16.824-.063.428-.063.886 0 .55.048 1.13.063.55.205 1.007.143.427.364.702.237.275.585.275.332 0 .633-.244.3-.275.632-.275.174 0 .332.183.16.153.317.336.16.183.333.366.174.153.38.153.158 0 .3-.06.142-.092.27-.214.6-.52 1.264-.916.68-.427 1.344-.427.175 0 .412-.367.237-.396.49-.976.253-.61.506-1.313.253-.733.443-1.435.207-.733.317-1.313.127-.612.127-.947zM149.182 198.676q0 .52-.11.977-.096.458-.096.977 0 .58.095 1.13.096.518.096 1.098 0 .49-.095.886-.094.366-.22.702-.11.305-.206.61-.095.275-.095.58 0 .184.015.306.032.092.063.214.032.09.048.305.03.184.03.55v.977q0 .367-.015.764 0 .398-.014.733-.016.336-.032.397-.127.367-.142.733-.016.366-.064.702-.03.305-.158.52-.11.182-.427.182-.363 0-.727-.09-.348-.123-.712-.123-.6 0-1.202.305-.585.274-1.202.274-.853 0-1.707-.153-.854-.182-1.708-.182-.19 0-.364-.122-.173-.153-.363-.153-.237 0-.537.336-.3.335-.728.335-.27 0-.522-.153l-.506-.305q-.253-.183-.506-.336-.253-.152-.537-.152-.616 0-1.217.245-.6.213-1.218.213-.41-.244-.553-.793-.143-.58-.143-1.283 0-.702.047-1.465.063-.763.047-1.405-.016-.58-.063-.793-.046-.214-.094-.306-.047-.09-.095-.15-.046-.062-.046-.337-.19-.61-.222-1.313.174 0 .238-.152.063-.184.063-.49 0-.487.174-1.16.174-.7.458-1.434.3-.763.665-1.496.38-.763.76-1.343.378-.58.726-.947.364-.366.648-.366h.095q.03-.244.03-.397 0-.305-.11-.397-.095-.122-.22-.152-.112-.06-.223-.123-.094-.06-.094-.305 0-.366.142-.794.142-.458.348-.885.205-.428.427-.764.22-.367.38-.55v-.244q0-.672.173-1.404.174-.733.427-1.405.253-.702.554-1.313.3-.64.553-1.1.158-.304.27-.762.11-.488.205-.977.094-.487.205-.884.127-.428.316-.61l.348-.337q.096-.123.128-.214.047-.123.063-.336.033-.244.128-.733.095-.458.174-.458.095-.03.142-.03.063-.032.095-.215.046-.183.046-.947 0-.458.032-.732.03-.306.095-.52.063-.244.158-.457.112-.246.254-.58.142-.307.3-.734t.285-.885q.126-.457.205-.946.094-.488.094-.916 0-.824-.27-1.1-.252-.274-.6-.335-.348-.09-.696-.183-.348-.122-.522-.64-.19 0-.364.213-.158.213-.316.458l-.316.428q-.143.183-.317.183-.174 0-.396-.243-.205-.244-.522-.244-.284 0-.57.06-.268.03-.553.03-.27 0-.522-.12-.253-.123-.522-.123-.317 0-.506.366-.19.367-.3.886-.096.52-.127 1.13-.032.61-.032 1.068 0 .702.033 1.435.03.733.03 1.465 0 .367-.015 1.07-.015.67-.094 1.373-.064.67-.222 1.19-.158.52-.427.52-.11 0-.205-.062-.095-.09-.174-.182-.41-.458-.506-1.038-.095-.58-.095-1.282v-.427q.016-.244.016-.488 0-.122-.03-.702-.033-.61-.064-1.282-.032-.703-.08-1.252-.03-.55-.03-.61-.033.06-.08.12-.032.062-.08.062-.046 0-.078-.152-.032-.153-.048-.367-.015-.214-.03-.397v-.275q0-.702.046-1.344.048-.67.048-1.373 0-.518.095-.854.11-.336.252-.61l.284-.55q.158-.306.27-.703.094-.09.19-.09.19 0 .363.152.173.122.362.122.08 0 .174-.153.11-.183.27-.397.157-.214.363-.366.22-.182.52-.182.602 0 1.17.335.586.336 1.187.336.474 0 .822-.428.395-.458.758-.61.38-.153.838-.153.412 0 .823.09.426.06.853.06.632 0 1.25-.15.616-.185 1.248-.185.24 0 .492.03.253.032.49.154.158.09.205.212.048.092.064.245.032.122.048.274.032.124.127.276.142.214.332.275.19.062.363.306.19.244.317.855.126.612.126 1.924 0 .397-.19.947-.173.55-.268.917-.127.52-.206 1.068-.064.52-.207 1.038-.08.275-.205.58-.11.306-.237.61-.11.306-.205.642-.08.336-.08.672v.09q.017.032.017.093-.348 0-.57.458-.205.427-.363 1.038-.143.58-.27 1.16-.11.58-.253.824-.237.397-.474.764-.238.366-.554.52-.096.58-.27 1.128-.158.52-.332 1.07-.174.518-.332 1.067-.142.518-.19 1.098-.03.367-.11.458-.08.092-.16.153-.062.03-.125.213-.047.152-.047.67 0 .246-.08.337-.078.06-.188.092-.11.03-.238.06-.11.03-.174.184.016.153.016.275.015.123.015.275 0 .458-.11.855-.095.397-.27.733-.158.305-.38.55-.204.244-.41.366l.016.365q0 .458-.142.825-.142.335-.316.702-.158.336-.3.732-.143.397-.143.977 0 .246-.08.46-.08.183-.19.366t-.237.336q-.11.152-.19.274-.22.336-.3.61-.08.276-.126.52-.048.244-.095.55-.032.274-.143.67-.096.306-.254.673-.158.365-.3.762t-.253.794q-.11.397-.11.732 0 .336.094.58.11.245.253.428.142.153.316.244.174.092.317.092.284 0 .57-.122.284-.153.584-.153.9 0 1.77.244.887.215 1.788.215.332 0 .854-.122.52-.153 1.01-.458.507-.336.87-.885.365-.58.365-1.405 0-.153-.016-.275v-.305q0-.52.03-1.16.048-.672.08-1.22.047-.55.08-.887.046-.335.046-.213 0-.214-.095-.336-.078-.154-.078-.398 0-.336.08-.733.094-.428.094-.733 0-.214-.016-.428v-.55q0-.336.063-.49.064-.182.143-.274.095-.09.158-.183.063-.09.063-.275 0-.244-.095-.458-.08-.213-.08-.488 0-.366.19-.458.19-.092.333-.092.332 0 .46.214.14.183.188.458.064.275.095.61.048.337.19.61.095.215.222.307l.284.123q.142.03.285.09.14.062.236.276-.063.335-.063.762 0 .64.126 1.252.142.61.142 1.252zm-14.47-21.005q0-.273-.127-.396-.126-.122-.253-.152-.03.152-.03.305v.275q0 .152.015.397.03.212.126.212.11 0 .19-.213.08-.215.08-.43zm12.477 28.608q0-.183-.08-.306-.063-.152-.158-.152-.158 0-.206.336-.03.335-.03.58.125 0 .3-.06.173-.093.173-.398zM168.332 210.216q0 .336-.095.672-.094.305-.237.58-.142.244-.316.427-.174.153-.332.153-.11 0-.22-.03-.112-.03-.223-.03-.143 0-.19.182-.048.153-.096.336-.03.183-.11.336-.08.183-.285.183-.127 0-.27-.06-.142-.062-.284-.062-.3 0-.585.213-.268.245-.585.245-.268 0-.806-.183-.54-.152-1.092-.52-.538-.334-.95-.823-.41-.52-.41-1.19 0-.52.3-1.04.316-.548.696-1.19.38-.67.68-1.495.316-.826.316-1.925 0-.64-.142-1.25-.127-.612-.332-1.13-.206-.55-.475-1.008-.252-.458-.49-.855-.078-.06-.236-.06-.427 0-.854.182-.427.152-.854.152-.22 0-.46-.122-.22-.122-.3-.61-.41.397-.82.763-.412.336-.84.61-.268.184-.395.275-.11.092-.173.214-.047.122-.08.366-.015.245-.11.703-.063.305-.063.55v.55q0 .396-.08.64-.078.214-.173.427-.078.183-.157.397-.08.213-.08.55 0 .273.048.487l-.014.153q0 .458.126.732.127.245.3.397.19.122.396.244.206.122.364.305.158.182.3.61.158.396.27.885.125.458.205.946.08.46.08.795v.153h-.207q-.633 0-1.265.122-.617.09-1.234.214-.615.152-1.248.244-.617.122-1.25.122-.22 0-.648-.03-.41-.03-.822-.184-.41-.122-.727-.427-.3-.337-.3-.948 0-.64.142-1.068.158-.428.395-.702.253-.306.553-.49.317-.213.617-.396.316-.183.585-.366.285-.183.475-.49.19-.304.316-.976.126-.702.206-1.495.08-.795.142-1.56.063-.792.11-1.25.016-.153.016-.367.016-.244.016-.488.016-.244.016-.458.016-.214.047-.305.16-.52.24-.61.094-.092.125-.154.048-.06.048-.305.015-.275.015-1.1 0-.365.08-.548.08-.214.158-.367l.174-.275q.08-.152.08-.397 0-.427-.128-.763-.126-.366-.126-.794 0-.245.063-.428.062-.183.14-.336.096-.152.16-.305.063-.182.063-.426 0-.336-.08-.672-.063-.336-.063-.672 0-.244.08-.336.094-.122.19-.183.11-.06.19-.09.094-.06.094-.153-.048-.183-.174-.183-.19 0-.19.397-.11-.152-.19-.335-.08-.214-.08-.458 0-.305.08-.55.08-.274.174-.61.11-.336.19-.763.08-.428.08-1.04 0-.64-.096-1.22-.095-.61-.095-1.22 0-.306.064-.61.08-.307.174-.582.11-.305.206-.58.11-.305.158-.64.095-.58.095-1.222.015-.64.015-1.282.016-.64.047-1.252.048-.64.206-1.19.142-.49.22-.794.08-.306.144-.58.063-.306.11-.642.048-.366.095-.946.08-.885.238-1.71.173-.824.237-1.71.03-.67.03-1.13.017-.487.08-.854.08-.366.253-.64.19-.276.57-.55.41-.275.822-.367.41-.122.822-.122.474 0 .98.093.047.52.205.946.16.396.332.793.19.397.348.824.174.397.238.916.08.702.094 1.343.032.61.27 1.222.11.335.11.793 0 .703-.095 1.345-.095.64-.095 1.312 0 .397.127 1.313.126.916.3 1.985.174 1.038.332 2.045.158.977.238 1.527.142 1.16.142 2.38.016 1.222.205 2.382.19 1.22.334 2.442.142 1.19.19 2.473.03 1.19.157 2.32.128 1.1.27 2.23.143 1.098.253 2.227.127 1.13.127 2.35 0 .46-.048.947-.03.488-.205.854.332.764.743 1.65.427.884.838 1.403.158.183.49.275.333.092.665.244.348.122.6.397.27.244.27.733zm-6.626-16.455q0-.274-.11-.702-.11-.458-.253-1.007-.127-.55-.238-1.19-.11-.64-.11-1.343 0-.824-.127-1.618-.126-.826-.174-1.65-.03-.67-.08-1.465-.03-.825-.157-1.527-.126-.732-.395-1.19-.253-.49-.744-.49-.03.245-.11.367-.08.092-.19.184-.095.06-.206.12-.11.062-.174.214.016.092.016.275 0 .55-.126 1.037-.11.458-.206.947-.11.52-.158 1.1-.032.548-.032 1.098 0 .488.016.946.016.458.016.916 0 .702-.063 1.22-.062.49-.14.917-.08.43-.144.826-.063.366-.063.793 0 .915.032 1.587.03.672.142 1.13.11.427.316.67.206.215.57.215.252 0 .727-.122.49-.122.965-.397.49-.305.838-.763.363-.458.363-1.1z"/>
	</g>
	<path fill="#ff7f2a" d="M0 0h177.165v159.45H0z"/>
	<path d="M103.843 149.247c-1.437-2.195-1.378-14.087.086-17.34.59-1.316 1.27-5.992 2.713-18.7 3.045-26.794 5.516-42.63 9.16-58.7 6.34-27.967 12.84-31.678 12.034-6.87-.323 9.934-3.37 48.705-4.743 60.365-.544 4.614 1.38.49 3.33-7.147 9.618-37.608 16.765-57.838 22.628-64.043 6.964-7.37 8.124-.215 6.493 40.046-.55 13.546-.77 24.916-.768 39.478.003 14.962-.104 20.23-.395 19.624-.665-1.387-.488-39.508.297-63.924 1.085-33.786.303-39.15-5.032-34.495-7.697 6.718-22.35 54.193-26.467 85.743-.935 7.172-1.738 9.675-3.106 9.675-1.213 0-1.232-4.254-.047-10.517 3.055-16.146 7.465-76.014 6.283-85.29-1.575-12.362-8.327 6.102-13.26 36.264-4.08 24.936-5.135 38.082-5.843 72.838-.06 2.894-2.19 4.79-3.364 2.995zm-39.328-2.144c0-.87.422-5.168.938-9.55 2.508-21.313-.876-30.59-11.975-32.824-2.253-.454-2.253-.454-5.2 5.527C33.704 139.83 10.053 154.5 5.698 136.67-.378 111.794 44.165 4.186 58.252 9.706c4.893 1.917 4.352 13.195-.74 15.403-5.26 2.28-6.136-2.162-.975-4.957 1.485-.805.356-2.723-1.354-2.3-17.688 4.375-55.616 97.69-48.36 118.975 5.597 16.414 29.795-2.984 43.85-35.153 2.106-4.82 4.803-5.193 9.728-1.345 8.796 6.873 11.07 23.776 6.032 44.8-.885 3.69-1.917 4.752-1.917 1.973zM165.1 135.237c-3.572-1.88-4.123-2.334-4.123-3.404 0-5.37 10.743-4.222 11.045 1.18.21 3.758-2.407 4.598-6.92 2.224zm-83.21-7.515c-5.36-1.644-4.25-7.145 1.432-7.1 3.245.027 5.4 1.818 5.4 4.49 0 2.982-2.504 3.937-6.832 2.61z" stroke="#000" stroke-width="2"/>
</svg>
