<svg xmlns:rdf="http://www.w3.org/1999/02/22-rdf-syntax-ns#" xmlns="http://www.w3.org/2000/svg" height="244.2" viewBox="0 0 598.58905 244.24149" width="598.6" version="1.1" xmlns:cc="http://creativecommons.org/ns#" xmlns:dc="http://purl.org/dc/elements/1.1/" style="fill:#ff0000">
	<path d="m353.2 244c-9.119-1.472-13.91-29.13-6.467-37.34 1.648-1.819 3.55-8.396 5.965-20.62 19.71-99.8 59.41-172.1 81.75-148.7 9.965 10.4 9.313 28.57-3.64 101.4-.5797 3.26 1.429.5534 7.884-10.62 43.26-74.91 77.16-103.9 95.68-81.93 6.499 7.723 7.417 35.17 2.824 84.43-.8972 9.625-1.722 32.08-1.832 49.91-.2063 33.34-.7093 37.03-5.44 39.97-10.84 6.737-14.42-32.79-9.149-101.1 3.646-47.26 3.164-64.38-1.814-64.38-22.04 0-63.23 58.87-91.83 131.3-11 27.84-13.86 31.94-20.9 29.93-8.575-2.445-8.604-2.974-1.822-33.15 12.79-56.91 22.93-128.3 18.61-131-14.36-8.876-47.59 89.63-54.76 162.3-2.621 26.59-5.005 31.29-15.05 29.67zm-141.8-3.881c-3.897-3.156-3.789-8.879.4652-24.48 8.256-30.28 2.286-41.03-26-46.81-12.23-2.498-12.23-2.498-22.98 7.586-67.19 63-161.7 80.2-162.9 29.7-1.195-49.3 112.5-182.7 173.6-203.8 23.06-7.935 43.1 5.565 32.96 22.2-7.109 11.66-38.8 14.85-38.8 3.908 0-6.534-30.85 14.75-59.6 41.12-46.53 42.67-96.85 117.9-92.16 137.6 6.783 28.57 89.13 2.437 133.2-42.25 19.94-20.24 22.6-21.32 41.32-16.83 29.3 7.023 42.91 20.74 44.41 44.74 1.1 17.62-7.635 44.65-15.6 48.28-3.944 1.797-4.577 1.718-7.928-.9966zm364.5-18.92c-2.062-.5508-9.094-2.178-15.62-3.617-19.63-4.322-20.44-19.29-1.107-20.28 32.74-1.681 53.86 16.56 27.61 23.85-5.194 1.443-5.632 1.444-10.88.0426zm-299.4-15.03c-31.97-4.473-23.18-24.95 9.155-21.33 14.03 1.573 16.32 2.497 18.98 7.642 6.084 11.76-4.627 16.97-28.14 13.68z"/>
</svg>
