<svg xmlns:rdf="http://www.w3.org/1999/02/22-rdf-syntax-ns#" xmlns="http://www.w3.org/2000/svg" viewBox="0 0 732.5 170" version="1.1" xmlns:cc="http://creativecommons.org/ns#" xmlns:dc="http://purl.org/dc/elements/1.1/">
	<g>
		<path d="m595 116.6c7.533.1747 3.903-8.559 0 0zm16.2 5.76c.3374 2.248 2.846-1.414 0 0zm-26.64-46.62c10.76 2.654 27.4-1.371 28.19 14.43 10.33.7935 4.729 16.85 1.119 3.181-6.706 7.771-16.18-4.07-24.75-.5920-10.7-2.03-14.98-11.08-4.56-17.01zm-11.88 27.18 1.578 1.578-1.578-1.578zm0 3.42c11.53 5.245 25.8 2.955 34.87 7.628 18.46-4.914 11.81 18.41-2.806 15.85-14.57 3.388-31.15-6.15-32.06-20.46v-3.018zm6.84-49.32c-12.12 4.827-17.08 15.53-21.96 25.8 2.533 8.238 1.396 18.65 11.12 19.62-4.148 7.133-16.09-.3895-14.8 12.68 3.928 10.04-4.829 29.58 7.019 33.88 9.932 4.743 9.453-12.18 17.17-2.253 14.54 3.346 29.28 2.092 44.11.4530 1.138-9.659 14.73-7.918 13.11-19.23 3.463-5.758-3.125-10.34 1.684-15.17-3.419-5.878-11.36-13.43-13.68-14.92 15.12-.1078 2.78-18.46 12.48-25.23 1.296-11.95-13.09-15.48-19.38-9.965-7.955 1.181-13.11 2.2-15.04-5.57-6.651 3.612-10.68-.1431-18.53 1.829-.4671-1.751-2.059-1.536-3.306-1.925zm-149.6 68.76 1.331 1.664-1.331-1.664zm13.32 0c-0.62 9.584 7.988-.7720.0774 0h-.0774zm34.2-13.68c11.96-3.09 19.19 25.69 5.553 15.52-2.515-1.878-16.89 1.29-10.54-8.042l4.986-7.479zm-39.24-85.14c-10.7 11.17 3.312 19.5 13.51 16.3 5.816 11.37-2.587 24.3 3.254 36.81-4.794 12.19.2458 25.32-2.437 37.83 2.297 9.43-8.805 19.51-19.31 14.05-8.247 14.36 14.58 11.29 21.09 13.41 12.78 1.376 25.23.2238 37.05-1.959 13.62.7910 27.28 6.078 40.68 2.056 13.12-5.443.9230-25.81-11.21-17.92-12.28-7.454-17.76-20.3-21.87-32.7.9344-16.26 19.06-17.09 30.65-22.03 13.57 2.867 9.146-14.5-1.632-14.01-9.775-7.772-24.18 2.54-34.7-1.369-5.79 5.141-15.1 6.755-6.202 15.78-8.433-1.507 1.662 12.1-9.111 8.481-15.64-2.202.9338-14.01.6602-18.7-9.946 2.125-4.368-8.977-4.862-14.36-1.713-7.636.9195-24.68-12.2-21.68-7.268-2.38-15.94-2.547-23.36 0zm-57.81 47.7c14.58-.1114 8.401 13.02 5.191 17.37 11.74 7.702-9.355 18.25 2.693 24.07-8.861-1.643-4.267 14.41-12.48 2.741-1.941-.0197-1.11 12.73-7.261 3.919-1.711-8.472-10.21 7.23-9.265-4.958-3.199-12.55.6245-24.04 3.97-36.67 7.102-.5061 11.52-3.53 17.15-6.476zm-8.28 56.16 1.331 1.664-1.331-1.664zm-46.08-78.3c-14.79 3.147-7.247 26.95 6.43 23.01 6.261 12.81 1.778 27.39 1.51 40.18 2.236 9-19.92 6.987-12.06 19.49-1.017 11.92 9.32 13.93 18.5 12.72 8.665-7.171 22.22 1.59 31.48-4.464 10.74 9.205 28.5-2.89 38.74 5.548 4.918-3.732 13.36-4.329 17.13-9.048 1.759-13.82-12.23-16.15-19.42-22.19 3.077-12.51.4309-26.05.0619-37.55-3.415-5.23 5.21-11.17-3.898-14.57-5.125-14.99-28.67-16.34-40.22-6.531-13.62 3.888-21.49-7.498-36.23-6.259l-2.02-.3338zm-69.69-32.22c-3.973 8.858-19.29 11.33-9.444 22.43-1.605 11.08 16.9 10.32 23.63 10.12 7.745-6.246 7.441-12.06 5.808-21.23-3.388-6.529-9.275-12.85-19.99-11.33zm-34.2 34.02c-15.81 9.479-1.095 26.42 12.81 21.03 16.4-12.31 21.43 11.84 15.02 22.63-2.683 9.571 8.532 30.13-9.561 29.33-10.65-6.594-25.75-.9835-25.18 12.97 10.97 13.18 26.24.9218 39.03 7.172 11.89-2.475 24.34 1.889 37.32-.4462 14.09 6.3 25.54-12.13 10.81-20.03-3.463-6.077-8.036 4.536-13.59-2.582-7.739.6244-22.03 7.652-19.31-8.122 5.411-13.47-2.274-27.96 3.954-43.22-.3522-13.35-10.61-22-23.74-18-8.606.7803-18.49 1.364-27.57-.7295zm-48.45 63.36c7.018-1.945 2.121 8.162 0 0zm-57.96-5.22 1.578 1.578-1.578-1.578zm32.4 1.8c-3.532 3.435 1.812 4.006 0 0zm47.88-3.42 1.446 1.627-1.446-1.627zm-77.7-65.36c-1.439 3.354 1.931-.08246 0 0zm55.44 39.78c-2.127 7.221 8.122 4.573 0 0zm29.16 8.46 1.331 1.664-1.331-1.664zm-56.16 1.8c-2.11 6.837 7.833 1.692 0 0zm16.92 0c.3312 5.688 7.163 2.318 0 0zm-51.12-59.58 1.618 1.456-1.618-1.456zm-16.92 0c-.5696 6.495 6.683 5.188 0 0zm28.8-3.42 1.618 1.456-1.618-1.456zm-3.24 13.5c6.749 2.443-1.224 15.4 2.137 22.01-4.498 11.54-.8890 21.25-1.504 31.71-1.685 8.249 6.98 32.34-8.794 24.99-10.06-2.572-23.34 8.715-13 14.81-6.024 10.6 2.478 4.71 7.352 3.042.5902 11.43 13.35-5.909 20.65 4.055 2.08-8.65 5.759-5.203 9.017-1.914 12.22-.8799 25.85 3.848 38.5-1.506 11.33 9.226 21.94-6.161 24.89-12.96-3.714-9.847 8.186-21.66-4.182-26.53 5.768-11.99-17.53-27.48-19.02-10.53-7.474 2.995 4.583 11.41-5.294 11.74-2.465 6.807 12.29 4.818 1.227 9.529-.3508 9.762-6.854 17.01-16.11 7.512-4.314 1.684-4.185 4.892-10.46-.5905-14.41.2388 2.866-24.51-4.302-30.25 1.828-8.497-7.668-16.1-.7814-22.98-7.337-4.476 6.545-15.43-3.6-19.1.8195-14.09 21.78-.05076 20.86-16.06.6820 1.733 2.399 13.89 4.36 2.348 4.514-7.322-.5165-11.7-6.517-7.289-2.959-10.45-16.42-.4939-20.2.1183-3.746-12.19-11.68 12.61-12.67-3.844-7.469-1.262-12.73 4.224-18.99-.4591-9.485 9.14-3.17 22.27 9.87 18.59 7.897.5036 11.33-7.328 6.547 3.56z"/>
	</g>
</svg>
