<svg xmlns:rdf="http://www.w3.org/1999/02/22-rdf-syntax-ns#" xmlns="http://www.w3.org/2000/svg" viewBox="0 0 732.5 170" version="1.1" xmlns:cc="http://creativecommons.org/ns#" xmlns:dc="http://purl.org/dc/elements/1.1/">
	<path style="fill:#412b55" d="m99.21 134c-14.14-30.8 36.49-102.9 48.19-79.78 2.624 6.894-3.407 20.12-21.26 46.6-8.686 12.89-9.009 12.34 7.018 11.92 9.663-1.209 19.71 5.241 23.12-3.389 10.89-27.51 17.5-66.42 28.5-51.82 3.953 15.24-8.001 16.41-5.16 50.08-5.505 17.16-5.851 18.14-15.69 16.78-6.658 5.406-36.72 15.59-64.69 9.56zm183.2-2.609c-4.996-4.996-4.317-8.628 3.698-36.53 6.627-43.46 11.01-47.39 19.05-40.81 3.622 24.02 7.793 14.73 16.61-.2872 13.44-13.44 24.42 2.998 11.65 17.32-13.65 15.3-13.77 19.81-.9368 34.64 17.49 18.83 11.53 37.86-14.75 16.19-9.195-8.513-8.716-8.559-13.82 1.307-6.304 12.19-14.4 15.26-21.5 8.164zm82.67-4.826c-8.101-8.101-3.888-20.64 12.41-21.01 16.25-.3688 22.54-4.102.7680-7.244-35.62-5.141 1.832-65.5 38-54.66 33.36 22.84-24.77 19.58-25.01 32.53-.4769 9.278 19.06 10.14 24.84 16.46 21.49 23.49-9.06 43.8-51.01 33.92zm-169.1-2.3c-12.52-11.95 20.76-75.38 30.09-57.39 10.85 20.9 8.809 51.82 32.78 1.183 6.691-16.07 25.46-17.86 22.41-2.988-8.107 39.43-38.01 70.91-60.32 52.95-2.53-33.46-8.85 14.4-24.96 6.25z"/>
</svg>
