<svg xmlns:rdf="http://www.w3.org/1999/02/22-rdf-syntax-ns#" xmlns="http://www.w3.org/2000/svg" height="249.9" viewBox="0 0 834.85791 249.89154" width="834.9" version="1.1" xmlns:cc="http://creativecommons.org/ns#" xmlns:dc="http://purl.org/dc/elements/1.1/">
	<path d="m725.2 248.6c-1.767-1.82-2.024-5.948-.5180-8.321 1.042-1.642 13.24-6.64 29.66-12.15 50.43-16.93 55.2-30.62 20.17-57.93-31.27-24.38-43.8-45.74-35.3-60.2 13.44-22.86 38.83-42.61 71.63-55.73 26.72-10.69 33.47 6.391 8.384 21.2-62.25 36.75-60.27 35.31-61.52 44.6-1.022 7.621 3.387 15.04 13.87 23.35 19.76 15.66 25.39 20.3 30.17 24.89 26.57 25.49 22.19 48.16-12.5 64.77-24.18 11.57-59.57 20.14-64.06 15.51zm-671.6-28.1c-37.52-5.4-51.99-15-53.45-35.4-1.259-17.6 4.054-29.5 41.65-93.33 20.65-35.06 20.99-35.8 18.44-40.25-1.98-3.44-1.96-3.89.44-8.51 22.84-44.05 22.15-43.01 28.24-43.01 20.32 0 10.16 31.87-31.43 98.6-57.11 91.6-56.51 95.8 15.49 108.3 13.75 2.392 18.99 8.474 12.09 14.04-2.471 1.991-15.78 1.797-31.46-.4582zm155.3-4.9c-3.639-2.549-3.565-6.915.2887-17.15 2.033-5.401 2.841-9.56 2.396-12.34-.4251-2.654.9698-10.69 3.808-21.94 7.198-28.52 7.362-28.15-13.02-29.75-17.21-1.352-22.87-5.253-17-11.73 4.088-4.517 29.39-7.206 37.61-3.996 2.297.8970 2.881-.5306 7.828-19.15 11.44-43.05 15.64-49.88 25.77-41.9 3.993 3.141 4.308 8.005.9470 14.65-8.163 16.13-18.86 57.27-17.99 69.18 2.557 34.97-17.45 83.38-30.64 74.14zm70.12-3.56c-3.918-3.37-3.891-3.012-2.31-30.12.6183-10.6.3377-19.03-.9571-28.75-1.886-14.15-1.4-18.43 2.254-19.83 6.248-2.398 9.727.7921 11.26 10.33.8864 5.499.8864 5.499 5.433-3.125 34.19-64.85 55.55-62.14 71.45 9.074 13.25 59.34 23.76 55.22 70.51-27.7 8.14-14.44 16.12-28.59 17.74-31.45 6.502-11.49 12.35-15.54 16.47-11.42 6.915 6.915-45.09 103-65.23 120.6-26.76 23.3-43.06 11.08-55.29-41.45-12.3-52.85-12.33-52.87-29.81-25.83-13.39 20.7-20.86 41.23-23.06 63.33-1.75 17.6-9.278 24.27-18.46 16.37zm350.1-1.261c-4.562-1.987-7.408-5.485-24.49-30.11-15.77-22.73-21.59-32.24-23.54-38.47-1.477-4.724-1.477-4.724-4.895 0-6.79 9.386-18.65 28.75-25.67 41.91-9.163 17.18-12.79 20.28-19.93 17.03-6.059-2.76-6.414-6.997-1.57-18.71 13.7-33.13 39.65-121.4 36.58-124.5-.3717-.3717-2.451.8180-4.621 2.644-3.948 3.322-7.083 3.448-10.85.4354-6.664-5.331 12.96-28.44 24.14-28.44 16.27 0 15.12 19.25-5.075 84.33-1.06 3.415-1.421 5.665-.803 5 .6179-.6653 7.143-8.522 14.5-17.46 20.36-24.74 47.96-48.37 56.47-48.37 11.32 0 10.77 9.172-1.115 18.54-20.26 15.97-31.04 27.61-37.12 40.08-6.311 12.94-5.634 15.2 13.05 43.51 6.352 9.625 13.43 20.88 15.72 25 2.297 4.125 5.747 9.694 7.666 12.38 7.506 10.48 2.267 19.91-8.468 15.23z"/>
</svg>
