<svg xmlns:rdf="http://www.w3.org/1999/02/22-rdf-syntax-ns#" xmlns="http://www.w3.org/2000/svg" viewBox="0 0 800 375" version="1.1" xmlns:cc="http://creativecommons.org/ns#" xmlns:dc="http://purl.org/dc/elements/1.1/">
	<path d="m447.8 287.9c-6.646-13.71-24.08 5.132-35.54-3.1-18.49-9.493-35.94.0666-53.84 2.714-20.02-2.804-15.02-28.55-18.44-43.06 4.613-12.45 22.96-12.33 14.61-29.08 7.331-15.32-.0167-30.51 2.256-46.63 4.2-18.35-24.93-13.24-20.13-34.96-6.592-19.61 16.43-33.74 32.14-22.69 2.381 8.499 13.21-1.139 14.93 9.159 13.68-.3383 21.4-18.29 36.24-13.16 13.71 3.161 29.97 22.03 30.37 39.85-5.59 16.25-1.118 31.08.9358 46.6 1.395 16.28-7.496 37.19 13.29 45.33 11.03 14.69 11.77 38.14-8.474 45.36-3.077 1.076-4.689 5.882-8.339 3.651zm-35.4-66.46c1.02-14.55 14.48-29.64 3.159-42.14 10.63-7.366 3.205-32.87-5.763-16.34-4.666-5.166-9.088 8.475-14.89 7.287-2.323 14.25-6.854 29.44-3.958 43.63-2.838 10.06 7.363 18.27 11.47 5.416 4.164 3.829 10.9 18.2 9.982 2.138zm-336.3 61.05c-19.3-7.868 3.919-23.94-5.655-37.17 4.826-1.807 12.05 3.642 15.22-5.599 22.71 15.37 16.52-25.2 18.31-37.3 10.05-15.98-3.465-31.46-.4765-47.47 10.99-13.37-8.187-28.83.3702-44.4-.9547-15.51-9.937-15.74-20.67-9.029-19.79 3.783-19.92-21.36-19.13-34.72 8.835-15.31 33.18-7.211 47.88-10.16 11.16 4.382 21.03 11.76 17.99 27.78 9.064 13.85.4239 29.96 1.932 44.6 3.766 19.29 1.448 39.13 1.793 58.65-6.28 18.23 8.898 36.76-2.05 53.24 13.19 10.45 15.57-14.23 28.52-3.412 7.87 1.505 20.02-3.775 16.12 11.17-9.13 6.828 8.415 35.94-15.17 36.14-16.17-.1054-36.58-9.352-47.57.2789-8.009-6.574-12.85-9.587-23.41-2.391.4449 9.522-10.78 3.207-13.99-.2219zm151.4 3.8c-17.92-.4751-31.56-22.93-19.05-37.88 2.63-20.81 19.34-10.29 33.25-9.109 11.07-12.69-1.827-34.33 6.345-50.36 1.057-12.94 3.358-49.88-18.04-33-27.83 10.55-32.98-31.25-15.7-45.37 7.965.4185 18.62-.7634 22.96 4.352 18.44-13.32-13.51-34.66 4.784-45.77 11.79-5.405 10.99-30.35 28.33-16.75 14.41 9.27 12.85 27.27 14.36 41.8-4.035 15.02-17.92 30.98-6.339 46.91 4.66 19.53-7.76 40.11.1214 60.53 1.03 9.949-11.42 41.61 7.075 35.88 5.661-3.801 20.18.7720 24.36.6824 18.99 14.92 16.15 59.31-15.51 47.2-10.86.9125-23.9 3.549-30.48-4.208-8.384 4.99-17.23 8.078-21.39-1.818-6.31-.8343-8.561 10.88-15.08 6.914zm463.8-.033c-15.83-1.208-28.53-7.55-41.87.4942-18.06-5.321-9.114-29.8-10.83-44.26-2.717-15.88-1.766-32.96 6.99-46.98-3.606-19.87-4.636-40.68 3.891-59.59 3.092-12.89 19.2-19.02 24.3-23.07-.5508 9.009 12.01-4.453 16.17 4.856 12.2-12.27 10.84 18.25 24.97 4.995 16.88-15.28 31.18 16.54 22.41 31.93-3.103 14.5-3.042 28.4-4.766 43.19 11.62 17 9.503 37.37 5.508 56.82-.6437 12.16-12.85 17.34-18.45 27.22-10.29-3.345-16.69 12.07-28.33 4.373zm-7.421-41.94c13.02-2.037 21.76 2.334 23.32-13.9 15.61-6.689-10.91-7.621-17.45-2.195-5.223-2.306 6.378-13.67-6.626-13.18-7.836 2.664-23.95-5.256-15.38 8.168 11.28 2.562 5.09 26.27 16.14 21.1zm22.3-65.2c3.474-15.12-12.04-19.52-18.47-20-19.55-12.15-16 30.14 5.667 19.05 7.072-5.519 10.9 12.23 12.8.951zm-201.2 102.2c-8.515-8.466-23.59-1.453-24.08-18.22-2.685-13.63 14.04-16.79 19.69-26.8 11.78-5.465 3.056-27.16 7.67-39.08-2.225-22.02 1.335-43.98-1.764-66.05.9165-15 6.845-33.99-14.36-36.47-10.99-8.999-8.478-36.6 8.962-39.6 13.8-3.708 17.87 8.289 29.86 8.039 8.665 12.07-2.114 25.7 6.901 38.51-8.414 13.5 6.831 30.45 16.65 13.54 6.079-11.29 19.24 8.254 24.91-7.487 15.2 1.073 37.09 12.59 34.39 30.86-.1966 13.86-16.65 4.601-16.85 15.89-16.03-3.234-30 16.35-29.93 31.95 5.866 12.74 5.959 28.61 15.15 39.78-2.011 16.21 17.9 12.27 24.05 12.79 13.08 14.95 9.578 49.19-14.5 44.8-15 3.32-31.49-10.83-46.53-3.291-9.139 12.18-24.47-.8272-30.48-.2821-2.433 2.284-7.828 6.376-9.753 1.131zm39.84-43.82c10.85-18.64-18.02-12-7.991 2.029 2.717 1.376 6.078.1266 7.991-2.029zm-3.6-86.2c6.234-11.12-2.293-19.21-6.538-4.341-4.1 7.214 5.652 14.77 6.538 4.341z"/>
</svg>
