<svg id="svg-logo" xmlns="http://www.w3.org/2000/svg"
   	width="451.22845"
   	height="424.85068"
   	viewBox="0 0 451.2284 424.85057" 
   	style="fill:none;stroke:#000000;stroke-width:3.74999952;stroke-linecap:round;stroke-linejoin:round;stroke-miterlimit:4;stroke-dasharray:none;stroke-opacity:1">
  	<g id="logo">
  		<path 
     			d="m 159.2052,346.92044 c 9.13869,-2.02897 27.29442,3.06935 7.83618,3.47055 -12.67387,1.29748 -25.15266,-1.8969 -37.36193,-4.85767 m 82.23616,36.85765 c -7.05511,-6.85305 -17.43664,-10.35518 -21.79754,-19.81593 m -6.14294,3.96318 c 10.24722,1.4943 20.18857,4.87292 29.92207,8.3227 m -183.297466,8.52085 c 47.67498,-4.67905 95.705406,-3.3203 143.343536,0.69905 3.02726,-8.23868 -2.80434,-13.3587 13.20241,-7.83278 M 376.78422,169.17146 c 1.37025,3.72208 5.22508,9.53686 8.3227,10.30429 m -8.91717,-6.53926 c -7.95785,-3.59814 3.87595,9.97364 4.55767,11.29508 m -7.72822,-5.94478 c -10.91183,-8.77651 -5.22805,4.95786 -2.97238,9.70981 m 64.79813,132.17232 c 3.4604,5.55475 5.74847,11.9024 7.3319,18.23067 m -10.70063,-16.05092 c 1.963,2.23355 2.38563,5.29197 2.57608,8.12452 m -7.53005,-6.53925 c -3.9086,-9.52977 -2.9122,3.9433 -1.78343,5.94478 m -189.07017,81.31677 c 11.72,-9.03927 20.77775,-14.637 36.51937,-9.23165 13.32473,0.115 11.42643,-21.58657 15.04473,-30.42227 m -49.04194,29.00482 c -2.03983,3.743 -4.93777,8.63765 -9.52816,9.2479 m 5.32456,-10.0886 c -3.36403,3.23003 -8.21616,4.4889 -11.77007,7.56645 m 27.74373,15.69343 c -25.22187,-10.06533 9.68485,-4.40775 18.91615,-1.68143 -3.24175,-3.8634 -24.18889,-11.94732 -4.37222,-6.60805 9.0068,3.91075 33.61302,8.51258 11.5599,-0.26257 -12.58433,-4.02988 -13.1213,-7.87768 -0.28833,-2.67645 9.85173,5.7058 27.9527,8.62075 9.83733,-3.23335 -18.70573,-15.42933 31.53425,15.43745 25.3436,11.2467 6.8265,-1.66718 -22.0126,-21.14243 -21.27903,-20.54995 -9.1426,-2.37355 27.51985,18.85817 30.06983,16.96822 -9.68583,-4.71817 -23.52998,-19.01225 -4.78965,-8.44655 6.95652,4.60098 36.665,20.10723 14.30205,6.00703 -7.64958,-4.8931 -41.66998,-24.13215 -16.39405,-12.67118 14.98597,5.83403 38.8628,18.74575 48.39392,19.36463 -11.84215,-6.89458 -33.16817,-16.18515 -40.68622,-19.84065 7.13985,3.78457 43.28712,17.37647 20.23837,4.279 -8.38177,-4.31083 -40.37947,-20.457 -15.6073,-9.52965 19.71458,8.19352 38.66753,18.9461 59.2707,24.55162 -13.92942,-12.41027 -30.69262,-22.3112 -47.3705,-30.51097 11.35695,8.6065 29.55198,19.59167 41.76573,19.02115 -7.05788,-9.19733 -28.0797,-22.94338 -27.98293,-27.13455 19.33038,10.4553 41.1043,18.67672 57.06688,33.87937 -17.6934,0.77878 -35.02555,-11.03122 -52.16783,-16.32855 -10.57302,-6.85387 -23.7066,-5.46442 -11.40545,7.50455 -0.10712,2.6028 16.75068,18.09035 9.54798,15.53068 m 0.0661,-228.69587 c 7.10855,11.58056 14.40365,27.71188 -2.17975,33.09262 1.53957,28.61687 20.0981,53.80002 39.75567,73.4285 6.92573,6.04142 14.75055,11.66537 23.8535,13.76162 m 4.16135,16.44723 c 9.66663,21.50352 39.77878,7.7493 26.40475,-12.80605 0.85278,-15.6053 -28.84657,-46.9355 -38.40677,-22.01478 -9.54903,6.29933 -21.08635,2.74015 -27.62988,-6 m -82.4343,21.4012 c 18.10298,0.0213 12.53758,32.43183 30.50105,38.51105 15.48583,4.6871 44.89605,6.51238 59.79313,-6.13927 5.23332,-10.43948 19.9841,-27.09935 28.9978,-9.97975 m -157.3386,-79.85825 c -29.47707,-14.61871 -17.1459,26.28895 -3.30205,36.20127 7.90147,11.43468 -22.50864,-0.46627 -19.48626,19.28338 m 1.98159,-115.32877 c 28.29079,15.5224 -3.55936,35.33949 -14.51518,49.19307 -7.67871,21.68475 7.32905,45.47887 -6.09552,66.47652 -8.66722,20.79105 0.0615,44.77665 17.26509,58.31603 21.93618,20.92305 -40.85019,32.18795 -7.35461,48.98942 19.81051,11.22 33.79336,-15.60672 52.14881,-19.60465 16.73225,-4.5301 -6.34815,-21.67197 13.62443,-23.2874 21.97772,-17.26682 -22.13238,-38.75852 -14.84668,-60.79105 21.67168,-8.55012 35.83733,19.54775 52.25798,29.7928 -4.05218,-3.9794 -2.3544,-16.88265 10.49022,-10.14932 21.34,11.6383 22.04423,-11.00065 11.28435,-23.21085 -2.97307,-4.37833 -14.22107,-27.65268 -19.34055,-14.26698 M 323.08302,173.92728 c -13.3407,3.73482 -26.36115,-0.90649 -36.65947,-8.12453 -3.65588,13.78997 32.07615,24.29642 9.61672,9.0906 -5.60125,-7.68299 19.63283,9.38029 26.21605,3.77041 32.45793,-8.74967 -17.96725,6.11769 -23.15057,4.77517 m -75.49873,-77.87665 c 6.68878,-21.012133 37.43195,-2.30207 47.9991,7.96668 10.88203,16.71372 18.85128,40.3888 9.19095,59.2659 -18.1409,8.81199 -36.64636,21.67326 -41.49266,43.3395 -8.14921,17.58483 -8.36162,36.90738 -7.3747,55.88181 m 76.09321,-150.99745 c 16.3339,-1.01234 25.00745,33.30688 3.06258,19.4711 -8.4721,-4.93736 -15.9599,-11.38441 -23.07668,-18.08399 m -5.74662,-22.19385 c 11.49432,4.90344 25.1782,24.66991 4.75582,9.33826 -12.08985,-10.745019 -17.4682,-2.85572 -6.59245,7.73552 17.65203,15.81601 -14.25582,27.52471 -10.8168,36.59407 19.04705,-2.20388 15.87405,-33.26736 3.33993,-33.05927 M 156.62913,6.482568 c -33.13311,15.74733 -57.627049,43.997065 -87.388309,64.79813 -11.15673,16.951759 -25.609822,31.171322 -40.003432,45.477592 -6.38155,14.55704 -16.835229,4.99756 -25.1910166,7.03466 -3.56867501,3.05596 -2.488079,9.02011 1.585275,11.29509 M 108.27823,66.128553 c 5.18207,-3.687183 7.03668,-10.125508 14.06932,-11.691405 M 81.923024,73.65861 C 77.143559,71.500225 67.693869,71.369115 65.277634,77.027323 M 277.28422,65.37968 C 259.11437,52.02143 250.80587,49.905225 243.69874,68.536103 222.20833,76.815555 212.47974,47.175728 192.42308,49.39108 172.98072,57.437 152.23841,55.352963 131.82544,54.227495 116.19655,67.42408 98.970261,34.013583 88.963136,52.208413 c 14.112224,19.623837 -39.31406,4.41049 -24.39618,30.125774 12.189568,11.457764 38.232724,1.06394 41.765884,6.02454 -2.78325,8.200234 28.25586,4.249394 33.41281,-5.40495 19.70876,0.61553 43.32995,25.483303 59.03097,4.47836 10.95188,6.478284 42.37928,15.971583 40.0595,-3.96796 -6.83478,-2.511737 -14.31708,-2.867932 -21.52318,-3.231792 m 132.13303,64.315025 c 8.58395,-15.67799 40.09398,-10.35612 38.45075,-35.50639 -7.62207,-26.240813 -46.8175,-1.49007 -34.94775,20.23332 22.3174,10.12397 55.94003,-32.914999 21.65783,-36.427059 -19.37588,2.25749 -41.7506,24.071849 -20.53688,40.910899 m 65.5761,-59.13059 c 11.59663,8.990777 18.1628,26.46691 6.30745,32.71424 17.7259,17.61047 -12.62722,17.57553 -22.50605,22.60438 -3.16162,12.29768 3.73428,37.38929 -19.49285,30.32446 -5.45965,-1.00657 -16.38385,-8.10428 -18.2547,1.37136 M 284.8507,70.143755 c 9.36255,6.038903 17.15727,-6.189387 7.7379,0.420903 11.21367,19.001859 28.4784,-14.002525 44.97782,-5.21782 15.75628,15.128475 32.58445,-5.38229 48.1706,-11.456988 25.89885,0.79435 51.89273,25.792963 44.13775,52.96532 -12.02447,23.63937 -41.59195,29.58827 -57.58927,49.46231 4.34142,13.99941 36.71645,6.73897 18.01417,24.42464 -14.6217,20.82319 -41.82482,1.49594 -44.30142,-18.32833 -0.0135,-1.80728 -1.74598,-4.46667 0.0848,-5.95619 M 315.53695,44.641938 c -10.08975,10.26346 -4.11333,17.595545 6.44552,10.92935 2.4402,2.32114 0.3466,5.819855 -0.7006,8.126952 m 2.1018,-30.82637 c 18.62883,-20.69332 -25.2131,-47.27545 -22.9032,-15.241005 l -0.91717,1.929618 m 2.8024,16.394025 c -24.14808,10.88646 -11.20303,-50.750313 10.59802,-29.64637 16.9557,6.060197 22.2366,22.128415 5.9361,33.569725"/>
     	</g>
</svg>
