<svg xmlns:rdf="http://www.w3.org/1999/02/22-rdf-syntax-ns#" xmlns="http://www.w3.org/2000/svg" viewBox="0 0 800 375" version="1.1" xmlns:cc="http://creativecommons.org/ns#" xmlns:dc="http://purl.org/dc/elements/1.1/">
	<path d="m117.5 268.3c-.2233-10.15-16.75 1.156-13.82-8.996-12.63 4.165-12.79-13.48-24.06-18.34-8.531-16.53-20.19-39.16-11.23-57.49.2360-10.51-6.384-22.67.8204-33.32.6625-16.58 7.589-33.78 19.58-44.58 10.8-8.007 25.57-8.605 35.22-18.68.8104 15.93 31.46 8.563 32.25 28.85 10.09 14.5 12.5 31.88 15.98 48.65 5.195 16.2.0484 31.61-3.211 48.42-2.864 24.74-16.99 46.04-38.58 55.58-3.542 3.482-10.45 6.333-12.94-.0931zm3.17-47.57c9.282-12.76 10.48-30.96 13-43.74-6.662-5.586-7.951-24.47 1.328-11.73 6.869 22.72 9.348-12.99-.086-18.18-3.386-8.864-19.47 3.638-17.87-11.98-16.78-6.577-19.48 22.66-22.63 33.96 4.99 16.28-4.419 43.1 17.67 48.23 8.35-3.666-.0437 9.527 8.587 3.44zm-1.731-35.56c-3.505-16.45 20.24 3.948 0 0zm149.1 84.46c-10.68-12.37-24.31-23.88-22.74-41.97.5376-16.55-7.048-31.25-2.592-48.72-3.111-14.74 6.067-32.61-12.28-38.71-15.5 9.656-28.31-12.76-17.01-25.45 2.178-12.62 16.7-19.08 26.19-15.52 6.695-18.43-3.461-42.05 12.46-57.04 14.48-4.059 26.6 20.59 18.19 32.52-2.998 13.77 3.461 33.53 18.12 19.59 15.94-4.812 29.18 15.61 19.59 22.57 9.65 14.69-7.498 27.28-16.82 31.18-16.21-20.2-23.09 10.15-18.42 23.65-5.417 15.68 11.16 26.45 20.32 10.68 18.49-18.1 18.59 20.89 21.83 32.12-.9181 15.53-7.305 30.68-15.98 42.73-2.844 12.47-13.88 8.571-22.72 14.4-2.833.1106-5.669-.6425-8.137-2.017zm275.7-1.3c-.2973-10.02-16.84.9977-14.05-9.079-12.25 4.083-12.78-13.01-23.66-17.96-13.41-19.68-17.05-44.71-11.85-66.76-3.688-16.36 1.808-38.35 9.735-54.78 7.84-17.04 23.36-19.98 37.96-26.75 10.04-12.63 8.056 6.971 21.21 4.766 19.46 5.979 26.67 30.69 31.37 48.93 3.853 18.19 9.53 36.89 2.853 54.76-3.902 15.75-4.24 34.35-16.63 46.1-3.446 14.86-22.56 15.83-32.36 24.43-2.246.3513-4.546-1.4-4.571-3.654zm1.2-47.1c13.49-9.901 7.083-30.2 16.83-43.47-12.06-2.368-8.282-27.71-.9723-11.7 9.298 21.95 8.459-12.97-.1917-18.85-6.986-6.952-15.38 1.467-19.7-11.67-13.36-9.069-15.6 20.28-19.46 29.5-.8337 16.7-1.691 35.07 7.534 49.82 5.371.9778 14.9 3.907 15.96 6.363zm-.7658-36.79c3.047-17.36 15.06 8.158 0 0zm145.8 85.6c-14.75 1.141-25.55-10.13-36.04.9432-18.21 1.022-17.58-21.28-16.81-34.04-.5451-18.52-3.676-37.82 5.347-55.2 4.672-13.93-1.439-29.38-.1892-44 4.938-15.58 8.088-35.16 27.49-38.87-2.087-11.58 5.604 4.065 11.68-2.663 9.778 3.08 17.89-2.529 22.23 10.87 12.73-1.61 24.31-15.65 31.11 3.347 8.081 19.48-2.798 41.02-3.484 61.15-.6124 18.57 16.11 34.03 7.198 53.7 2.898 18.25-10.74 30.17-21.5 40.62-8.64-3.237-16.74 11.44-27.04 4.156zm-7.5-41.87c13.65-1.128 21.66-1.173 25.98-15.98 8.239-7.655-14.59-3.784-20.04-1.399-1.258-2.515 2.033-15.52-10.57-12.28-6.102 2.6-17.93-7.6-12.41 6.322 9.367 5.904 8.505 17.79 14.76 24.83l2.28-1.495zm22.04-70.69c2.755-13.76-13.77-15.61-17.53-15.95-11.31-13.19-23.02 18.12-4.441 19.11 8.965-2 16.05 2.922 21.63 4.042 1.008-2.261.6851-4.845.3402-7.203zm-343.3 111.4c-7.356-9.252-27.67-14.43-11.82-27.32-1.755-10.04-4.702-21.88 6.255-22.03 7.653-7.785 24.11 6.016 17.7-12.38-4.437-17.11.3479-34.33 2.707-51.35-.1458-11.6 3.691-29.39-12.83-18.63-12.1-5.117-29.2-14.23-16.74-29.41 4.53-9.047 9.167-21.35 21.43-13.91 10.46-6.606 20.04-4.828 25.54 3.731 11.92 1.725 27.39-4.379 32.73-8.766 9.108 6.055 18.13-.6826 20.22 11.96 14.25-8.4 19 20.16 19.73 27.34-1.097 17.15-1.094 43.24-21.36 48.12-17.44 3.341-23.67-14.34-17.56-28.85.3731-14.56-9.851-8.841-6.829 2.297-3.567 19.79-22.95-15.75-15.95 6.494 4.92 11.61-6.274 25.5.1335 38.25-4.88 11.42 4.924 34.89 14.27 17.06 12.47-9.455 3.605 18.55 12.97 25.74 13.86 21.73-21.47 32.45-36.4 25.21-8.546 10.41-16.19-9.447-23.89 1.574-3.459 1.436-6.1 5.767-10.31 4.854z"/>
</svg>
