<svg xmlns:rdf="http://www.w3.org/1999/02/22-rdf-syntax-ns#" xmlns="http://www.w3.org/2000/svg" height="60.86" width="197.3" version="1.1" xmlns:cc="http://creativecommons.org/ns#" xmlns:dc="http://purl.org/dc/elements/1.1/" viewBox="0 0 197.27374 60.859999">
	<g>
		<path d="m173.1 39.94c2.318-.000732 1.231-2.622 0 0zm5.4 1.92c.1124.7493.9485-.4712 0 0zm-8.88-15.54c3.418.9709 9.165-.5875 9.255 4.682 3.655.9124 1.556 5.109.3805 1.164-2.088 2.692-5.312-1.397-8.113-.1735-3.568-.6728-4.986-3.69-1.523-5.673zm-3.96 9.06.5215.5215-.5215-.5215zm0 1.14c3.777 2.06 8.372.4809 11.57 2.576 5.788-1.893 4.364 5.787-.4304 5.17-3.719.7572-7.645.09395-9.271-3.272-2.579-.6089-1.762-2.564-1.868-4.475zm2.28-16.44c-4.049 1.591-5.567 5.136-7.32 8.446 1.141 2.713-.0464 6.454 3.895 6.678-1.872 1.861-6.144.7423-5.075 5.265 1.192 3.222-1.94 10.97 3.749 10.33 2.752.09306 1.279-3.966 4.045-1.092 4.695 1.485 10.26 1.36 15 .0467.6302-3.119 4.919-1.925 4.051-5.763 2.002-1.723-1.109-3.716.8288-5.315-1.435-1.943-3.241-4.423-4.776-4.979 5.194.3640 1.21-6.18 4.274-8.319.5560-3.996-3.995-5.465-6.558-3.199-1.859-.1997-4.817.8314-4.676-2.083-2.445.7335-5.228 1.011-7.442-.01946zm-28.87 11.88c1.396 2.823 2.998-.5563 0 0zm-2.52 3.06c-.0515.6989.8632-.4029 0 0zm2.52 2.04c-.2621 4.129 3.965-.7199 0 0zm-8.52 3.42.4383.5479l-.3-.55zm2.76-15.3c2.841-.8477 3.182 3.555 5.528 1.231 1.448 1.456 4.467 2.856 4.137 5.244.6512 2.395-2.748 3.743.095 4.35.1781 3.374-2.498 3.917-4.688 4.512.3691 4.425-6.048 1.178-8.493 1.104-2.371-4.896-2.401-10.35.4289-14.52.8697-.8150 1.85-1.537 2.991-1.923zm3.48-6.24c-3.415 2.217-9.451.04813-11.12 4.723-2.55 2.036-4.736 6.595-3.697 9.437.06 3.437-1.552 7.036 1.774 9.766.9990 3.027 4.506 3.956 6.548 6.294 3.534-.5051 7.483 3.79 10.33-.2637 3.616.6682 5.065-2.807 7.072-4.809 1.065-3.706 4.7-8.421 2.099-12.34-.2608-3.781-2.705-6.881-5.028-9.485-1.701-3.188-5.746-1.245-7.983-3.327zm-44.58-.06c-2.726 2.525-7.613-1.179-9.044 3.762-2.948 2.832 4.913 3.745 7.051 3.249 4.484 2.944-1.119 9.848 1.294 13.69 1.027 3.772-1.553 3.415-4.342 2.637-1.436.8411-5.145.4474-2.371 2.57-.1953 1.736-4.44 4.065-.1334 4.488 3.267 2.927 6.728-1.9 10.52.7102 3.082-1.892 5.846 1.109 8.979-1.069 4.343-.07367 2.098-3.83.1390-5.377.2990-4.693-2.051-2.04-2.577.1127-1.357-2.143-5.611 2.019-3.468-2.121.3422-2.987-.01214-4.981-.9632-7.6.9695-1.359 3.175-2.404.1105-3.294.04066-2.782.8806-2.343 2.267-1.799.2443-2.674 5.164-3.647 7.037-1.977-1.002 1.793.2116 5.144.3010 6.477 2.72-.2206 6.336 1.243 6.749-2.488 3.115-.8464.1526-4.375 2.329-6.276-2.649-.3918-1.201-4.993-4.965-4.028-3.396-2.664-8.704-1.627-11.92.5603-2.85-.18-4.81-1.2-7-2.23zm10.26 9.66c-1.323-1.352.092 2.793 0 .1389v-.1389zm-.54 2.82.4801.5335l-.6-.53zm3.6.36c-.5002.3524.5675.6567 0 0zm-41.41 11.76.53.48-.53-.48zm-4.56-33.48c-3.215 1.587-2.613 5.598-2.248 7.614-.2385 1.558-.8962 3.398-3.449 2.722-2.155 1.884-4.639.7152-5.545 4.092-2.409 2.873 3.566 3.106 4.774 3.11 2.384.9941 5.68-.1043 3.878 3.872.4442 4.496-.6906 8.494.8292 12.51.6129 3.574 5.037 6.977 9.019 6.934 4.172-.09508 6.807-4.472 8.491-7.234 1.635-1.89-1.013-2.557.1217-4.67-.4563-4.291-3.987-4.597-6.304-1.278-5.79-1.864 1.23 7.019-3.753 5.801 1.224-2.989-3.319-3.099-1.231-6.559-.3477-2.105-1.407-2.998.07542-4.613-2.966-4.396 2.787-7.4 6.176-4.321 3.106-.9494 5.378-2.811 2.825-5.404.7644-6.658-11.48 2.531-9.915-4.538-1.02-2.66 2.64-6.04-1.65-6.86-.23-.92-1.21-1.406-2.1-1.18zm14.16 11.34c.9202 3.002 2.375-.7424 0 0zm-46.15 10.62c1.396 2.823 2.998-.5563 0 0zm-2.52 3.06c-.05153.6989.8632-.4029 0 0zm2.52 2.04c-.2621 4.129 3.965-.7199 0 0zm-8.52 3.42.4383.5479l-.44-.55zm2.76-15.3c2.841-.8477 3.182 3.555 5.528 1.231 1.448 1.456 4.467 2.856 4.137 5.244.6512 2.395-2.748 3.743.09503 4.35.1781 3.374-2.498 3.917-4.688 4.512.37 4.43-6.04 1.18-8.49 1.11-2.37-4.9-2.4-10.35.43-14.52.87-.81 1.85-1.53 2.99-1.92zm3.48-6.24c-3.415 2.217-9.451.04814-11.12 4.723-2.55 2.036-4.736 6.595-3.697 9.437.06007 3.437-1.552 7.036 1.774 9.766.9990 3.027 4.506 3.956 6.548 6.294 3.534-.5051 7.483 3.79 10.33-.2637 3.616.6682 5.065-2.807 7.072-4.809 1.065-3.706 4.7-8.421 2.099-12.34-.25-3.78-2.69-6.88-5.02-9.48-1.7-3.19-5.74-1.25-7.98-3.33z"/>
	</g>
</svg>
