<svg xmlns:rdf="http://www.w3.org/1999/02/22-rdf-syntax-ns#" xmlns="http://www.w3.org/2000/svg" viewBox="0 0 732.5 170" version="1.1" xmlns:cc="http://creativecommons.org/ns#" xmlns:dc="http://purl.org/dc/elements/1.1/">
	<path style="fill:#c4008d" d="m79.18 126.3c-52.86-24.4 16.71-83.86 41.72-83.75 8.957-.5461 17.91 3.537 23.29 10.72 16.33-.7524 74.84-29.94 74.28-7.024-3.529 9.282-15.77 8.417-20.75 15.99-15.3 21.15-11.47 58.38-23.34 55.24-18.03-8.697-.1083-41.01-4.686-47.11-8.176 4.853-19.27-4.354-23.44 8.581-9.742 26.9-42.5 51.68-67.06 47.35zm46.92-57.18c-11-17.91-50.71 19.99-45.13 30.98 10.65 21 51.03-21.38 45.13-30.98zm163.2 56.08c-47-43.86 60-106 72.4-55.3.5 34.6-44.3 63.7-71.3 55.7zm48.39-48.21c-14.49-17.19-56.03 34.58-32.72 29.45 14.57-3.206 40.39-20.34 32.72-29.45zm37.74 43.79c-19.97-17.9 47.88-15.04 13.85-28.43-28.51-11.21 16.26-48.17 31.05-45.49 11.34 3.809 10.96 20.33.4788 25.06-23.07 4.568 13.2 7.07 13.77 15.47 7.144 32.09-39.66 37-59.14 33.39zm-153.5-19.5c-11.22 33.64-26.6 7.244-21.63-20.89 9.943-17.13 43.94-35.49 60.64-33.67 25.62 23.77-31.3 32.06-10.43 41.46 6.83 3.381 16.46 8.714 15.02 17.73-12.79 17.64-40.81-25.26-43.6-4.622z"/>
</svg>
