<svg xmlns:rdf="http://www.w3.org/1999/02/22-rdf-syntax-ns#" xmlns="http://www.w3.org/2000/svg" height="176" viewBox="0 0 695.15601 175.97119" width="695.2" version="1.1" xmlns:cc="http://creativecommons.org/ns#" xmlns:dc="http://purl.org/dc/elements/1.1/">
	<path d="m589 175.2c-9.205-3.405-5.071-10.04 10.5-16.86 28.76-12.59 28.88-18.64.8611-45.13-22.25-21.04-26.46-28.58-22.89-41 2.828-9.861-44.69 5.098-47.88 15.07-12.06 37.76-45.52 68.74-62.84 58.18-9.802-5.977-10.31-18.32-1.79-43.68 6.547-19.49 7.17-19.49-27.5.0434-14.15 7.974-19.83 7.91-19.83-.2239 0-4.361 30.6-25.06 50.86-34.41 3.074-1.418 5.518-3.515 5.926-5.086 5.07-19.49 47.85-21.79 56.31-3.035 1.811 4.017 2.807 4.924 4.905 4.469 43.77-9.49 60.92-14.68 72.63-21.98 46.14-28.77 86.88-40.07 86.88-24.11 0 7.985-16.2 16.65-64.38 34.41-15.98 5.894-35.62 20.54-35.62 26.56 0 2.709 7.624 11.01 23.78 25.9 26.23 24.17 29.38 41.92 10.39 58.59-9.947 8.734-31.85 15.41-40.29 12.29zm-96.17-62c6.92-7.66 18.54-26.22 18.54-29.61 0-.3561-3.266-.3060-7.258.1112-5.856.6121-7.668.3490-9.379-1.362-1.639-1.639-2.24-1.744-2.647-.4653-.2894.9105-3.382 10.11-6.871 20.44-8.737 25.87-7.511 27.62 7.611 10.89zm12.81-43.95c8.322-1.51 9.596-2.225 6.948-3.9-4.583-2.899-22.06 1.05-20.67 4.67.3869 1.008.7034 2.362.7034 3.01 0 .6471 1.266.3630 2.812-.6314 1.547-.9944 6.138-2.411 10.2-3.149zm-486 79.25c-30.3-7.9-24.57-61.57 11.24-105.3 13.45-16.41 20.38 3.6 7.48 21.56-27.94 38.94-28.95 72.94-1.94 65.74 36.19-9.7 77.64-46.84 85.84-76.99 8.1-30.07-10.1-31.26-57.67-3.74-14.99 8.67-21.96 1.36-10.2-10.7 22.43-22.98 67.87-33.89 80.67-19.35 32.6 37.17-61.96 142.7-115.4 128.8zm228.5-3.12c-10.31-4.117-7.523-17.52 8.565-41.13 16.65-24.43 30.52-76.55 21.14-79.43-11.65-3.574-23.19 2.645-26.56 14.31-1.884 6.531-6.347 19.47-9.917 28.75-3.57 9.281-10.3 27.28-14.97 40-9.131 24.91-11.59 28.62-17.96 27.02-6.462-1.622-7.561-6.954-3.751-18.2 3.346-9.883 3.346-9.883-.0326-12.79-3.05-2.624-3.551-4.304-5.151-17.28-1.571-12.74-4.724-29.5-11.28-59.98-1.107-5.145-2.607-10.46-3.334-11.82-7.09-13.25 6.065-19.38 23.6-11.01 10.86 5.186 20.83 5.754 60.44 3.446 27.18-1.584 36.09 12.93 28.27 46.01-2.537 10.72-2.557 10.52.7970 7.56 5.446-4.813 19.22-12.9 33.58-19.73 68.98-32.78 98.25-15.66 66.81 39.07-13.74 23.92-15.52 31.38-7.499 31.44 9.854.0733 9.533 11.55-.4392 15.72-24.75 10.34-31.48-18.53-12-51.49 12.01-20.31 17.15-34.05 12.83-34.31-.9472-.05729-3.077-.2511-4.733-.4307-11.82-1.282-48.65 13.12-69.46 27.16-23.51 15.86-33.58 27.33-47.03 53.57-11.96 23.33-14.82 26.4-21.93 23.56zm-19.1-97.51c6.708-19.66 4.519-22.67-12.3-16.95-3.14 1.07-6.807 1.945-8.15 1.945-2.124 0-2.341.6087-1.672 4.688.4229 2.578 1.94 13.41 3.372 24.06 3.814 28.39 3.22 27.31 8.233 15 2.38-5.844 7.111-18.78 10.51-28.75z"/>
</svg>
