<svg xmlns:rdf="http://www.w3.org/1999/02/22-rdf-syntax-ns#" xmlns="http://www.w3.org/2000/svg" height="129.2" viewBox="0 0 872.27716 129.24001" width="872.3" version="1.1" xmlns:cc="http://creativecommons.org/ns#" xmlns:dc="http://purl.org/dc/elements/1.1/">
	<g>
		<path d="m829.8 96.3c7.598-.03858 1.891-6.313 0 0zm16.2 5.76c.3374 2.248 2.846-1.413 0 0zm-26.64-46.62c16.22-1.559 31.31 6.963 33.81 21.7-3.866-6.13-36.66 4.043-40.65-16.66l3.991-1.748 2.849-3.292zm-11.88 27.18 1.726 1.726-1.726-1.726zm0 3.42c13.02 8.609 44.77-.5525 45.76 16.14-12.71 15.28-37.67 7.136-45.65-7.221l-.1846-4.18.0717-4.737zm6.84-49.32c-16.33 6.672-28.18 29.1-16.3 42.88 16.21 6.498-18.86 4.517-9.257 20.48.6060 11.34-1.968 38.15 16.48 26.19 12.57-2.358 35.96 8.146 52.17-1.478 15.84-7.816 21.23-38.53.3528-46.14 14.56-2.939 6.253-20.34 11.97-31.13-4.944-16.66-32.32 3.126-34.31-9.619-8.866-.6845-14.59 3.415-21.1-1.181zm-110.7 53.1c-.4907 6.545 7.19 3.032 0 0zm15.66-3.42c27.9-2.049 2.072 19.82-6.628 16.1-5.839 12.69-19.98-7.519-17.51-4.49-14.17 6.572 8.839-19.87 21.81-9.022l2.33-2.591zm-12.06-32.4c-2.875 6.004 6.891 6.337 0 0zm18.72 1.8 1.744 1.57-1.744-1.57zm-10.08 6.84c-11.67 16.5-20.92-17.19-.6409-9.255 10.45-8.354 24.51 12.37 13.23 12.03-.2895-5.288-8.02 4.461-12.58-2.778zm-6.84-30.78c-21.19 2.558-43.8 19.95-29.34 41.48-13.09 12.62-15.14 51.46 13 50.5 15.22 9.328 32.18-3.971 44.29-2.231 14.66 13.12 31.77 3.488 28.92-14.84 13.92-11.36-16.48-11.53-14.69-19.21 4.539-12.45 2.196-42.53-15.15-50.27-7.976-5.719-18.21-2.732-27.02-5.435zm-121.9 1.26c-8.267 4.304-34.58 1.774-26.74 18.28 14.54 2.094 34.47 3.115 24.45 25.33-3.753 15.08 7.129 33.97-15.93 27.37-13.27-1.267.9230 11.08-10.37 17.41 13.97 10.57 31.05.8780 47.12 2.768 13.98 6.411 34.17-5.809 18.5-18.75-5.461-17.4-3.757 9.243-15.44.0618-9.689 4.994 1.8-20.77-6.675-26.84 12.33-6.209-5.144-11.56 4.224-17.92.6246 2.036 28.89-17.56 22.87 4.138.1308 26.13 36.4 4.926 28.03-14.8-7.654-21.05-36.1-18.55-53.31-10.5-6.203-.3411-11.24-4.733-16.72-6.551zm30.78 28.98c-4.86-4.672 1.41 10.63 0 0zm-1.62 8.46 1.57 1.744-1.57-1.744zm10.8 1.08c-1.501 1.057 1.702 1.97 0 0zm-121.6 44.02c-5.141 6.15 9.561 4.307 0 0zm-25.56-13.68c11.01-3.305 2.301 6.657 0 .4787v-.4787zm-33.66-66.6c-8.707 18.45 17.69 22.61 6.458 42 1.494 18.4-2.524 43.12 19.61 50.01 17.43 5.34 26.04-10.93 39.22-13.55-3.144 19.88 48.7 13.46 29.17-8.307-23.9 1.301-7.317-29.74-12.69-45.14 4.456-14.82-.4341-33.38-19.74-24.94-19.77-6.024-22.13 20.98-1.996 17.29 10.91 13.94-.1930 34.25-8.458 43.98-9.988-1.856-23.31 10.37-22.86-8.744-1.429-11.85-4.704-32.63 6.392-34.71-8.843-6.613-9.699-22.16-27-16.64-2.697-.4503-5.404-.8405-8.108-1.251zm-54.6 71.5l1.744 1.57-1.744-1.57zm-13.68-100.4c-15.88 8.996 2.951 34.26-20.57 33.12-14.32-.5547-19.67 23.9.4902 19.95 26.02-1.871 4.445 33.77 14.5 47.49 1.139 16.4 28.48 30.07 41.24 15.56 16.25-7.2 17.54-46.95-2.632-37.21-6.194 5.807-17.65 3.713-9.23 15.53-3.273 17.55-15.05-8.254-10.11-15.78-5.178-10.85-1.418-38.87 16.92-24.3 26.5-2.52 7.641-36.2-11.54-21.14-20.91-1.128 6.75-32.75-19.06-33.22zm42.48 34.02c2.239 9.266 6.574-1.929 0 0zm-139.5 13.86c13.59.2784 9.235 12.39 4.846 17.84 14.08 4.596-10.39 18.3 3.794 23.02-7.307 1.188-8.102 12.67-14.48 3.441.3070 15.02-8.824-3.714-15.05 2.678-3.298-17.09-1.358-43.58 15.24-44.71 2.184 1.807 4.988-.06645 5.656-2.268zm-8.28 56.16 1.395 1.744-1.395-1.744zm-46.08-78.3c-16.44 4.647-4.386 24.86 7.109 24.79 4.374 17.58 6.288 43.33-11.96 50.97-3.411 30.75 34.01 15.51 52.37 15.3 13.72 6.043 33.02 3.281 44.99 1.872 19.37-5.784 1.598-25.4-9.259-25.87-1.822-21.33 5.46-43.45-8.194-59.93-16.85-18.91-41.02 9.925-59.6-4.398-5.105-1.123-10.18-2.703-15.46-2.744zm-69.7-32.2c-14.3 7.617-18 31.64 3.2 31.66 21.7 8.88 24-27.42 5.4-30.95-2.8-.5875-5.7-.7220-8.6-0.71zm-34.2 34.02c-20.28 16.31 10.62 28.68 23.78 17.96 13.92 12.68-.0719 35.43 4.078 52.09-11.41 4.487-38.99-5.736-33.29 17.33 20.78 8.066 43.25 3.813 66.63 4.6 19.58 10.34 36.37-13.37 15.29-21.53-9.281 1.055-39.31 5.97-26.38-15.09-6.365-17.26 12.26-57.95-18.02-53.62-9.678-3.169-21.97 1.64-32.09-1.747zm-59.6 1.98c-1.642 9.37 9.488-1.486 0 0zm-63 83.5 1.744 1.6-1.744-1.6zm51.12-100.6c20.31-3.165 40.87 15.51 24.68 34.2-14.88 5.65-37 6.66-30.22-13.77 5.15-.77-12.84-18.07 5.54-20.43zm-44.28-15.3c-17.1 18.73 14.49 20.39 20.88 19.8-.19 19.37-1.04 34.59-1.12 55.7.20 14.3 1.99 32.9-17.46 24.7-14.91 12.6.557 28.7 15.07 20.6 14.83-5.9 51.51 11.7 47.33-15.3-5.73-8.1-30.34 2-25.23-18.13-6.04-30.04 39.32-3.57 45.2-31.84 14.99-14.12 3.76-43.61-14.33-48.79-17.28-14.38-42.99-.33-63.17-5.907-2.39-.277-4.781-.555-7.17-.833z"/>
	</g>
</svg>
