<svg  xmlns="http://www.w3.org/2000/svg" height="250" viewBox="0 0 836.25 250" width="836.2" style="fill:#ff00a8" >
	<path  d="m361.7 243.9c-116.9-31.9-201.6-32.2-289.9-15.2-31.43-16.2-60.01-100.6-57-124 28.76-45.46 131.7-85.57 171-82.58 19.7 59.4 87.92 6.701 105.4 43.37 47.95 2.106 46.28-45.22 117.5-1.291 61.9 29.72 168.5-20.06 213.7 14.87 22.82 16.06 48.91-1.554 73.53 5.605 40.4 3.552 115.3-.0391 125.3 41.48-7.017 52.35-54.58 82.86-96.95 101.5-23.22 9.913-45.79-2.934-68.89-4.099-114-22.67-139.4 20.42-185.2 5.88-39.58-18.95-76.83 22.26-108.4 14.41z"/>
</svg>
