<svg xmlns:rdf="http://www.w3.org/1999/02/22-rdf-syntax-ns#" xmlns="http://www.w3.org/2000/svg" height="295" viewBox="0 0 1006.25 295" width="1006" version="1.1" xmlns:cc="http://creativecommons.org/ns#" xmlns:dc="http://purl.org/dc/elements/1.1/">
	<path d="m10.18 291.8c-2.988-3.8-3.3-5.2-5.707-26.2-9.277-80.8-3.65-116.1 25.03-157 47.7-68.04 137.9-80.75 97.4-13.69-16.1 26.59-47.39 66.29-52.24 66.29-11.4 0-8.878-9.113 9.677-34.92 28.66-39.85 39.06-57.71 34.26-58.85-29.33-6.91-80.69 40.35-95.51 87.95-3.425 10.98-3.425 10.98-.9183 13.74 3.935 4.327 5.281 119.1 1.445 123.2-3.569 3.83-10.22 3.566-13.44-.5339zm881.1-31.1c-5.401-6.508 3.138-10.87 32.13-16.4 50.46-9.633 69-18.73 58.55-28.75-16.5-15.9-45.1-29.5-93.2-44.4-18.7-5.8-32.9-11.9-37.2-16.1-5.658-5.459-3.008 36.8 2.869 45.77 7.642 11.66-5.271 19.19-14.03 8.175-25.93-32.59-55.13-42.74-63.83-22.19-23.65 55.9-25.36 58.71-34.5 56.41-9.595-2.408-8.911-7.066 5.439-37.04 13.4-27.99 13.81-29.31 9.256-29.57-7.176-.4086-7.175-5.441.005-17.89 3.037-5.266 8.153-15.45 11.37-22.62 6.806-15.19 8.503-17.42 13.25-17.42 3.757 0 8.605 4.172 8.605 7.406 0 1.088 1.23.1188 2.812-2.218 30.6-45.17 59.06-49.44 59.06-8.858 0 13.2 0 13.2 7.072 7.999 45.4-33.29 132-53.95 142.1-33.69 5 12.29-23.9 35.69-45.1 35.69-12.2 0-7.631-9.462 8.446-17.5 16.24-8.12 14.64-9.384-6.448-5.087-33.3 6.8-92.9 31.7-92.9 38.8 0 1.65 14.05 7.36 38.4 15.61 94.62 32.04 128.1 68.2 82.75 89.39-21.46 10.03-89.88 20.49-94.84 14.5zm-61.67-96.28c.1063-5.135 1.064-16.53 2.128-25.31 5.005-41.32-.7954-42.37-26.3-4.726-14.41 21.26-14.48 21.03 5.77 17.45 10.48-1.853 17.33-.3819 16.46 3.533-.1084.4889-.1970 2.04-.1970 3.447 0 1.532-1.499 3.413-3.735 4.688-3.735 2.129-3.735 2.129.9375 6.145 2.57 2.209 4.689 4.037 4.708 4.062.0196.0259.1228-4.154.229-9.29zm-681.3 83.3c-3.244-3.585-2.479-10.76 2.956-27.71 4.459-13.91 13.49-48.82 15.43-59.69.8916-4.974-1.992-5.278-19.54-2.057-12.5 2.4-17.2 1-17.2-5 0-4.905 2.962-6.555 18.43-10.27 39.89-9.568 43.97-3.574 30.76 45.2-14.35 52.99-22.54 68.8-30.87 59.59zm163.9-17.7c-7.078-6.23-9.781-12.48-15.22-35.22-11.97-50.02-19.92-49.69-55.47 2.32-15.14 22.15-20.14 25.61-27.03 18.73-2.864-2.864-2.884-3.122-3.795-48.44-.8518-42.35-1.101-45.99-3.54-51.66-6.299-14.66 9.666-19.28 16.77-4.855 2.817 5.721 2.959 7.379 3.559 41.56.625 35.6.625 35.6 5.57 28.75 42.83-59.3 66.56-56.4 82.06 10.03 4.856 20.81 6.586 24.6 13.31 29.1 9.28 6.223 6.166 14.65-5.415 14.65-4.244 0-6.179-.8874-10.8-4.953zm289.5-2.423c-2.498-1.523-4.155-3.74-4.652-6.223-1.369-6.843 4.856-61.5 7.922-69.56 1.061-2.791.6709-3.659-3.152-7.016-7.9-7-4.8-14.8 6.1-14.8 5.646 0 5.917-.1815 10.73-7.188 19.42-28.29 56.75-47.31 73.9-37.67 15.77 8.864 13.23 26.56-7.724 53.88-25.9 33.7-24.8 32.1-24.8 37.7 0 9.03 13.26 18.89 31.15 23.16 12.96 3.096 16.11 6.321 11.96 12.25-11.76 16.79-62.38-11.53-62.18-34.79.0947-11.08 2.206-14.86 25.01-44.77 21.65-28.39 23.18-37.02 5.455-30.76-22.99 8.11-45.87 34.09-41.94 47.62 4.288 14.75-9.454 74.16-18.2 78.68-4.577 2.367-4.823 2.354-9.505-.5009zm-104.2-6.509c-15.58-3.291-17.84-29.06-5.682-64.76 3.85-11.3 3.793-11.37-6.598-7.767-43.03 14.92-44.61 16.27-44.61 38.13 0 22.4-.6104 24.54-6.999 24.54-5.818 0-7.655-4.349-8.856-20.96-1.245-17.22-.4510-16.02-8.226-12.42-6.32 2.928-6.32 2.928-2.057 6.33 12.08 9.637 1.946 17.02-11.98 8.728-7.668-4.568-7.668-4.568-29.78 6.133-40.54 19.62-58.55 16.73-45.94-7.362 11.99-22.9 28.15-30.22 53.07-24.04 10.76 2.666 10.76 2.666 26.37-4.431 19.21-8.731 17.1-5.502 18.07-27.61 1.343-30.64 5.095-72.23 8.912-98.78.5865-4.079.2322-5.473-1.876-7.381-7.7-6.87 2.6-28.15 13.7-28.15 4.977 0 7.689 2.183 9.883 7.953 1.542 4.056 1.167 7.574-5.476 51.42-6.912 45.62-10.26 88-6.834 86.54 67.28-28.57 79.83-25.2 66.02 17.75-4.98 15.49-8.152 37.59-5.393 37.57 7.065-.0519 27.1-22.22 54.84-60.68 19.89-27.58 22.65-29.93 28.17-24.01 3.506 3.763 2.912 5.498-7.87 23-36.6 59.42-61.71 84.36-80.87 80.31zm-321.4-84.7c-5.515-4.466 6.965-43.55 16.78-52.54 10.11-9.269 23.74 4.591 14.04 14.29-1.674 1.674-7.085 10.51-12.02 19.63-12.14 22.42-13.02 23.3-18.79 18.62z"/>
</svg>
