<svg id="pinturas" xmlns="http://www.w3.org/2000/svg" viewBox="0 0 732.5 170" height="170" width="732" fill="#ff4400" stroke-width="1" stroke="#ff4400">
	<path d="m187.9 154.2c-12.24-6.657-8.557-22.93-6.959-34.16 2.988-15.34 7.167-30.51 8.947-46.02 2.899-12.62 21.86-13.38 26.16-1.489 3.485 13.06-6.689 24.59-9.583 36.8-4.537 7.855-4.859 25.09 6.25 11.91 9.671-9.668 21.78 2.947 12.84 12.61-7.064 12.52-22.2 26.51-37.66 20.35zm100.7-1.3c-11.39-8.026-8.114-23.83-6.605-35.64-3.096-8.194-10.36 14.85-15.17 18.18-5.731 10.5-25.25 10.97-22.77-4.339 2.767-22.02 3.923-44.55 10.68-65.8 2.038-12.38 22.37-10.02 19.75 2.959 1.592 7.451-7.571 20.75-1.887 24.27 8.512-4.812 19.47-16.5 29.33-8.439 3.919 6.876 8.576 11.48 16.14 5.718 11.31-.5364 20.65-7.174 22.43-18.77 5.657-14.47 9.031-29.64 11.05-44.98 1.477-14.64 26.28-11.95 22.58 3.27-1.433 17.8-9.82 33.94-14.72 50.84 4.235 7.736 6.623 17.71-3.962 22.36-11.69 8.154-8.193 25.88-1.451 36.22 4.677 16.17-21.07 15.86-23.59 2.213-5.216-8.088 2.725-29.09-13.12-23.74-6.822-1.26-15.31-9.712-15.53 3.212-6.834 11.01 7.792 23.46-1.645 32.7-3.368 2.581-8.126 1.993-11.51-.2281zm370.6-2.83c-14.95-6.048-4.091-23.2 6.59-27.16-3.839-9.171-21.77-8.461-30.58-14.71-11.42-4.175-21.63-16.09-16.59-28.77 7.279-16.58 25.57-26.93 43.22-28.05 13.74-2.614 24.98 18 10.78 25.18-7.008 6.424-22.03 3.074-25.88 9.48 14.15 9.355 33.52 10.23 44.97 23.71 8.579 12.91-1.5 28.52-12.77 35.77-5.632 3.719-12.96 7.132-19.74 4.555zm-597.2-11.7c-4.58-12.7-3.55-26.8-4.39-40.21.19-17.08-1.1-34.67 3.25-51.31 11.46-19.28 34.6-28.14 55.94-30.82 17.54-2.317 38.38 2.816 46.77 19.96 8.261 14.27 3.596 35.46-12.41 41.99-11.36 4.651-25.6 7.652-36.89 1.407-10.01-13.35 11.87-17 21.04-19.33 12.95-.5575 14.55-19.07 2.468-22.54-17.46-5.689-37.52 1.818-50.07 14.48-8.649 12.59-5.64 28.84-5.451 43.23.3591 14.89 4.893 31.61-3.763 45-4.439 6.307-12.39 2.846-16.48-1.822zm528 3.2c-11.19-5.393-9.355-20.17-10.99-30.6-.7630-14.92-21.13-1.771-19.48 8.577-1.449 11.44-16.96 24.21-25.63 11.56-6.716-13.22 13.55-22.41 9.381-34.82-4.55-14.25 11.9-18.17 21.28-22.02 10.09-8.279 13.03-24.22 25.99-28.93 12.64 1.581 11.49 18.55 11.92 28.39-1.383 18.36-2.255 36.76-1.581 55.17.097 6.189-2.175 16.65-10.9 12.66zm-145.9-6.619c-9.225-1.602-2.965-24.57-12.16-12.15-9.713 11.43-28.91 16.52-40.68 5.25-13.09-10.85-10-30.11-3.534-43.72 3.479-9.286 14.88-22.61 24.92-12.91 8.349 10-1.361 21.87-5.501 31.41-2.38 13.53 15.59-.8424 19.7-4.672 7.945-6.57 21.91-5.018 22.06-18.9-.5918-11.4 13-28.11 22.28-13.98 4.739 14.46 16.76-4.978 25.59-5.566 10.63-4.204 24.03-8.469 34.49-1.731 8.782 9.699-3.961 21.55-11.29 27.76-8.29 6.69-24.54 17.79-11.13 28.03 11.55 9.139-.0201 26.72-12.28 17.25-11.09-6.404-22.65-19.47-17.73-33.13-6.693 2.459-11.36 15.24-15.12 22.84-2.58 8.498-9.132 19.53-19.61 14.22zm-241.6-90.24c-13.48-4.401-9.165-25.74 5.279-23.4 9.449-.04171 20.31 10.55 13.67 19.76-4.27 6.627-12.53 7.437-18.95 3.639z"/>
</svg>
