<svg xmlns:rdf="http://www.w3.org/1999/02/22-rdf-syntax-ns#" xmlns="http://www.w3.org/2000/svg" viewBox="0 0 800 375" version="1.1" xmlns:cc="http://creativecommons.org/ns#" xmlns:dc="http://purl.org/dc/elements/1.1/">
	<path d="m71.47 329.5c-1.877-14.99-4.724-33.62 7.421-44.97 5.21-16.55.9248-34.61 1.676-51.74-.9234-29.45-1.377-58.94.03888-88.38-9.814-13.3-22.47-43.64-.1560-50.81 1.009 8.886 10.17-4.096 13.32 4.011 9.692-17.97 29.06-6.528 31.2 9.562 6.329 19.3 11.53 37.74 11.41 57.77 4.602 21.52-2.748 43.08-1.73 64.73-.6947 14.96-8.612 27.44-15.78 40.07-6.315.9171-11.58 21.24-15.78 3.233-11.2-19.4-8.398 16.79 5.771 16.92 2.702 12.16 2.757 28.1 1.387 41.92-10.04 4.788-30.21 8.028-37.31 2.41l-.8394-2.002-.6333-2.737zm39.43-105c4.403-15.55 6.932-31.91 8.27-47.96-3.766-12.83 3.374-37.61-11.09-42.22 1.566 16.78-10.15-7.361-9.417 8.465-3.658 23.39.5764 47.09 0.51 70.31 2.688 6.514 1.379-18.12 6.97-1.965 2.388 2.878-3.042 21.24 4.756 13.37zm79.1 56.7c-1.119-9.8-14.43 10.52-13.33-4.909-13.29 15.53-27.65-7.708-24.3-22.03 1.683-12.42 6.437-36.71 22.14-21.74 6.922-13.33.2278-30.24 4.11-44.95-1.163-17.36 4.657-37.37-4.306-52.87-12.28 21.39-26.28-8.209-21.58-21.79-1.994-11.25 13.13-32.81 18.22-16.02 13.14-15.6-7.491-36.33 5.426-52.12 3.895-9.927 11.62-27.54 19.7-9.32 5.504 19.24 7.837 40.71-.1938 59.52-3.357 20.03 4.053 39.91.7077 60.13-.8687 21.58 1.211 43.12-1.049 64.62-.6024 9.796 3.964 15.36 10.71 7.622 6.093 5.751 11.54-3.778 12.68 9.573 2.609 11.9 10.29 37.41-2.857 42.2-3.808 4.696-20.04 1.675-26.04 3.465l-.0411-1.085v-.3zm105.5-2.188c-4.285-6.38-13.68 7.678-19.18-1.456-13.18-8.107-22.38 3.775-35.14 3.131-10.01-15.78-13.38-44.65-.6321-59.16 2.556-17.25 2.457-35.58 2.322-53.51-.6865-11.46 3.619-27.69-8.934-31.6-3.607-14.93-10.16-43.7 9.624-47.77 9.614 2.975 4.673 10.07 13.56 9.468 6.069 13.92 21.81-26 27.37-3.928 14.56 7.285 14.39 38.54 12.82 56.59-.008 18.69 3.96 37.01 1.131 55.64.3230 18.4 18.52 31.46 12.91 51.72.8980 4.915-11.67 36.32-15.84 20.87zm-19.51-67.45c-1.148-15.12 9.656-30.41 1.352-44.47 5.394-9.64 4.372-32.65-6.425-17.03-8.763 2.967-6.71 19.55-7.486 31.48-.3984 9.223-3.442 32.86 3.607 32.12 3.321-20.03 10.09 18.17 8.952-2.1zm81.05 67.14c-14.45-18.74-11.58-42.57-14.02-64.69-4.158-21.52 6.965-49.46-6.591-66.03-18.11 2.227-13.56-23.82-9.013-37.01 4.842-11.64 21.63-11.72 15.18-29.02 1.494-11.65-3.298-45.92 13.22-38.66 12.68 16.31-1.546 37.43 5.827 54.91 7.709-2.411 26.13-1.042 23.62 14.89-6.199 5.202 4.255 23.31-7.436 34.91-2.428 14.4-13.78-12.67-16.91 4.925 1.163 14.77-3.618 33.97 5.249 45.79 4.904-7.433 17.84-24.07 16.88-4.2 4.02 18.9 5.571 37.73.7819 56.72-4.606 12.88-12.22 43.14-26.78 27.48zm139.5 2.176c-8.78-9.981-12.87-20.21-6.766-32.07-7.518-13.32 8.455-24.78 14.38-24.08-.1928-19.11-1.173-38.19.9062-57.28.0734-12.16 5.071-28.94-11.58-28.12-5.781-6.453-13.29-14.81-5.31-26.86.6443-13.82 6.814-19.66 19.04-22.24 4.854-8.274 12.59 25.3 18.2 5.632 7.377-1.006 18.01-14.6 22.08.1827-3.311 10 9.669.9302 8.875 14.25 6.364 15.85 3.684 33.05 1.93 49.46 2.141 16.24-15.41 35.48-23.71 12.86-.2504-7.123 4.289-25.73-1.577-26.21 2.604 12.94-6.693 21.75-10.95 7.445 3.972 21.31-.9374 43.06.7748 64.93 3.335 16.72 4.939-.2042 13.04.5750 1.263 17.65 13.92 61-13.01 55.56-6.478-.3859-11.92 7.02-15.56-2.426-3.604.5638-7.53 13.83-10.75 8.398zm100.3.7486c-12.27-5.982-24.4-17.13-24.33-34.72-3.331-22.23-7.307-47.53 5.561-67.43-3.237-20.81-5.012-43.6-1.527-65.2 8.105-12.39 17.46-34.91 36.13-22.82 15.06 13.48 17.35 35.43 17.96 54.73 6.129 18.59-.0118 38.35 4.883 57.06 12.18 14.32 8.612 34.39 4.422 51.15-1.74 10.41 3.031 26.06-7.618 25.29-10.75 5.245-18.2-17.1-22.4-2.026-7.229-5.086-4.474 8.628-13.08 3.968zm2.937-57.5c2.481-8.899-8.214-24.34-7.298-7.266-.6139 4.058 3.684 19.15 7.298 7.266zm9.444-6.048c11.36-2.741-.5673-23.56-4.754-9.457-11.61-8.338-.8367 16.08 4.754 9.457zm-5.3-68.1c4.508-.9479 12.89.0356 7.013-9.902-12.2-10.9-11.6 15.6-7 9.9zm87.5 131.8c-11.33-.6438-15.86-9.125-23.38-.4194-16.39-10.71-3.409-36.16-7.956-53.49-1.647-17.54 3.541-35.07 4.205-52.18-3.519-23.01-1.253-47 7.098-68.65 6.641-11.69 19-8.395 26.06-7.919-1.964 14.89 9.845 7.29 15.14 1.352 9.94 14.01 8.826 31.89 6.228 48.08.007 17.41-4.639 35.12 1.534 51.93 3.262 20.39 1.653 41.8-4.158 61.58-3.08 8.163-4.256 15.6-12.86 15.75 2.976 7.244-8.541 5.505-11.91 3.975zm-.8-48c9.967 4.528 8.27-8.688 14.26-15.25-3.844-8.462-21.99 8.78-13.77-8.523-2.134-7.906-11.69-2.62-14.11-5.218.3760 10.94 6.621 21.97 9.228 31.95l1.162-.3379 3.23-2.624zm10.1-69.69c4.908-20.81-27.94-27.29-17.24-2.982 4.918 2.364 14.08 6.282 17.27 6.569l-.0269-3.587v.00005zm-272.5 115.8c-19.53-5.234-18.71-34.48-21.7-53.35 4.618-20.23-1.285-40.47.5927-61.03 4.307-15.39-4.75-27.27-6.6-41.38 1.347-13.65-3.598-37.44 17.1-28.46 11.62 15.65 15.68 39.74 8.668 57.94-2.902 20.29-.8096 40.86 1.611 60.85 3.213-11.55 7.718-4.335 13.53-3.679 2.327-16.33 2.087-33.53 6.454-49.82 8.915-22.17-21.58-28.76-13.51-50.21-1.679-24.95 38.17-22.38 29.94 3.243-.7166 23.38 1.612 46.89-1.384 70.19 8.309 15.33-9.53 40.75 9.009 45.62 4.444 14.28 8.576 39.39-7.919 46.34-7.773-2.316-14.47-6.363-22.1-7.955-1.954 7.376-13.21 7.104-11.59 12.32l-2.106-.6258z"/>
</svg>
